<svg width="37" height="24" viewBox="0 0 37 24" fill="none" xmlns="http://www.w3.org/2000/svg">
<rect width="37" height="24" rx="1" fill="white"/>
<path d="M5.96433 8.3114L2.31055 16.0406H6.68464L7.2269 14.8082H8.46639L9.00865 16.0406H13.8233V15.1L14.2523 16.0406H16.7428L17.1718 15.0801V16.0406H27.185L28.4026 14.8402L29.5426 16.0406L34.6856 16.0505L31.0203 12.1976L34.6856 8.3114H29.6224L28.4372 9.48956L27.333 8.3114H16.44L15.5046 10.3064L14.5473 8.3114H10.1823V9.21997L9.69675 8.3114C9.69675 8.3114 5.96433 8.3114 5.96433 8.3114ZM6.8107 9.40895H8.94283L11.3664 14.6501V9.40895H13.7021L15.574 13.1669L17.2992 9.40895H19.6232V14.9551H18.2091L18.1975 10.6092L16.1359 14.9551H14.8709L12.7978 10.6092V14.9551H9.88862L9.3371 13.7118H6.35746L5.80708 14.954H4.2484L6.8107 9.40895ZM20.9169 9.40895H26.667L28.4256 11.2249L30.241 9.40895H31.9997L29.3276 12.1965L31.9997 14.9519H30.1612L28.4026 13.1149L26.578 14.9519H20.9169V9.40895ZM7.84792 10.3473L6.86624 12.5623H8.82845L7.84792 10.3473ZM22.3369 10.5573V11.5697H25.4738V12.6982H22.3369V13.8035H25.8554L27.4903 12.1755L25.9247 10.5563H22.3369V10.5573Z" fill="#3B78B7"/>
</svg>
