<svg width="37" height="24" viewBox="0 0 37 24" fill="none" xmlns="http://www.w3.org/2000/svg">
<path d="M33.6865 0H3.31352C3.18702 0 3.0603 0 2.93403 0.000747416C2.82728 0.00151748 2.72079 0.00271788 2.6143 0.00566224C2.38204 0.0120266 2.1478 0.0259104 1.91845 0.0676751C1.68544 0.110165 1.46861 0.17947 1.25707 0.288593C1.04912 0.395745 0.858732 0.535897 0.693742 0.703137C0.528681 0.870377 0.390356 1.06296 0.284624 1.27389C0.176901 1.48822 0.108455 1.70798 0.0668097 1.94426C0.0253683 2.1767 0.0115738 2.41399 0.0053148 2.64907C0.00245354 2.75697 0.00122632 2.86487 0.000531123 2.97274C-0.000206548 3.10096 3.93424e-05 3.22909 3.93424e-05 3.35753V20.6427C3.93424e-05 20.7712 -0.000206548 20.8991 0.000531123 21.0275C0.00122632 21.1354 0.00245354 21.2433 0.0053148 21.3512C0.0115738 21.5861 0.0253683 21.8234 0.0668097 22.0557C0.108455 22.2921 0.176901 22.5118 0.284624 22.7261C0.390356 22.9371 0.528681 23.1299 0.693742 23.2969C0.858732 23.4644 1.04912 23.6045 1.25707 23.7114C1.46861 23.8208 1.68544 23.8902 1.91845 23.9326C2.1478 23.9741 2.38204 23.9882 2.6143 23.9946C2.72079 23.9971 2.82728 23.9985 2.93403 23.999C3.0603 24 3.18702 24 3.31352 24H33.6865C33.8128 24 33.9395 24 34.0658 23.999C34.1723 23.9985 34.2788 23.9971 34.3857 23.9946C34.6175 23.9882 34.8517 23.9741 35.0816 23.9326C35.3143 23.8902 35.5312 23.8208 35.7427 23.7114C35.9509 23.6045 36.1407 23.4644 36.3061 23.2969C36.4709 23.1299 36.6092 22.9371 36.7152 22.7261C36.8232 22.5118 36.8915 22.2921 36.933 22.0557C36.9744 21.8234 36.9879 21.5861 36.9942 21.3512C36.9971 21.2433 36.9985 21.1354 36.999 21.0275C37 20.8991 37 20.7712 37 20.6427V3.35753C37 3.22909 37 3.10096 36.999 2.97274C36.9985 2.86487 36.9971 2.75697 36.9942 2.64907C36.9879 2.41399 36.9744 2.1767 36.933 1.94426C36.8915 1.70798 36.8232 1.48822 36.7152 1.27389C36.6092 1.06296 36.4709 0.870377 36.3061 0.703137C36.1407 0.535897 35.9509 0.395745 35.7427 0.288593C35.5312 0.17947 35.3143 0.110165 35.0816 0.0676751C34.8517 0.0259104 34.6175 0.0120266 34.3857 0.00566224C34.2788 0.00271788 34.1723 0.00151748 34.0658 0.000747416C33.9395 0 33.8128 0 33.6865 0Z" fill="black"/>
<path d="M34.3635 0L34.7538 0.000776546C34.8596 0.00155308 34.9653 0.00274213 35.0716 0.0057512C35.2565 0.0109443 35.4729 0.0213547 35.6745 0.0589195C35.8498 0.091728 35.9968 0.14162 36.1379 0.216265C36.2772 0.289817 36.4048 0.386204 36.5162 0.501835C36.6281 0.618242 36.7209 0.751078 36.7927 0.89743C36.8641 1.04291 36.9118 1.19496 36.9432 1.37847C36.9792 1.58575 36.9892 1.81119 36.9943 2.00457C36.9971 2.11372 36.9985 2.22288 36.999 2.33462C37 2.46976 37 2.60483 37 2.74024V21.26C37 21.3954 37 21.5303 36.999 21.6683C36.9985 21.7774 36.9971 21.8866 36.9942 21.9959C36.9892 22.189 36.9792 22.4143 36.9427 22.6241C36.9118 22.805 36.8641 22.9571 36.7923 23.1033C36.7208 23.2493 36.6281 23.382 36.5167 23.4977C36.4046 23.6142 36.2775 23.7103 36.1365 23.7845C35.9965 23.8588 35.8497 23.9086 35.6762 23.9411C35.4704 23.9792 35.245 23.9897 35.0753 23.9944C34.9685 23.9969 34.8622 23.9984 34.7533 23.999C34.6235 24 34.4933 24 34.3635 24H2.63649C2.63476 24 2.63308 24 2.63133 24C2.50305 24 2.3745 24 2.24388 23.999C2.13738 23.9984 2.03112 23.997 1.92837 23.9945C1.75474 23.9897 1.5292 23.9792 1.32515 23.9413C1.15009 23.9086 1.00333 23.8588 0.861458 23.7835C0.72185 23.7099 0.594753 23.6139 0.482648 23.4972C0.371408 23.3818 0.278965 23.2496 0.20749 23.1033C0.135945 22.9573 0.0880769 22.8047 0.0566032 22.6216C0.0202213 22.4123 0.0102274 22.1879 0.00523281 21.9961C0.00238175 21.8863 0.00119089 21.7765 0.000513734 21.6673L0 21.3451L2.33819e-05 21.26V2.74024L0 2.65516L0.000490352 2.3336C0.00119086 2.2238 0.00238175 2.11402 0.00523281 2.00431C0.0102274 1.81233 0.0202213 1.58782 0.0569044 1.37675C0.0881002 1.19525 0.135945 1.04271 0.207863 0.895925C0.278778 0.750835 0.371385 0.618387 0.483211 0.502199C0.594591 0.386398 0.722104 0.290132 0.862603 0.215876C1.00296 0.141596 1.15 0.091728 1.32505 0.0589922C1.52675 0.0213304 1.74323 0.0109442 1.92863 0.0057269C2.03431 0.0027421 2.14 0.00155305 2.24489 0.000800788L2.63649 0H34.3635Z" fill="white"/>
<path d="M10.101 8.07226C10.4178 7.67077 10.6328 7.13169 10.5761 6.58081C10.1123 6.60418 9.5464 6.89081 9.21876 7.29261C8.92457 7.6367 8.66419 8.19835 8.73207 8.72613C9.25266 8.77189 9.77277 8.46248 10.101 8.07226Z" fill="black"/>
<path d="M10.5699 8.82923C9.81391 8.7836 9.17111 9.26398 8.81007 9.26398C8.44883 9.26398 7.89596 8.85222 7.29798 8.86332C6.51968 8.8749 5.7975 9.32077 5.40255 10.0299C4.59019 11.4486 5.18817 13.5529 5.97814 14.7083C6.36177 15.2799 6.82411 15.9093 7.43331 15.8867C8.0089 15.8638 8.23451 15.5091 8.93417 15.5091C9.63331 15.5091 9.83654 15.8867 10.4458 15.8753C11.0777 15.8638 11.4727 15.3034 11.8563 14.7312C12.2964 14.0796 12.4766 13.4504 12.4879 13.4159C12.4766 13.4044 11.2695 12.9352 11.2583 11.5284C11.2469 10.3504 12.206 9.7901 12.2512 9.75535C11.7096 8.94374 10.8633 8.85222 10.5699 8.82923Z" fill="black"/>
<path d="M17.1531 7.23487C18.7963 7.23487 19.9405 8.38251 19.9405 10.0534C19.9405 11.7302 18.7727 12.8838 17.1118 12.8838H15.2925V15.8153H13.978V7.23486H17.1531V7.23487ZM15.2925 11.7659H16.8008C17.9452 11.7659 18.5966 11.1416 18.5966 10.0593C18.5966 8.9772 17.9452 8.35876 16.8067 8.35876H15.2925V11.7659Z" fill="black"/>
<path d="M20.2842 14.0373C20.2842 12.9431 21.1117 12.2713 22.579 12.188L24.269 12.087V11.6053C24.269 10.9096 23.8054 10.4934 23.0309 10.4934C22.2971 10.4934 21.8393 10.8501 21.7279 11.4091H20.5307C20.6011 10.2792 21.5518 9.44678 23.0777 9.44678C24.5742 9.44678 25.5308 10.2495 25.5308 11.5042V15.8152H24.3159V14.7865H24.2867C23.9288 15.4823 23.1481 15.9222 22.3383 15.9222C21.1293 15.9222 20.2842 15.1611 20.2842 14.0373ZM24.269 13.4725V12.9789L22.749 13.074C21.9919 13.1276 21.5636 13.4665 21.5636 14.0017C21.5636 14.5487 22.0096 14.9055 22.6904 14.9055C23.5765 14.9055 24.269 14.287 24.269 13.4725Z" fill="black"/>
<path d="M26.6778 18.1165V17.0759C26.7715 17.0997 26.9827 17.0997 27.0884 17.0997C27.6753 17.0997 27.9922 16.85 28.1858 16.2078C28.1858 16.1959 28.2974 15.8272 28.2974 15.8213L26.0674 9.55981H27.4405L29.0017 14.6499H29.0251L30.5863 9.55981H31.9243L29.6119 16.1423C29.0839 17.6587 28.4736 18.1462 27.1942 18.1462C27.0884 18.1462 26.7715 18.1343 26.6778 18.1165Z" fill="black"/>
</svg>
