<svg width="37" height="24" viewBox="0 0 37 24" fill="none" xmlns="http://www.w3.org/2000/svg">
<rect width="37" height="24" rx="1" fill="white"/>
<g clip-path="url(#clip0)">
<path d="M21.3225 6.55469H15.1829V17.8369H21.3225V6.55469Z" fill="#FF5F00"/>
<path d="M15.5731 12.1953C15.5721 11.1088 15.8129 10.0362 16.2772 9.05888C16.7416 8.08155 17.4172 7.22503 18.2531 6.5542C17.218 5.7222 15.9748 5.2048 14.6657 5.06112C13.3567 4.91744 12.0344 5.15329 10.8502 5.74171C9.66603 6.33012 8.66761 7.24736 7.96909 8.38859C7.27058 9.52982 6.90015 10.849 6.90015 12.1953C6.90015 13.5417 7.27058 14.8608 7.96909 16.0021C8.66761 17.1433 9.66603 18.0605 10.8502 18.6489C12.0344 19.2374 13.3567 19.4732 14.6657 19.3295C15.9748 19.1859 17.218 18.6685 18.2531 17.8365C17.4172 17.1656 16.7416 16.3091 16.2772 15.3318C15.8129 14.3544 15.5721 13.2819 15.5731 12.1953Z" fill="#EB001B"/>
<path d="M29.6053 12.1953C29.6053 13.5416 29.235 14.8608 28.5365 16.002C27.838 17.1433 26.8396 18.0605 25.6554 18.6489C24.4712 19.2374 23.1491 19.4732 21.84 19.3295C20.5309 19.1859 19.2878 18.6684 18.2527 17.8365C19.0878 17.1649 19.763 16.3083 20.2272 15.3311C20.6915 14.3539 20.9327 13.2817 20.9327 12.1953C20.9327 11.1089 20.6915 10.0367 20.2272 9.05954C19.763 8.08236 19.0878 7.22571 18.2527 6.5542C19.2878 5.7222 20.5309 5.2048 21.84 5.06112C23.1491 4.91744 24.4712 5.1533 25.6554 5.74172C26.8396 6.33014 27.838 7.24739 28.5365 8.38862C29.235 9.52985 29.6053 10.849 29.6053 12.1953Z" fill="#F79E1B"/>
<path d="M28.936 16.6429V16.4119H29.0271V16.3648H28.7952V16.4119H28.8863V16.6429H28.936ZM29.3864 16.6429V16.3644H29.3153L29.2335 16.5559L29.1517 16.3644H29.0806V16.6429H29.1308V16.4328L29.2075 16.6139H29.2595L29.3362 16.4323V16.6429H29.3864Z" fill="#F79E1B"/>
</g>
<defs>
<clipPath id="clip0">
<rect width="28.6133" height="24" fill="white" transform="translate(3.94678)"/>
</clipPath>
</defs>
</svg>
