<svg width="103" height="20" viewBox="0 0 103 20" fill="none" xmlns="http://www.w3.org/2000/svg">
<path d="M6.97086 6.27113C6.91676 6.3631 6.85996 6.43072 6.80045 6.474C6.74093 6.51728 6.66519 6.53892 6.57322 6.53892C6.47584 6.53892 6.36494 6.49564 6.2405 6.40908C6.11607 6.31711 5.95918 6.21702 5.76983 6.10882C5.58589 5.99521 5.36407 5.89513 5.10439 5.80857C4.84471 5.71659 4.53363 5.67061 4.17116 5.67061C3.83032 5.67061 3.53006 5.71659 3.27038 5.80857C3.01611 5.89513 2.80241 6.01685 2.62929 6.17374C2.45617 6.32523 2.32362 6.50646 2.23165 6.71746C2.14509 6.92304 2.10181 7.14755 2.10181 7.39101C2.10181 7.70479 2.18025 7.96447 2.33715 8.17006C2.49945 8.37564 2.71044 8.55147 2.97012 8.69754C3.22981 8.84361 3.52465 8.97075 3.85467 9.07895C4.18468 9.18715 4.52281 9.30076 4.86905 9.41978C5.2153 9.53339 5.55343 9.66594 5.88344 9.81742C6.21345 9.9689 6.5083 10.161 6.76799 10.3936C7.02767 10.6208 7.23596 10.9021 7.39285 11.2376C7.55515 11.5676 7.6363 11.9733 7.6363 12.4548C7.6363 12.9688 7.54703 13.4503 7.3685 13.8993C7.19538 14.3483 6.94111 14.7406 6.60568 15.076C6.27026 15.4114 5.85639 15.6765 5.36407 15.8713C4.87717 16.0606 4.32264 16.1553 3.70048 16.1553C3.32719 16.1553 2.96471 16.1174 2.61306 16.0417C2.2614 15.9714 1.92869 15.8713 1.6149 15.7414C1.30112 15.6062 1.00627 15.4466 0.730358 15.2626C0.459855 15.0733 0.216402 14.8623 0 14.6297L0.495021 13.8019C0.543711 13.737 0.600517 13.6829 0.665437 13.6396C0.735768 13.5963 0.814214 13.5747 0.900775 13.5747C1.01439 13.5747 1.14423 13.6342 1.2903 13.7532C1.44178 13.8723 1.62572 14.0048 1.84213 14.1509C2.06394 14.2915 2.32633 14.4214 2.62929 14.5404C2.93766 14.6594 3.31096 14.7189 3.74917 14.7189C4.10624 14.7189 4.42543 14.6729 4.70675 14.581C4.98808 14.4836 5.22341 14.3483 5.41277 14.1752C5.60753 13.9967 5.7563 13.783 5.8591 13.5341C5.96189 13.2853 6.01328 13.0094 6.01328 12.7064C6.01328 12.3656 5.93484 12.0869 5.77794 11.8705C5.62105 11.6541 5.41277 11.4729 5.15308 11.3268C4.8934 11.1808 4.59855 11.0563 4.26854 10.9535C3.93852 10.8507 3.60039 10.7452 3.25415 10.637C2.90791 10.5234 2.56978 10.3936 2.23976 10.2475C1.90975 10.1014 1.6149 9.9121 1.35522 9.67946C1.09554 9.44142 0.88725 9.14657 0.730358 8.79492C0.573466 8.43785 0.495021 7.99964 0.495021 7.48027C0.495021 7.0637 0.576171 6.66065 0.738473 6.27113C0.900775 5.8816 1.13611 5.53806 1.44449 5.24051C1.75827 4.93755 2.14238 4.6968 2.59683 4.51827C3.05127 4.33432 3.57064 4.24235 4.15493 4.24235C4.80954 4.24235 5.41006 4.34785 5.95648 4.55884C6.5083 4.76442 6.98709 5.06198 7.39285 5.4515L6.97086 6.27113Z" fill="white"/>
<path d="M13.765 12.3656C13.1212 12.3872 12.5748 12.4386 12.1257 12.5197C11.6767 12.5955 11.3115 12.6983 11.0302 12.8281C10.7489 12.958 10.546 13.1121 10.4216 13.2907C10.2971 13.4638 10.2349 13.6586 10.2349 13.875C10.2349 14.0805 10.2674 14.2591 10.3323 14.4106C10.4026 14.5566 10.4946 14.6784 10.6082 14.7757C10.7272 14.8677 10.8652 14.9353 11.0221 14.9786C11.179 15.0219 11.3494 15.0435 11.5333 15.0435C11.7768 15.0435 11.9986 15.0192 12.1988 14.9705C12.4043 14.9218 12.5964 14.8542 12.7749 14.7676C12.9535 14.6757 13.1239 14.5647 13.2862 14.4349C13.4485 14.3051 13.6081 14.1563 13.765 13.9886V12.3656ZM9.12314 8.93287C9.58299 8.49466 10.0807 8.16735 10.6163 7.95095C11.1573 7.73455 11.7497 7.62634 12.3935 7.62634C12.8642 7.62634 13.2808 7.70479 13.6432 7.86168C14.0057 8.01316 14.3114 8.22686 14.5602 8.50277C14.8091 8.77869 14.9958 9.1087 15.1202 9.49282C15.25 9.87693 15.3149 10.3016 15.3149 10.7669V16.0255H14.6089C14.452 16.0255 14.333 16.0011 14.2519 15.9524C14.1707 15.8983 14.1058 15.8009 14.0571 15.6603L13.8867 14.938C13.6757 15.1328 13.4674 15.3059 13.2618 15.4574C13.0562 15.6035 12.8398 15.7306 12.6126 15.8388C12.3908 15.9416 12.1528 16.0201 11.8985 16.0742C11.6442 16.1283 11.3629 16.1553 11.0545 16.1553C10.7299 16.1553 10.4243 16.112 10.1375 16.0255C9.8562 15.9335 9.61004 15.7955 9.39905 15.6116C9.18806 15.4277 9.02034 15.1977 8.89591 14.9218C8.77689 14.6459 8.71738 14.324 8.71738 13.9561C8.71738 13.6315 8.80394 13.3204 8.97707 13.0229C9.1556 12.7199 9.44233 12.4494 9.83727 12.2114C10.2376 11.9733 10.757 11.7786 11.3954 11.6271C12.0392 11.4756 12.829 11.389 13.765 11.3674V10.7669C13.765 10.1447 13.6324 9.67946 13.3673 9.37109C13.1022 9.06272 12.7127 8.90853 12.1988 8.90853C11.8525 8.90853 11.5604 8.95181 11.3223 9.03837C11.0897 9.12493 10.8868 9.22231 10.7137 9.33051C10.546 9.4333 10.3972 9.52798 10.2674 9.61454C10.1429 9.7011 10.0131 9.74438 9.87784 9.74438C9.76964 9.74438 9.67496 9.71463 9.59381 9.65512C9.51807 9.59561 9.45586 9.52528 9.40716 9.44413L9.12314 8.93287Z" fill="white"/>
<path d="M17.8503 16.0255V9.07895L16.9901 8.97345C16.8657 8.9464 16.7629 8.90312 16.6817 8.84361C16.606 8.77869 16.5681 8.68672 16.5681 8.5677V7.91037H17.8503V7.16379C17.8503 6.69311 17.9179 6.27383 18.0532 5.90595C18.1884 5.53806 18.3805 5.22698 18.6293 4.97271C18.8836 4.71303 19.1866 4.51827 19.5382 4.38842C19.8953 4.25317 20.2956 4.18555 20.7393 4.18555C21.1125 4.18555 21.4561 4.23965 21.7699 4.34785L21.7374 5.14313C21.732 5.21346 21.7104 5.26756 21.6725 5.30543C21.6346 5.33789 21.5832 5.36224 21.5183 5.37847C21.4588 5.3947 21.3831 5.40552 21.2911 5.41093C21.2045 5.41093 21.1098 5.41093 21.0071 5.41093C20.7636 5.41093 20.5418 5.44068 20.3416 5.50019C20.1414 5.5597 19.971 5.65979 19.8304 5.80045C19.6897 5.94111 19.5815 6.12776 19.5058 6.36039C19.43 6.58761 19.3921 6.87164 19.3921 7.21248V7.91037H21.7049V9.06272H19.4408V16.0255H17.8503Z" fill="white"/>
<path d="M28.2362 10.986C28.2362 10.6722 28.1902 10.3828 28.0982 10.1177C28.0117 9.85258 27.8818 9.62266 27.7087 9.4279C27.5356 9.23313 27.3246 9.08165 27.0757 8.97345C26.8269 8.86525 26.5401 8.81115 26.2155 8.81115C25.5501 8.81115 25.0253 9.00321 24.6412 9.38732C24.2625 9.77143 24.0218 10.3043 23.919 10.986H28.2362ZM29.5427 14.8488C29.348 15.076 29.1235 15.2735 28.8692 15.4412C28.6149 15.6035 28.3444 15.736 28.0577 15.8388C27.7709 15.9416 27.4734 16.0173 27.165 16.066C26.862 16.1147 26.5618 16.1391 26.2642 16.1391C25.6962 16.1391 25.1687 16.0444 24.6818 15.855C24.2003 15.6603 23.781 15.379 23.424 15.0111C23.0723 14.6378 22.7964 14.1779 22.5962 13.6315C22.4015 13.0797 22.3041 12.4467 22.3041 11.7326C22.3041 11.1591 22.3933 10.6262 22.5719 10.1339C22.7504 9.63618 23.0047 9.20338 23.3347 8.83549C23.6701 8.46761 24.0786 8.17817 24.5601 7.96718C25.0416 7.75619 25.5826 7.65069 26.1831 7.65069C26.6862 7.65069 27.1488 7.73455 27.5708 7.90226C27.9982 8.06456 28.366 8.3026 28.6744 8.61639C28.9828 8.93017 29.2235 9.31699 29.3967 9.77684C29.5752 10.2367 29.6645 10.7615 29.6645 11.3512C29.6645 11.5946 29.6374 11.7596 29.5833 11.8462C29.5292 11.9273 29.4291 11.9679 29.283 11.9679H23.8784C23.8946 12.4602 23.965 12.8903 24.0894 13.2582C24.2138 13.6207 24.3842 13.9237 24.6006 14.1671C24.8225 14.4106 25.0848 14.5918 25.3878 14.7108C25.6908 14.8298 26.0289 14.8894 26.4022 14.8894C26.7538 14.8894 27.0568 14.8488 27.3111 14.7676C27.5708 14.6865 27.7926 14.5999 27.9765 14.5079C28.1659 14.4106 28.3228 14.3213 28.4472 14.2401C28.577 14.159 28.6906 14.1184 28.788 14.1184C28.9179 14.1184 29.018 14.1671 29.0883 14.2645L29.5427 14.8488Z" fill="white"/>
<path d="M36.2336 5.32857L36.2336 5.32859L36.2361 5.32869C36.5291 5.33982 36.7794 5.40252 36.9908 5.51263C37.2039 5.62359 37.3834 5.77916 37.53 5.98133C37.6776 6.18481 37.791 6.42929 37.8682 6.71733C37.9497 7.02163 37.978 7.30664 37.9557 7.57339C37.9322 7.83194 37.8545 8.06736 37.7227 8.28167C37.5953 8.48844 37.4111 8.67569 37.1654 8.84196C36.9198 9.00205 36.6111 9.13361 36.2362 9.23408L34.8056 9.61742L33.7931 5.83898L35.2238 5.45563C35.6047 5.35357 35.9407 5.3126 36.2336 5.32857ZM40.4016 7.71793L40.4016 7.71734C40.4637 7.18767 40.4179 6.63973 40.2665 6.07469C40.1207 5.53062 39.894 5.0509 39.585 4.63767C39.2793 4.22049 38.8921 3.89508 38.4252 3.66249C37.9571 3.42936 37.4123 3.29988 36.7943 3.26982C36.1733 3.23963 35.4777 3.32952 34.7093 3.53543L31.0251 4.52259L30.8803 4.56141L30.9191 4.7063L33.9562 16.0409L33.995 16.1858L34.1399 16.1469L36.2485 15.582L36.3933 15.5431L36.3545 15.3982L35.3243 11.5533L36.7549 11.17C37.5032 10.9695 38.1371 10.7001 38.6534 10.3593C39.1724 10.0187 39.5797 9.62544 39.8704 9.17792C40.1604 8.73158 40.3377 8.24438 40.4016 7.71793Z" fill="white" stroke="white" stroke-width="0.3"/>
<path d="M46.0252 12.6892C45.5021 12.7117 45.0718 12.7567 44.7343 12.8242C44.3968 12.8917 44.1296 12.9761 43.9327 13.0773C43.7359 13.1786 43.598 13.2939 43.5193 13.4233C43.4462 13.5526 43.4096 13.6933 43.4096 13.8451C43.4096 14.1433 43.4912 14.3542 43.6543 14.4779C43.8174 14.5961 44.0565 14.6551 44.3715 14.6551C44.709 14.6551 45.0043 14.5961 45.2574 14.4779C45.5105 14.3598 45.7665 14.1686 46.0252 13.9042V12.6892ZM41.3171 8.71514C41.8459 8.24826 42.4309 7.90232 43.0721 7.67732C43.719 7.4467 44.4109 7.33139 45.1477 7.33139C45.6765 7.33139 46.1518 7.41857 46.5737 7.59295C47.0012 7.7617 47.3612 8.00076 47.6537 8.31014C47.9518 8.61389 48.1796 8.9767 48.3371 9.39857C48.4946 9.82045 48.5734 10.2817 48.5734 10.7823V16.2498H47.3752C47.1277 16.2498 46.9393 16.2161 46.8099 16.1486C46.6862 16.0811 46.5821 15.9404 46.4977 15.7267L46.3121 15.2458C46.0927 15.4314 45.8818 15.5945 45.6793 15.7351C45.4768 15.8758 45.2659 15.9967 45.0465 16.0979C44.8327 16.1936 44.6021 16.2639 44.3546 16.3089C44.1127 16.3595 43.8427 16.3848 43.5446 16.3848C43.1452 16.3848 42.7824 16.3342 42.4562 16.233C42.1299 16.1261 41.8515 15.9714 41.6209 15.7689C41.3959 15.5664 41.2215 15.3161 41.0977 15.018C40.974 14.7142 40.9121 14.3654 40.9121 13.9717C40.9121 13.6567 40.9909 13.3389 41.1484 13.0183C41.3059 12.692 41.5787 12.3967 41.9668 12.1323C42.3549 11.8623 42.878 11.6373 43.5362 11.4573C44.1943 11.2773 45.024 11.1761 46.0252 11.1536V10.7823C46.0252 10.2704 45.9184 9.90201 45.7046 9.67701C45.4965 9.44639 45.1984 9.33107 44.8102 9.33107C44.5009 9.33107 44.2477 9.36482 44.0509 9.43232C43.854 9.49982 43.6768 9.57576 43.5193 9.66014C43.3674 9.74451 43.2184 9.82045 43.0721 9.88795C42.9259 9.95545 42.7515 9.9892 42.549 9.9892C42.369 9.9892 42.2171 9.9442 42.0934 9.8542C41.9696 9.7642 41.8684 9.65732 41.7896 9.53357L41.3171 8.71514Z" fill="white"/>
<path d="M57.7698 7.50014L53.0955 18.5195C53.0167 18.6939 52.9211 18.8204 52.8086 18.8992C52.6961 18.9836 52.5161 19.0258 52.2686 19.0258H50.3111L51.9986 15.482L48.5055 7.50014H50.8173C51.0198 7.50014 51.1745 7.54514 51.2814 7.63514C51.3939 7.72514 51.4755 7.83201 51.5261 7.95576L52.9605 11.7273C53.0955 12.0704 53.2052 12.422 53.2895 12.782C53.3514 12.602 53.4133 12.422 53.4752 12.242C53.537 12.062 53.6017 11.8848 53.6692 11.7104L54.9686 7.95576C55.0192 7.82639 55.1092 7.71951 55.2386 7.63514C55.368 7.54514 55.5086 7.50014 55.6605 7.50014H57.7698Z" fill="white"/>
<path d="M58.0329 16.2498V7.50014H59.6529C59.9791 7.50014 60.1929 7.64639 60.2941 7.93889L60.4375 8.41139C60.5838 8.25951 60.7357 8.1217 60.8932 7.99795C61.0507 7.86857 61.2194 7.75889 61.3994 7.66889C61.585 7.57326 61.7819 7.50014 61.99 7.44951C62.2038 7.39326 62.4372 7.36514 62.6904 7.36514C63.2191 7.36514 63.655 7.50295 63.9982 7.77857C64.3469 8.04857 64.6113 8.41139 64.7913 8.86701C64.9375 8.59701 65.1147 8.36639 65.3229 8.17514C65.5366 7.98389 65.7644 7.8292 66.0063 7.71107C66.2538 7.59295 66.5125 7.50576 66.7825 7.44951C67.0582 7.39326 67.331 7.36514 67.601 7.36514C68.1016 7.36514 68.546 7.44107 68.9341 7.59295C69.3222 7.7392 69.6457 7.95576 69.9044 8.24264C70.1688 8.52389 70.3685 8.87264 70.5035 9.28889C70.6385 9.69951 70.706 10.1664 70.706 10.6895V16.2498H68.0904V10.6895C68.0904 9.78389 67.7022 9.33107 66.926 9.33107C66.5716 9.33107 66.2763 9.4492 66.04 9.68545C65.8094 9.91607 65.6941 10.2508 65.6941 10.6895V16.2498H63.0785V10.6895C63.0785 10.1889 62.98 9.83732 62.7832 9.63482C62.5863 9.43232 62.2966 9.33107 61.9141 9.33107C61.6779 9.33107 61.4529 9.38451 61.2391 9.49139C61.031 9.59826 60.8341 9.7417 60.6485 9.9217V16.2498H58.0329Z" fill="white"/>
<path d="M77.3224 10.8245C77.3224 10.6164 77.2943 10.4139 77.2381 10.217C77.1874 10.0201 77.1002 9.84576 76.9765 9.69389C76.8584 9.53639 76.7009 9.40982 76.504 9.3142C76.3071 9.21857 76.0681 9.17076 75.7868 9.17076C75.2918 9.17076 74.9037 9.3142 74.6224 9.60107C74.3412 9.88232 74.1556 10.2901 74.0656 10.8245H77.3224ZM74.0318 12.3433C74.1162 13.0745 74.3384 13.6061 74.6984 13.9379C75.0584 14.2642 75.5224 14.4273 76.0906 14.4273C76.3943 14.4273 76.6559 14.3908 76.8752 14.3176C77.0946 14.2445 77.2887 14.1629 77.4574 14.0729C77.6318 13.983 77.7893 13.9014 77.9299 13.8283C78.0762 13.7551 78.2281 13.7186 78.3856 13.7186C78.5937 13.7186 78.7512 13.7945 78.8581 13.9464L79.6174 14.8829C79.3474 15.1923 79.0549 15.4454 78.7399 15.6423C78.4306 15.8336 78.1099 15.9854 77.7781 16.0979C77.4518 16.2048 77.1227 16.278 76.7909 16.3173C76.4646 16.3623 76.1524 16.3848 75.8543 16.3848C75.2412 16.3848 74.6646 16.2864 74.1246 16.0895C73.5902 15.887 73.1206 15.5889 72.7156 15.1951C72.3162 14.8014 71.9984 14.312 71.7621 13.727C71.5315 13.142 71.4162 12.4614 71.4162 11.6851C71.4162 11.1001 71.5146 10.5461 71.7115 10.0229C71.914 9.49982 72.2009 9.04139 72.5721 8.64764C72.949 8.25389 73.4018 7.9417 73.9305 7.71107C74.4649 7.48045 75.0668 7.36514 75.7362 7.36514C76.3156 7.36514 76.8443 7.45514 77.3224 7.63514C77.8062 7.81514 78.2196 8.0767 78.5627 8.41982C78.9115 8.76295 79.1815 9.18482 79.3727 9.68545C79.5696 10.1804 79.6681 10.7429 79.6681 11.3729C79.6681 11.5698 79.6596 11.7301 79.6427 11.8539C79.6259 11.9776 79.5949 12.0761 79.5499 12.1492C79.5049 12.2223 79.4431 12.2729 79.3643 12.3011C79.2912 12.3292 79.1955 12.3433 79.0774 12.3433H74.0318Z" fill="white"/>
<path d="M82.8838 8.44514C83.0525 8.28764 83.2269 8.14139 83.4069 8.00639C83.5869 7.87139 83.7782 7.75889 83.9807 7.66889C84.1888 7.57326 84.411 7.50014 84.6472 7.44951C84.8891 7.39326 85.1507 7.36514 85.4319 7.36514C85.91 7.36514 86.3319 7.44951 86.6975 7.61826C87.0688 7.78139 87.381 8.01201 87.6341 8.31014C87.8872 8.60264 88.0785 8.9542 88.2079 9.36482C88.3372 9.76982 88.4019 10.2114 88.4019 10.6895V16.2498H85.7863V10.6895C85.7863 10.262 85.6879 9.93014 85.491 9.69389C85.2941 9.45201 85.0044 9.33107 84.6219 9.33107C84.335 9.33107 84.065 9.39295 83.8119 9.5167C83.5644 9.63482 83.3225 9.79795 83.0863 10.0061V16.2498H80.4707V7.50014H82.0907C82.4169 7.50014 82.6307 7.64639 82.7319 7.93889L82.8838 8.44514Z" fill="white"/>
<path d="M92.6034 16.3848C92.1871 16.3848 91.8187 16.3258 91.4981 16.2076C91.1831 16.0839 90.9159 15.9123 90.6965 15.6929C90.4828 15.4679 90.3196 15.1979 90.2071 14.8829C90.0947 14.5679 90.0384 14.2164 90.0384 13.8283V9.30576H89.2959C89.1609 9.30576 89.0456 9.26357 88.95 9.1792C88.8543 9.0892 88.8065 8.95982 88.8065 8.79107V7.77014L90.1987 7.50014L90.7134 5.36545C90.7809 5.09545 90.9721 4.96045 91.2871 4.96045H92.654V7.51701H94.8225V9.30576H92.654V13.6511C92.654 13.8536 92.7018 14.0223 92.7975 14.1573C92.8987 14.2867 93.0421 14.3514 93.2278 14.3514C93.3234 14.3514 93.4021 14.3429 93.464 14.3261C93.5315 14.3036 93.5878 14.2811 93.6328 14.2586C93.6834 14.2304 93.7284 14.2079 93.7678 14.1911C93.8128 14.1686 93.8634 14.1573 93.9196 14.1573C93.9984 14.1573 94.0603 14.177 94.1053 14.2164C94.1559 14.2501 94.2065 14.3064 94.2571 14.3851L95.0503 15.6255C94.7128 15.8786 94.3331 16.0698 93.9112 16.1992C93.4893 16.3229 93.0534 16.3848 92.6034 16.3848Z" fill="white"/>
<path d="M101.004 9.41545C100.936 9.52232 100.863 9.59826 100.784 9.64326C100.711 9.68826 100.615 9.71076 100.497 9.71076C100.374 9.71076 100.25 9.68545 100.126 9.63482C100.002 9.57857 99.8673 9.51951 99.7211 9.45764C99.5805 9.39576 99.4202 9.33951 99.2402 9.28889C99.0602 9.23264 98.8548 9.20451 98.6242 9.20451C98.2923 9.20451 98.0364 9.2692 97.8564 9.39857C97.682 9.52232 97.5948 9.6967 97.5948 9.9217C97.5948 10.0848 97.6511 10.2198 97.7636 10.3267C97.8817 10.4336 98.0364 10.5292 98.2276 10.6136C98.4189 10.6923 98.6355 10.7683 98.8773 10.8414C99.1192 10.9145 99.3667 10.9961 99.6198 11.0861C99.873 11.1761 100.12 11.2829 100.362 11.4067C100.604 11.5248 100.821 11.6739 101.012 11.8539C101.203 12.0283 101.355 12.242 101.468 12.4951C101.586 12.7483 101.645 13.052 101.645 13.4064C101.645 13.8395 101.566 14.2389 101.409 14.6045C101.251 14.9701 101.015 15.2851 100.7 15.5495C100.39 15.8139 100.005 16.0192 99.5439 16.1655C99.0883 16.3117 98.5623 16.3848 97.9661 16.3848C97.668 16.3848 97.3698 16.3567 97.0717 16.3004C96.7736 16.2442 96.4839 16.1683 96.2027 16.0726C95.927 15.977 95.6711 15.8645 95.4348 15.7351C95.1986 15.6001 94.9961 15.4567 94.8273 15.3048L95.4348 14.3429C95.5023 14.2304 95.5867 14.1433 95.688 14.0814C95.7948 14.0139 95.9298 13.9801 96.093 13.9801C96.2448 13.9801 96.3798 14.0139 96.498 14.0814C96.6217 14.1489 96.7539 14.222 96.8945 14.3008C97.0352 14.3795 97.1983 14.4526 97.3839 14.5201C97.5751 14.5876 97.8142 14.6214 98.1011 14.6214C98.3036 14.6214 98.4752 14.6017 98.6158 14.5623C98.7564 14.5173 98.8689 14.4583 98.9533 14.3851C99.0377 14.312 99.0995 14.2304 99.1389 14.1404C99.1783 14.0504 99.198 13.9576 99.198 13.862C99.198 13.6876 99.1389 13.5442 99.0208 13.4317C98.9027 13.3192 98.748 13.2236 98.5567 13.1448C98.3655 13.0604 98.1461 12.9845 97.8986 12.917C97.6567 12.8439 97.4092 12.7623 97.1561 12.6723C96.903 12.5823 96.6526 12.4754 96.4052 12.3517C96.1633 12.2223 95.9467 12.062 95.7555 11.8708C95.5642 11.6739 95.4095 11.4348 95.2914 11.1536C95.1733 10.8723 95.1142 10.532 95.1142 10.1326C95.1142 9.76139 95.1845 9.40982 95.3251 9.07795C95.4714 8.74045 95.688 8.44514 95.9748 8.19201C96.2617 7.93889 96.6217 7.7392 97.0548 7.59295C97.488 7.44107 97.9942 7.36514 98.5736 7.36514C98.8886 7.36514 99.1923 7.39326 99.4848 7.44951C99.783 7.50576 100.061 7.58451 100.32 7.68576C100.579 7.78701 100.815 7.90795 101.029 8.04857C101.243 8.18357 101.431 8.33264 101.594 8.49576L101.004 9.41545Z" fill="white"/>
<path d="M36.1519 9.39C36.8691 9.19783 37.3394 8.88837 37.5628 8.46163C37.7862 8.03489 37.8157 7.51454 37.6511 6.90057C37.5784 6.6289 37.4714 6.39261 37.3302 6.19168C37.189 5.99075 37.0131 5.83407 36.8024 5.72163C36.5957 5.60231 36.3531 5.53339 36.0744 5.51488C35.8012 5.49492 35.4907 5.53152 35.143 5.6247L33.7086 6.00905L34.7175 9.77435L36.1519 9.39ZM34.5905 3.56275C35.4272 3.33855 36.1713 3.24689 36.8229 3.28778C37.4784 3.32178 38.0456 3.46096 38.5245 3.70533C39.0089 3.94824 39.4068 4.2813 39.7182 4.7045C40.0296 5.1277 40.2588 5.61368 40.4058 6.16245C40.5645 6.75468 40.615 7.3235 40.5574 7.86888C40.4997 8.41427 40.3225 8.91596 40.026 9.37395C39.7294 9.83194 39.3065 10.2422 38.7573 10.6049C38.212 10.9606 37.5292 11.2484 36.7087 11.4682L35.2743 11.8526L36.3378 15.8216L33.5831 16.5598L30.4014 4.68522L34.5905 3.56275Z" fill="white"/>
</svg>
