<svg width="33" height="32" viewBox="0 0 33 32" fill="none" xmlns="http://www.w3.org/2000/svg">
<path d="M8.99311 32.0001C8.68411 32.0001 8.40041 31.8961 8.19441 31.6881C7.96221 31.4801 7.83301 31.1945 7.83301 30.856C7.83301 30.5431 7.93691 30.2567 8.14291 30.0231L12.4707 25.4451C12.7038 25.2106 12.9866 25.0811 13.3218 25.0811C13.6308 25.0811 13.9145 25.1851 14.1205 25.3931C14.3527 25.6011 14.4819 25.9131 14.4819 26.2251C14.4819 26.5371 14.378 26.8245 14.172 27.0581L9.8433 31.6361C9.6111 31.8705 9.32831 32.0001 8.99311 32.0001Z" fill="#DAE6F2"/>
<path d="M1.82619 25.1353C1.51719 25.1353 1.23349 25.0057 1.00129 24.7977C0.769992 24.5897 0.666992 24.2777 0.666992 23.9648C0.666992 23.6527 0.79529 23.3663 1.00129 23.1327L5.07248 18.9963C5.27848 18.7627 5.58748 18.6587 5.89738 18.6587C6.20638 18.6587 6.48917 18.7883 6.72137 18.9963C6.95358 19.2043 7.05567 19.5163 7.05567 19.8292C7.05567 20.1412 6.92737 20.4268 6.72137 20.6613L2.65018 24.7986C2.44418 25.0066 2.13519 25.1353 1.82619 25.1353Z" fill="#1565C0"/>
<path d="M2.2329 31.9344C1.92209 31.9344 1.63749 31.804 1.40439 31.5951C1.17128 31.3862 1.06738 31.0733 1.06738 30.7604C1.06738 30.4475 1.17128 30.161 1.40439 29.9257L9.58834 21.5523C9.82144 21.3179 10.106 21.2139 10.4169 21.2139C10.7277 21.2139 11.0132 21.3443 11.2454 21.5523C11.7116 21.9957 11.7116 22.7519 11.2716 23.2217L3.08761 31.5951C2.85959 31.8135 2.55248 31.9355 2.2329 31.9344Z" fill="#004695"/>
<path d="M7.1791 14.8495C9.82006 12.5278 17.9778 5.98075 26.8864 5.06761C26.9457 5.06209 27.0056 5.07012 27.0614 5.09107C27.117 5.11201 27.1669 5.1453 27.2071 5.1883C27.2474 5.2313 27.2768 5.28283 27.2931 5.33883C27.3094 5.39483 27.3121 5.45375 27.3011 5.51096C26.9903 7.70214 25.2546 16.5709 17.564 24.4744C17.4803 24.5605 17.3756 24.6243 17.2597 24.66C17.1438 24.6957 17.0204 24.7021 16.9014 24.6786C16.7822 24.655 16.6712 24.6023 16.5786 24.5255C16.4861 24.4486 16.4151 24.3501 16.3723 24.2391L14.6104 20.1705L12.4104 20.7434C12.3091 20.7676 12.2031 20.765 12.1031 20.736C12.0032 20.707 11.913 20.6525 11.8418 20.5782C11.7706 20.5039 11.721 20.4124 11.698 20.3132C11.675 20.214 11.6796 20.1106 11.7111 20.0136L12.3065 17.9529L7.38601 16.0755C6.8936 15.8922 6.7644 15.2144 7.1782 14.8495H7.1791Z" fill="url(#paint0_linear_17892_128392)"/>
<path d="M31.7816 22.5443L22.9769 22.7011C22.6661 22.7011 22.3806 22.8572 22.1999 23.1445C21.319 24.5785 18.3672 29.2738 16.0615 31.3345C15.5185 31.8308 14.6891 31.7003 14.3006 31.0736C14.2379 30.9708 14.1776 30.8664 14.1199 30.7607C13.576 29.5356 13.1622 28.804 12.4366 27.5524C11.815 26.4833 10.5718 24.9699 9.8463 24.0576C8.96629 22.9876 7.10146 21.3182 6.14284 20.6404C4.35661 19.3359 2.69868 18.5797 1.50786 18.1628C0.653144 17.849 0.42004 16.7278 1.09315 16.1021C3.03569 14.2493 6.35064 11.1979 8.42238 10.1543C8.73319 9.9983 8.91389 9.65896 8.91389 9.31962L8.75848 0.946243C8.75848 0.268441 9.43249 -0.20135 10.0541 0.0859891C11.918 0.89424 15.4146 2.61563 17.4086 4.85969C17.6417 5.12059 18.0049 5.2246 18.341 5.12059C19.8427 4.67636 24.1162 3.47676 28.2597 3.24231C28.8289 3.21587 29.2951 3.68566 29.2174 4.25946C29.0105 6.24262 28.4675 10.5192 27.5342 13.3371C27.4312 13.6235 27.4827 13.9364 27.6896 14.1973C28.5958 15.3449 31.2639 18.8406 32.5324 21.1878C32.8956 21.788 32.4809 22.5451 31.7825 22.5451L31.7816 22.5443Z" fill="#004695"/>
<path d="M13.5505 20.4579L12.4103 20.7443C12.3089 20.7686 12.2028 20.766 12.1027 20.7369C12.0027 20.7078 11.9124 20.6533 11.8412 20.5789C11.77 20.5044 11.7204 20.4128 11.6974 20.3135C11.6746 20.2141 11.6793 20.1107 11.711 20.0136L12.3073 17.9538L7.38682 16.0755C6.86821 15.8666 6.73901 15.1888 7.15372 14.8239C9.79375 12.5014 17.9524 5.95429 26.8609 5.04116C26.9203 5.03579 26.9801 5.04392 27.0356 5.06494C27.0912 5.08595 27.1409 5.11926 27.1811 5.16224C27.2212 5.20521 27.2505 5.2567 27.2668 5.31262C27.2831 5.36854 27.2858 5.42738 27.2748 5.4845C26.9639 7.67568 25.2292 16.5435 17.5377 24.4471C17.4541 24.5331 17.3494 24.597 17.2336 24.6328C17.1177 24.6685 16.9944 24.675 16.8753 24.6516C16.7562 24.6282 16.6451 24.5755 16.5526 24.4988C16.46 24.422 16.3889 24.3235 16.346 24.2127L14.585 20.1432L13.5496 20.457L13.5505 20.4579Z" fill="white"/>
<path d="M20.3343 14.301C21.7935 14.301 22.9762 13.1103 22.9762 11.641C22.9762 10.1708 21.7935 8.97998 20.3343 8.97998C18.876 8.97998 17.6934 10.1708 17.6934 11.641C17.6934 13.1103 18.876 14.301 20.3343 14.301Z" fill="#004695"/>
<defs>
<linearGradient id="paint0_linear_17892_128392" x1="6.31355" y1="27.1116" x2="54.8435" y2="-30.969" gradientUnits="userSpaceOnUse">
<stop offset="0.102" stop-color="white" stop-opacity="0.7"/>
<stop offset="0.481" stop-color="white" stop-opacity="0"/>
</linearGradient>
</defs>
</svg>
