<svg width="24" height="24" viewBox="0 0 24 24" fill="none" xmlns="http://www.w3.org/2000/svg">
<path fill-rule="evenodd" clip-rule="evenodd" d="M4.5 4.5L12.5 1.5L20.5 4.5V10.59C20.5 15.64 17.09 20.35 12.5 21.5C7.91 20.35 4.5 15.64 4.5 10.59V4.5ZM12.5 19.42C15.95 18.29 18.5 14.59 18.5 10.59V5.89L12.5 3.64L6.5 5.89V10.59C6.5 14.6 9.05 18.29 12.5 19.42ZM10.55 9.59375C10.55 10.1875 11.0062 10.5687 12.425 10.9375C13.8438 11.3062 15.3625 11.9125 15.3625 13.6875C15.3625 14.9688 14.3938 15.675 13.175 15.9062V17.25H11.3V15.8938C10.1 15.6375 9.075 14.8687 9 13.5H10.375C10.4438 14.2375 10.95 14.8125 12.2375 14.8125C13.6187 14.8125 13.925 14.125 13.925 13.6938C13.925 13.1125 13.6125 12.5625 12.05 12.1875C10.3062 11.7688 9.1125 11.05 9.1125 9.60625C9.1125 8.4 10.0875 7.6125 11.3 7.35V6H13.175V7.36875C14.4812 7.6875 15.1375 8.675 15.1812 9.75H13.8C13.7625 8.96875 13.35 8.4375 12.2375 8.4375C11.1812 8.4375 10.55 8.9125 10.55 9.59375Z" fill="white"/>
</svg>
