<svg width="25" height="24" viewBox="0 0 25 24" fill="none" xmlns="http://www.w3.org/2000/svg">
<path d="M12.2 17C12.5 17 12.7958 16.9625 13.0875 16.8875C13.3792 16.8125 13.65 16.7 13.9 16.55L16.35 19L17.75 17.6L15.3 15.15C15.45 14.9 15.5625 14.6292 15.6375 14.3375C15.7125 14.0458 15.75 13.75 15.75 13.45C15.75 12.4833 15.4083 11.6667 14.725 11C14.0417 10.3333 13.2167 10 12.25 10C11.2833 10 10.4583 10.3417 9.775 11.025C9.09167 11.7083 8.75 12.5333 8.75 13.5C8.75 14.4667 9.08333 15.2917 9.75 15.975C10.4167 16.6583 11.2333 17 12.2 17ZM12.25 15C11.8333 15 11.4792 14.8542 11.1875 14.5625C10.8958 14.2708 10.75 13.9167 10.75 13.5C10.75 13.0833 10.8958 12.7292 11.1875 12.4375C11.4792 12.1458 11.8333 12 12.25 12C12.6667 12 13.0208 12.1458 13.3125 12.4375C13.6042 12.7292 13.75 13.0833 13.75 13.5C13.75 13.9167 13.6042 14.2708 13.3125 14.5625C13.0208 14.8542 12.6667 15 12.25 15ZM6.75 22C6.2 22 5.72917 21.8042 5.3375 21.4125C4.94583 21.0208 4.75 20.55 4.75 20V4C4.75 3.45 4.94583 2.97917 5.3375 2.5875C5.72917 2.19583 6.2 2 6.75 2H14.75L20.75 8V20C20.75 20.55 20.5542 21.0208 20.1625 21.4125C19.7708 21.8042 19.3 22 18.75 22H6.75ZM13.75 9V4H6.75V20H18.75V9H13.75Z" fill="white"/>
</svg>
