<svg width="456" height="150" viewBox="0 0 456 150" fill="none" xmlns="http://www.w3.org/2000/svg">
<g clip-path="url(#clip0_20713_18274)">
<rect x="90.7451" width="229.19" height="37.2288" rx="18.6144" fill="#0080D1"/>
<path d="M127.015 21.1081L131.29 16.8331L130.502 16.0643L127.071 19.4956L125.177 17.6018L124.352 18.4268L127.015 21.1081ZM127.84 26.0956C126.09 25.6581 124.652 24.6425 123.527 23.0487C122.402 21.455 121.84 19.7081 121.84 17.8081V13.3456L127.84 11.0956L133.84 13.3456V17.8081C133.84 19.7081 133.277 21.455 132.152 23.0487C131.027 24.6425 129.59 25.6581 127.84 26.0956ZM127.84 24.9331C129.277 24.4581 130.449 23.5612 131.355 22.2425C132.262 20.9237 132.715 19.4456 132.715 17.8081V14.1331L127.84 12.2956L122.965 14.1331V17.8081C122.965 19.4456 123.418 20.9237 124.324 22.2425C125.23 23.5612 126.402 24.4581 127.84 24.9331Z" fill="white" stroke="white" stroke-width="0.2"/>
<path d="M143.479 14.6894V18.1964H147.602V19.3024H143.479V23.6144H142.121V13.5834H148.302V14.6894H143.479ZM155.054 16.5234V23.6144H154.312C154.135 23.6144 154.023 23.528 153.976 23.3554L153.878 22.5924C153.57 22.933 153.225 23.2084 152.842 23.4184C152.46 23.6237 152.021 23.7264 151.526 23.7264C151.139 23.7264 150.796 23.6634 150.497 23.5374C150.203 23.4067 149.956 23.2247 149.755 22.9914C149.555 22.758 149.403 22.4757 149.3 22.1444C149.202 21.813 149.153 21.4467 149.153 21.0454V16.5234H150.399V21.0454C150.399 21.582 150.521 21.9974 150.763 22.2914C151.011 22.5854 151.386 22.7324 151.89 22.7324C152.259 22.7324 152.602 22.646 152.919 22.4734C153.241 22.296 153.538 22.0534 153.808 21.7454V16.5234H155.054ZM158.206 17.5524C158.36 17.3797 158.523 17.2234 158.696 17.0834C158.869 16.9434 159.051 16.8244 159.242 16.7264C159.438 16.6237 159.643 16.5467 159.858 16.4954C160.077 16.4394 160.313 16.4114 160.565 16.4114C160.952 16.4114 161.293 16.4767 161.587 16.6074C161.886 16.7334 162.133 16.9154 162.329 17.1534C162.53 17.3867 162.681 17.669 162.784 18.0004C162.887 18.3317 162.938 18.698 162.938 19.0994V23.6144H161.685V19.0994C161.685 18.5627 161.561 18.1474 161.314 17.8534C161.071 17.5547 160.7 17.4054 160.201 17.4054C159.832 17.4054 159.487 17.494 159.165 17.6714C158.848 17.8487 158.554 18.089 158.283 18.3924V23.6144H157.03V16.5234H157.779C157.956 16.5234 158.066 16.6097 158.108 16.7824L158.206 17.5524ZM169.457 18.2104C169.223 17.8977 168.971 17.6807 168.701 17.5594C168.43 17.4334 168.127 17.3704 167.791 17.3704C167.133 17.3704 166.626 17.606 166.272 18.0774C165.917 18.5487 165.74 19.2207 165.74 20.0934C165.74 20.5554 165.779 20.952 165.859 21.2834C165.938 21.61 166.055 21.8807 166.209 22.0954C166.363 22.3054 166.552 22.4594 166.776 22.5574C167 22.6554 167.254 22.7044 167.539 22.7044C167.949 22.7044 168.306 22.611 168.61 22.4244C168.918 22.2377 169.2 21.974 169.457 21.6334V18.2104ZM170.703 13.3034V23.6144H169.961C169.783 23.6144 169.671 23.528 169.625 23.3554L169.513 22.4944C169.209 22.8584 168.864 23.1524 168.477 23.3764C168.089 23.6004 167.641 23.7124 167.133 23.7124C166.727 23.7124 166.358 23.6354 166.027 23.4814C165.695 23.3227 165.413 23.0917 165.18 22.7884C164.946 22.485 164.767 22.107 164.641 21.6544C164.515 21.2017 164.452 20.6814 164.452 20.0934C164.452 19.5707 164.522 19.0854 164.662 18.6374C164.802 18.1847 165.002 17.7927 165.264 17.4614C165.525 17.13 165.845 16.871 166.223 16.6844C166.605 16.493 167.035 16.3974 167.511 16.3974C167.945 16.3974 168.316 16.472 168.624 16.6214C168.936 16.766 169.214 16.969 169.457 17.2304V13.3034H170.703ZM176.801 17.6924C176.745 17.795 176.658 17.8464 176.542 17.8464C176.472 17.8464 176.392 17.8207 176.304 17.7694C176.215 17.718 176.105 17.662 175.975 17.6014C175.849 17.536 175.697 17.4777 175.52 17.4264C175.342 17.3704 175.132 17.3424 174.89 17.3424C174.68 17.3424 174.491 17.3704 174.323 17.4264C174.155 17.4777 174.01 17.55 173.889 17.6434C173.772 17.7367 173.681 17.8464 173.616 17.9724C173.555 18.0937 173.525 18.2267 173.525 18.3714C173.525 18.5534 173.576 18.705 173.679 18.8264C173.786 18.9477 173.926 19.0527 174.099 19.1414C174.271 19.23 174.467 19.3094 174.687 19.3794C174.906 19.4447 175.13 19.517 175.359 19.5964C175.592 19.671 175.818 19.755 176.038 19.8484C176.257 19.9417 176.453 20.0584 176.626 20.1984C176.798 20.3384 176.936 20.511 177.039 20.7164C177.146 20.917 177.2 21.1597 177.2 21.4444C177.2 21.771 177.141 22.0744 177.025 22.3544C176.908 22.6297 176.735 22.87 176.507 23.0754C176.278 23.276 175.998 23.4347 175.667 23.5514C175.335 23.668 174.953 23.7264 174.519 23.7264C174.024 23.7264 173.576 23.647 173.175 23.4884C172.773 23.325 172.433 23.1174 172.153 22.8654L172.447 22.3894C172.484 22.3287 172.528 22.282 172.58 22.2494C172.631 22.2167 172.696 22.2004 172.776 22.2004C172.86 22.2004 172.948 22.233 173.042 22.2984C173.135 22.3637 173.247 22.436 173.378 22.5154C173.513 22.5947 173.676 22.667 173.868 22.7324C174.059 22.7977 174.297 22.8304 174.582 22.8304C174.824 22.8304 175.037 22.8 175.219 22.7394C175.401 22.674 175.552 22.5877 175.674 22.4804C175.795 22.373 175.884 22.2494 175.94 22.1094C176 21.9694 176.031 21.82 176.031 21.6614C176.031 21.4654 175.977 21.3044 175.87 21.1784C175.767 21.0477 175.629 20.938 175.457 20.8494C175.284 20.756 175.086 20.6767 174.862 20.6114C174.642 20.5414 174.416 20.469 174.183 20.3944C173.954 20.3197 173.728 20.2357 173.504 20.1424C173.284 20.0444 173.088 19.923 172.916 19.7784C172.743 19.6337 172.603 19.4564 172.496 19.2464C172.393 19.0317 172.342 18.7727 172.342 18.4694C172.342 18.1987 172.398 17.9397 172.51 17.6924C172.622 17.4404 172.785 17.221 173 17.0344C173.214 16.843 173.478 16.6914 173.791 16.5794C174.103 16.4674 174.46 16.4114 174.862 16.4114C175.328 16.4114 175.746 16.486 176.115 16.6354C176.488 16.78 176.81 16.9807 177.081 17.2374L176.801 17.6924ZM183.492 17.9444C183.716 17.459 183.992 17.081 184.318 16.8104C184.645 16.535 185.044 16.3974 185.515 16.3974C185.665 16.3974 185.807 16.4137 185.942 16.4464C186.082 16.479 186.206 16.5304 186.313 16.6004L186.222 17.5314C186.194 17.648 186.124 17.7064 186.012 17.7064C185.947 17.7064 185.851 17.6924 185.725 17.6644C185.599 17.6364 185.457 17.6224 185.298 17.6224C185.074 17.6224 184.874 17.655 184.696 17.7204C184.524 17.7857 184.367 17.8837 184.227 18.0144C184.092 18.1404 183.968 18.299 183.856 18.4904C183.749 18.677 183.651 18.8917 183.562 19.1344V23.6144H182.309V16.5234H183.023C183.159 16.5234 183.252 16.549 183.303 16.6004C183.355 16.6517 183.39 16.7404 183.408 16.8664L183.492 17.9444ZM191.868 19.2954C191.868 19.006 191.826 18.7424 191.742 18.5044C191.662 18.2617 191.543 18.054 191.385 17.8814C191.231 17.704 191.042 17.5687 190.818 17.4754C190.594 17.3774 190.339 17.3284 190.055 17.3284C189.457 17.3284 188.984 17.5034 188.634 17.8534C188.288 18.1987 188.074 18.6794 187.99 19.2954H191.868ZM192.876 22.6204C192.722 22.807 192.537 22.9704 192.323 23.1104C192.108 23.2457 191.877 23.3577 191.63 23.4464C191.387 23.535 191.135 23.6004 190.874 23.6424C190.612 23.689 190.353 23.7124 190.097 23.7124C189.607 23.7124 189.154 23.6307 188.739 23.4674C188.328 23.2994 187.971 23.0567 187.668 22.7394C187.369 22.4174 187.136 22.0207 186.968 21.5494C186.8 21.078 186.716 20.5367 186.716 19.9254C186.716 19.4307 186.79 18.9687 186.94 18.5394C187.094 18.11 187.313 17.739 187.598 17.4264C187.882 17.109 188.23 16.8617 188.641 16.6844C189.051 16.5024 189.513 16.4114 190.027 16.4114C190.451 16.4114 190.843 16.4837 191.203 16.6284C191.567 16.7684 191.879 16.9737 192.141 17.2444C192.407 17.5104 192.614 17.8417 192.764 18.2384C192.913 18.6304 192.988 19.0784 192.988 19.5824C192.988 19.7784 192.967 19.909 192.925 19.9744C192.883 20.0397 192.803 20.0724 192.687 20.0724H187.948C187.962 20.5204 188.022 20.91 188.13 21.2414C188.242 21.5727 188.396 21.8504 188.592 22.0744C188.788 22.2937 189.021 22.4594 189.292 22.5714C189.562 22.6787 189.866 22.7324 190.202 22.7324C190.514 22.7324 190.783 22.6974 191.007 22.6274C191.235 22.5527 191.431 22.4734 191.595 22.3894C191.758 22.3054 191.893 22.2284 192.001 22.1584C192.113 22.0837 192.208 22.0464 192.288 22.0464C192.39 22.0464 192.47 22.086 192.526 22.1654L192.876 22.6204ZM198.648 17.6924C198.592 17.795 198.506 17.8464 198.389 17.8464C198.319 17.8464 198.24 17.8207 198.151 17.7694C198.063 17.718 197.953 17.662 197.822 17.6014C197.696 17.536 197.545 17.4777 197.367 17.4264C197.19 17.3704 196.98 17.3424 196.737 17.3424C196.527 17.3424 196.338 17.3704 196.17 17.4264C196.002 17.4777 195.858 17.55 195.736 17.6434C195.62 17.7367 195.529 17.8464 195.463 17.9724C195.403 18.0937 195.372 18.2267 195.372 18.3714C195.372 18.5534 195.424 18.705 195.526 18.8264C195.634 18.9477 195.774 19.0527 195.946 19.1414C196.119 19.23 196.315 19.3094 196.534 19.3794C196.754 19.4447 196.978 19.517 197.206 19.5964C197.44 19.671 197.666 19.755 197.885 19.8484C198.105 19.9417 198.301 20.0584 198.473 20.1984C198.646 20.3384 198.784 20.511 198.886 20.7164C198.994 20.917 199.047 21.1597 199.047 21.4444C199.047 21.771 198.989 22.0744 198.872 22.3544C198.756 22.6297 198.583 22.87 198.354 23.0754C198.126 23.276 197.846 23.4347 197.514 23.5514C197.183 23.668 196.8 23.7264 196.366 23.7264C195.872 23.7264 195.424 23.647 195.022 23.4884C194.621 23.325 194.28 23.1174 194 22.8654L194.294 22.3894C194.332 22.3287 194.376 22.282 194.427 22.2494C194.479 22.2167 194.544 22.2004 194.623 22.2004C194.707 22.2004 194.796 22.233 194.889 22.2984C194.983 22.3637 195.095 22.436 195.225 22.5154C195.361 22.5947 195.524 22.667 195.715 22.7324C195.907 22.7977 196.145 22.8304 196.429 22.8304C196.672 22.8304 196.884 22.8 197.066 22.7394C197.248 22.674 197.4 22.5877 197.521 22.4804C197.643 22.373 197.731 22.2494 197.787 22.1094C197.848 21.9694 197.878 21.82 197.878 21.6614C197.878 21.4654 197.825 21.3044 197.717 21.1784C197.615 21.0477 197.477 20.938 197.304 20.8494C197.132 20.756 196.933 20.6767 196.709 20.6114C196.49 20.5414 196.264 20.469 196.03 20.3944C195.802 20.3197 195.575 20.2357 195.351 20.1424C195.132 20.0444 194.936 19.923 194.763 19.7784C194.591 19.6337 194.451 19.4564 194.343 19.2464C194.241 19.0317 194.189 18.7727 194.189 18.4694C194.189 18.1987 194.245 17.9397 194.357 17.6924C194.469 17.4404 194.633 17.221 194.847 17.0344C195.062 16.843 195.326 16.6914 195.638 16.5794C195.951 16.4674 196.308 16.4114 196.709 16.4114C197.176 16.4114 197.594 16.486 197.962 16.6354C198.336 16.78 198.658 16.9807 198.928 17.2374L198.648 17.6924ZM205.321 19.2954C205.321 19.006 205.279 18.7424 205.195 18.5044C205.116 18.2617 204.997 18.054 204.838 17.8814C204.684 17.704 204.495 17.5687 204.271 17.4754C204.047 17.3774 203.793 17.3284 203.508 17.3284C202.911 17.3284 202.437 17.5034 202.087 17.8534C201.742 18.1987 201.527 18.6794 201.443 19.2954H205.321ZM206.329 22.6204C206.175 22.807 205.991 22.9704 205.776 23.1104C205.561 23.2457 205.33 23.3577 205.083 23.4464C204.84 23.535 204.588 23.6004 204.327 23.6424C204.066 23.689 203.807 23.7124 203.55 23.7124C203.06 23.7124 202.607 23.6307 202.192 23.4674C201.781 23.2994 201.424 23.0567 201.121 22.7394C200.822 22.4174 200.589 22.0207 200.421 21.5494C200.253 21.078 200.169 20.5367 200.169 19.9254C200.169 19.4307 200.244 18.9687 200.393 18.5394C200.547 18.11 200.766 17.739 201.051 17.4264C201.336 17.109 201.683 16.8617 202.094 16.6844C202.505 16.5024 202.967 16.4114 203.48 16.4114C203.905 16.4114 204.297 16.4837 204.656 16.6284C205.02 16.7684 205.333 16.9737 205.594 17.2444C205.86 17.5104 206.068 17.8417 206.217 18.2384C206.366 18.6304 206.441 19.0784 206.441 19.5824C206.441 19.7784 206.42 19.909 206.378 19.9744C206.336 20.0397 206.257 20.0724 206.14 20.0724H201.401C201.415 20.5204 201.476 20.91 201.583 21.2414C201.695 21.5727 201.849 21.8504 202.045 22.0744C202.241 22.2937 202.474 22.4594 202.745 22.5714C203.016 22.6787 203.319 22.7324 203.655 22.7324C203.968 22.7324 204.236 22.6974 204.46 22.6274C204.689 22.5527 204.885 22.4734 205.048 22.3894C205.211 22.3054 205.347 22.2284 205.454 22.1584C205.566 22.0837 205.662 22.0464 205.741 22.0464C205.844 22.0464 205.923 22.086 205.979 22.1654L206.329 22.6204ZM209.154 17.9444C209.378 17.459 209.654 17.081 209.98 16.8104C210.307 16.535 210.706 16.3974 211.177 16.3974C211.327 16.3974 211.469 16.4137 211.604 16.4464C211.744 16.479 211.868 16.5304 211.975 16.6004L211.884 17.5314C211.856 17.648 211.786 17.7064 211.674 17.7064C211.609 17.7064 211.513 17.6924 211.387 17.6644C211.261 17.6364 211.119 17.6224 210.96 17.6224C210.736 17.6224 210.536 17.655 210.358 17.7204C210.186 17.7857 210.029 17.8837 209.889 18.0144C209.754 18.1404 209.63 18.299 209.518 18.4904C209.411 18.677 209.313 18.8917 209.224 19.1344V23.6144H207.971V16.5234H208.685C208.821 16.5234 208.914 16.549 208.965 16.6004C209.017 16.6517 209.052 16.7404 209.07 16.8664L209.154 17.9444ZM219.147 16.5234L216.256 23.6144H215.136L212.245 16.5234H213.26C213.363 16.5234 213.447 16.549 213.512 16.6004C213.577 16.6517 213.622 16.7124 213.645 16.7824L215.444 21.3464C215.5 21.519 215.549 21.687 215.591 21.8504C215.633 22.0137 215.673 22.177 215.71 22.3404C215.747 22.177 215.787 22.0137 215.829 21.8504C215.871 21.687 215.922 21.519 215.983 21.3464L217.803 16.7824C217.831 16.7077 217.878 16.647 217.943 16.6004C218.008 16.549 218.085 16.5234 218.174 16.5234H219.147ZM224.844 19.2954C224.844 19.006 224.802 18.7424 224.718 18.5044C224.639 18.2617 224.52 18.054 224.361 17.8814C224.207 17.704 224.018 17.5687 223.794 17.4754C223.57 17.3774 223.316 17.3284 223.031 17.3284C222.434 17.3284 221.96 17.5034 221.61 17.8534C221.265 18.1987 221.05 18.6794 220.966 19.2954H224.844ZM225.852 22.6204C225.698 22.807 225.514 22.9704 225.299 23.1104C225.085 23.2457 224.854 23.3577 224.606 23.4464C224.364 23.535 224.112 23.6004 223.85 23.6424C223.589 23.689 223.33 23.7124 223.073 23.7124C222.583 23.7124 222.131 23.6307 221.715 23.4674C221.305 23.2994 220.948 23.0567 220.644 22.7394C220.346 22.4174 220.112 22.0207 219.944 21.5494C219.776 21.078 219.692 20.5367 219.692 19.9254C219.692 19.4307 219.767 18.9687 219.916 18.5394C220.07 18.11 220.29 17.739 220.574 17.4264C220.859 17.109 221.207 16.8617 221.617 16.6844C222.028 16.5024 222.49 16.4114 223.003 16.4114C223.428 16.4114 223.82 16.4837 224.179 16.6284C224.543 16.7684 224.856 16.9737 225.117 17.2444C225.383 17.5104 225.591 17.8417 225.74 18.2384C225.89 18.6304 225.964 19.0784 225.964 19.5824C225.964 19.7784 225.943 19.909 225.901 19.9744C225.859 20.0397 225.78 20.0724 225.663 20.0724H220.924C220.938 20.5204 220.999 20.91 221.106 21.2414C221.218 21.5727 221.372 21.8504 221.568 22.0744C221.764 22.2937 221.998 22.4594 222.268 22.5714C222.539 22.6787 222.842 22.7324 223.178 22.7324C223.491 22.7324 223.759 22.6974 223.983 22.6274C224.212 22.5527 224.408 22.4734 224.571 22.3894C224.735 22.3054 224.87 22.2284 224.977 22.1584C225.089 22.0837 225.185 22.0464 225.264 22.0464C225.367 22.0464 225.446 22.086 225.502 22.1654L225.852 22.6204ZM232.115 18.2104C231.881 17.8977 231.629 17.6807 231.359 17.5594C231.088 17.4334 230.785 17.3704 230.449 17.3704C229.791 17.3704 229.284 17.606 228.93 18.0774C228.575 18.5487 228.398 19.2207 228.398 20.0934C228.398 20.5554 228.437 20.952 228.517 21.2834C228.596 21.61 228.713 21.8807 228.867 22.0954C229.021 22.3054 229.21 22.4594 229.434 22.5574C229.658 22.6554 229.912 22.7044 230.197 22.7044C230.607 22.7044 230.964 22.611 231.268 22.4244C231.576 22.2377 231.858 21.974 232.115 21.6334V18.2104ZM233.361 13.3034V23.6144H232.619C232.441 23.6144 232.329 23.528 232.283 23.3554L232.171 22.4944C231.867 22.8584 231.522 23.1524 231.135 23.3764C230.747 23.6004 230.299 23.7124 229.791 23.7124C229.385 23.7124 229.016 23.6354 228.685 23.4814C228.353 23.3227 228.071 23.0917 227.838 22.7884C227.604 22.485 227.425 22.107 227.299 21.6544C227.173 21.2017 227.11 20.6814 227.11 20.0934C227.11 19.5707 227.18 19.0854 227.32 18.6374C227.46 18.1847 227.66 17.7927 227.922 17.4614C228.183 17.13 228.503 16.871 228.881 16.6844C229.263 16.493 229.693 16.3974 230.169 16.3974C230.603 16.3974 230.974 16.472 231.282 16.6214C231.594 16.766 231.872 16.969 232.115 17.2304V13.3034H233.361ZM239.373 23.6144V17.5874L238.589 17.4964C238.491 17.473 238.409 17.438 238.344 17.3914C238.283 17.34 238.253 17.2677 238.253 17.1744V16.6634H239.373V15.9774C239.373 15.5714 239.429 15.212 239.541 14.8994C239.657 14.582 239.821 14.316 240.031 14.1014C240.245 13.882 240.502 13.7164 240.801 13.6044C241.099 13.4924 241.435 13.4364 241.809 13.4364C242.126 13.4364 242.418 13.483 242.684 13.5764L242.656 14.1994C242.646 14.3114 242.583 14.372 242.467 14.3814C242.355 14.3907 242.203 14.3954 242.012 14.3954C241.797 14.3954 241.601 14.4234 241.424 14.4794C241.251 14.5354 241.102 14.6264 240.976 14.7524C240.85 14.8784 240.752 15.044 240.682 15.2494C240.616 15.4547 240.584 15.709 240.584 16.0124V16.6634H242.628V17.5664H240.626V23.6144H239.373ZM246.576 16.4114C247.094 16.4114 247.56 16.4977 247.976 16.6704C248.391 16.843 248.746 17.088 249.04 17.4054C249.334 17.7227 249.558 18.1077 249.712 18.5604C249.87 19.0084 249.95 19.51 249.95 20.0654C249.95 20.6254 249.87 21.1294 249.712 21.5774C249.558 22.0254 249.334 22.408 249.04 22.7254C248.746 23.0427 248.391 23.2877 247.976 23.4604C247.56 23.6284 247.094 23.7124 246.576 23.7124C246.053 23.7124 245.582 23.6284 245.162 23.4604C244.746 23.2877 244.392 23.0427 244.098 22.7254C243.804 22.408 243.577 22.0254 243.419 21.5774C243.265 21.1294 243.188 20.6254 243.188 20.0654C243.188 19.51 243.265 19.0084 243.419 18.5604C243.577 18.1077 243.804 17.7227 244.098 17.4054C244.392 17.088 244.746 16.843 245.162 16.6704C245.582 16.4977 246.053 16.4114 246.576 16.4114ZM246.576 22.7394C247.276 22.7394 247.798 22.506 248.144 22.0394C248.489 21.568 248.662 20.9124 248.662 20.0724C248.662 19.2277 248.489 18.5697 248.144 18.0984C247.798 17.627 247.276 17.3914 246.576 17.3914C246.221 17.3914 245.911 17.452 245.645 17.5734C245.383 17.6947 245.164 17.8697 244.987 18.0984C244.814 18.327 244.683 18.6094 244.595 18.9454C244.511 19.2767 244.469 19.6524 244.469 20.0724C244.469 20.9124 244.641 21.568 244.987 22.0394C245.337 22.506 245.866 22.7394 246.576 22.7394ZM252.713 17.9444C252.937 17.459 253.212 17.081 253.539 16.8104C253.866 16.535 254.265 16.3974 254.736 16.3974C254.885 16.3974 255.028 16.4137 255.163 16.4464C255.303 16.479 255.427 16.5304 255.534 16.6004L255.443 17.5314C255.415 17.648 255.345 17.7064 255.233 17.7064C255.168 17.7064 255.072 17.6924 254.946 17.6644C254.82 17.6364 254.678 17.6224 254.519 17.6224C254.295 17.6224 254.094 17.655 253.917 17.7204C253.744 17.7857 253.588 17.8837 253.448 18.0144C253.313 18.1404 253.189 18.299 253.077 18.4904C252.97 18.677 252.872 18.8917 252.783 19.1344V23.6144H251.53V16.5234H252.244C252.379 16.5234 252.473 16.549 252.524 16.6004C252.575 16.6517 252.61 16.7404 252.629 16.8664L252.713 17.9444ZM262.9 16.4114C263.418 16.4114 263.884 16.4977 264.3 16.6704C264.715 16.843 265.07 17.088 265.364 17.4054C265.658 17.7227 265.882 18.1077 266.036 18.5604C266.194 19.0084 266.274 19.51 266.274 20.0654C266.274 20.6254 266.194 21.1294 266.036 21.5774C265.882 22.0254 265.658 22.408 265.364 22.7254C265.07 23.0427 264.715 23.2877 264.3 23.4604C263.884 23.6284 263.418 23.7124 262.9 23.7124C262.377 23.7124 261.906 23.6284 261.486 23.4604C261.07 23.2877 260.716 23.0427 260.422 22.7254C260.128 22.408 259.901 22.0254 259.743 21.5774C259.589 21.1294 259.512 20.6254 259.512 20.0654C259.512 19.51 259.589 19.0084 259.743 18.5604C259.901 18.1077 260.128 17.7227 260.422 17.4054C260.716 17.088 261.07 16.843 261.486 16.6704C261.906 16.4977 262.377 16.4114 262.9 16.4114ZM262.9 22.7394C263.6 22.7394 264.122 22.506 264.468 22.0394C264.813 21.568 264.986 20.9124 264.986 20.0724C264.986 19.2277 264.813 18.5697 264.468 18.0984C264.122 17.627 263.6 17.3914 262.9 17.3914C262.545 17.3914 262.235 17.452 261.969 17.5734C261.707 17.6947 261.488 17.8697 261.311 18.0984C261.138 18.327 261.007 18.6094 260.919 18.9454C260.835 19.2767 260.793 19.6524 260.793 20.0724C260.793 20.9124 260.965 21.568 261.311 22.0394C261.661 22.506 262.19 22.7394 262.9 22.7394ZM269.037 17.9444C269.261 17.459 269.537 17.081 269.863 16.8104C270.19 16.535 270.589 16.3974 271.06 16.3974C271.21 16.3974 271.352 16.4137 271.487 16.4464C271.627 16.479 271.751 16.5304 271.858 16.6004L271.767 17.5314C271.739 17.648 271.669 17.7064 271.557 17.7064C271.492 17.7064 271.396 17.6924 271.27 17.6644C271.144 17.6364 271.002 17.6224 270.843 17.6224C270.619 17.6224 270.419 17.655 270.241 17.7204C270.069 17.7857 269.912 17.8837 269.772 18.0144C269.637 18.1404 269.513 18.299 269.401 18.4904C269.294 18.677 269.196 18.8917 269.107 19.1344V23.6144H267.854V16.5234H268.568C268.704 16.5234 268.797 16.549 268.848 16.6004C268.9 16.6517 268.935 16.7404 268.953 16.8664L269.037 17.9444ZM277.3 18.2104C277.067 17.8977 276.815 17.6807 276.544 17.5594C276.274 17.4334 275.97 17.3704 275.634 17.3704C274.976 17.3704 274.47 17.606 274.115 18.0774C273.761 18.5487 273.583 19.2207 273.583 20.0934C273.583 20.5554 273.623 20.952 273.702 21.2834C273.782 21.61 273.898 21.8807 274.052 22.0954C274.206 22.3054 274.395 22.4594 274.619 22.5574C274.843 22.6554 275.098 22.7044 275.382 22.7044C275.793 22.7044 276.15 22.611 276.453 22.4244C276.761 22.2377 277.044 21.974 277.3 21.6334V18.2104ZM278.546 13.3034V23.6144H277.804C277.627 23.6144 277.515 23.528 277.468 23.3554L277.356 22.4944C277.053 22.8584 276.708 23.1524 276.32 23.3764C275.933 23.6004 275.485 23.7124 274.976 23.7124C274.57 23.7124 274.202 23.6354 273.87 23.4814C273.539 23.3227 273.257 23.0917 273.023 22.7884C272.79 22.485 272.61 22.107 272.484 21.6544C272.358 21.2017 272.295 20.6814 272.295 20.0934C272.295 19.5707 272.365 19.0854 272.505 18.6374C272.645 18.1847 272.846 17.7927 273.107 17.4614C273.369 17.13 273.688 16.871 274.066 16.6844C274.449 16.493 274.878 16.3974 275.354 16.3974C275.788 16.3974 276.159 16.472 276.467 16.6214C276.78 16.766 277.058 16.969 277.3 17.2304V13.3034H278.546ZM285.26 19.2954C285.26 19.006 285.218 18.7424 285.134 18.5044C285.055 18.2617 284.936 18.054 284.777 17.8814C284.623 17.704 284.434 17.5687 284.21 17.4754C283.986 17.3774 283.732 17.3284 283.447 17.3284C282.85 17.3284 282.376 17.5034 282.026 17.8534C281.681 18.1987 281.466 18.6794 281.382 19.2954H285.26ZM286.268 22.6204C286.114 22.807 285.93 22.9704 285.715 23.1104C285.501 23.2457 285.27 23.3577 285.022 23.4464C284.78 23.535 284.528 23.6004 284.266 23.6424C284.005 23.689 283.746 23.7124 283.489 23.7124C282.999 23.7124 282.547 23.6307 282.131 23.4674C281.721 23.2994 281.364 23.0567 281.06 22.7394C280.762 22.4174 280.528 22.0207 280.36 21.5494C280.192 21.078 280.108 20.5367 280.108 19.9254C280.108 19.4307 280.183 18.9687 280.332 18.5394C280.486 18.11 280.706 17.739 280.99 17.4264C281.275 17.109 281.623 16.8617 282.033 16.6844C282.444 16.5024 282.906 16.4114 283.419 16.4114C283.844 16.4114 284.236 16.4837 284.595 16.6284C284.959 16.7684 285.272 16.9737 285.533 17.2444C285.799 17.5104 286.007 17.8417 286.156 18.2384C286.306 18.6304 286.38 19.0784 286.38 19.5824C286.38 19.7784 286.359 19.909 286.317 19.9744C286.275 20.0397 286.196 20.0724 286.079 20.0724H281.34C281.354 20.5204 281.415 20.91 281.522 21.2414C281.634 21.5727 281.788 21.8504 281.984 22.0744C282.18 22.2937 282.414 22.4594 282.684 22.5714C282.955 22.6787 283.258 22.7324 283.594 22.7324C283.907 22.7324 284.175 22.6974 284.399 22.6274C284.628 22.5527 284.824 22.4734 284.987 22.3894C285.151 22.3054 285.286 22.2284 285.393 22.1584C285.505 22.0837 285.601 22.0464 285.68 22.0464C285.783 22.0464 285.862 22.086 285.918 22.1654L286.268 22.6204ZM289.094 17.9444C289.318 17.459 289.593 17.081 289.92 16.8104C290.246 16.535 290.645 16.3974 291.117 16.3974C291.266 16.3974 291.408 16.4137 291.544 16.4464C291.684 16.479 291.807 16.5304 291.915 16.6004L291.824 17.5314C291.796 17.648 291.726 17.7064 291.614 17.7064C291.548 17.7064 291.453 17.6924 291.327 17.6644C291.201 17.6364 291.058 17.6224 290.9 17.6224C290.676 17.6224 290.475 17.655 290.298 17.7204C290.125 17.7857 289.969 17.8837 289.829 18.0144C289.693 18.1404 289.57 18.299 289.458 18.4904C289.35 18.677 289.252 18.8917 289.164 19.1344V23.6144H287.911V16.5234H288.625C288.76 16.5234 288.853 16.549 288.905 16.6004C288.956 16.6517 288.991 16.7404 289.01 16.8664L289.094 17.9444Z" fill="white"/>
<rect y="80.2745" width="133.791" height="37.2288" rx="18.6144" fill="#43A047"/>
<path d="M43.9954 101.814L40.8454 98.6639L39.7954 99.7139L43.9954 103.914L52.9954 94.9139L51.9454 93.8639L43.9954 101.814Z" fill="white"/>
<path d="M63.6375 99.0589C64.0248 99.0589 64.3655 99.0076 64.6595 98.9049C64.9582 98.8022 65.2078 98.6599 65.4085 98.4779C65.6138 98.2912 65.7678 98.0696 65.8705 97.8129C65.9732 97.5562 66.0245 97.2739 66.0245 96.9659C66.0245 96.3266 65.8262 95.8272 65.4295 95.4679C65.0375 95.1086 64.4402 94.9289 63.6375 94.9289H62.0275V99.0589H63.6375ZM63.6375 93.8579C64.2722 93.8579 64.8228 93.9326 65.2895 94.0819C65.7608 94.2266 66.1505 94.4342 66.4585 94.7049C66.7665 94.9756 66.9952 95.3022 67.1445 95.6849C67.2985 96.0676 67.3755 96.4946 67.3755 96.9659C67.3755 97.4326 67.2938 97.8596 67.1305 98.2469C66.9672 98.6342 66.7268 98.9679 66.4095 99.2479C66.0968 99.5279 65.7072 99.7472 65.2405 99.9059C64.7785 100.06 64.2442 100.137 63.6375 100.137H62.0275V103.889H60.6765V93.8579H63.6375ZM72.415 100.697C71.841 100.716 71.351 100.762 70.945 100.837C70.5436 100.907 70.2146 101 69.958 101.117C69.706 101.234 69.5216 101.371 69.405 101.53C69.293 101.689 69.237 101.866 69.237 102.062C69.237 102.249 69.2673 102.41 69.328 102.545C69.3886 102.68 69.4703 102.792 69.573 102.881C69.6803 102.965 69.804 103.028 69.944 103.07C70.0886 103.107 70.2426 103.126 70.406 103.126C70.6253 103.126 70.826 103.105 71.008 103.063C71.19 103.016 71.3603 102.951 71.519 102.867C71.6823 102.783 71.8363 102.683 71.981 102.566C72.1303 102.449 72.275 102.316 72.415 102.167V100.697ZM68.39 97.7989C68.782 97.4209 69.2043 97.1386 69.657 96.9519C70.1096 96.7652 70.6113 96.6719 71.162 96.6719C71.5586 96.6719 71.911 96.7372 72.219 96.8679C72.527 96.9986 72.786 97.1806 72.996 97.4139C73.206 97.6472 73.3646 97.9296 73.472 98.2609C73.5793 98.5922 73.633 98.9562 73.633 99.3529V103.889H73.08C72.9586 103.889 72.8653 103.87 72.8 103.833C72.7346 103.791 72.6833 103.712 72.646 103.595L72.506 102.923C72.3193 103.096 72.1373 103.25 71.96 103.385C71.7826 103.516 71.596 103.628 71.4 103.721C71.204 103.81 70.994 103.877 70.77 103.924C70.5506 103.975 70.3056 104.001 70.035 104.001C69.7596 104.001 69.5006 103.964 69.258 103.889C69.0153 103.81 68.803 103.693 68.621 103.539C68.4436 103.385 68.3013 103.191 68.194 102.958C68.0913 102.72 68.04 102.44 68.04 102.118C68.04 101.838 68.117 101.57 68.271 101.313C68.425 101.052 68.6746 100.821 69.02 100.62C69.3653 100.419 69.8156 100.256 70.371 100.13C70.9263 99.9992 71.6076 99.9246 72.415 99.9059V99.3529C72.415 98.8022 72.296 98.3869 72.058 98.1069C71.82 97.8222 71.4723 97.6799 71.015 97.6799C70.707 97.6799 70.448 97.7196 70.238 97.7989C70.0326 97.8736 69.853 97.9599 69.699 98.0579C69.5496 98.1512 69.419 98.2376 69.307 98.3169C69.1996 98.3916 69.0923 98.4289 68.985 98.4289C68.901 98.4289 68.8286 98.4079 68.768 98.3659C68.7073 98.3192 68.656 98.2632 68.614 98.1979L68.39 97.7989ZM76.7139 98.2189C76.9379 97.7336 77.2133 97.3556 77.5399 97.0849C77.8666 96.8096 78.2656 96.6719 78.7369 96.6719C78.8863 96.6719 79.0286 96.6882 79.1639 96.7209C79.3039 96.7536 79.4276 96.8049 79.5349 96.8749L79.4439 97.8059C79.4159 97.9226 79.3459 97.9809 79.2339 97.9809C79.1686 97.9809 79.0729 97.9669 78.9469 97.9389C78.8209 97.9109 78.6786 97.8969 78.5199 97.8969C78.2959 97.8969 78.0953 97.9296 77.9179 97.9949C77.7453 98.0602 77.5889 98.1582 77.4489 98.2889C77.3136 98.4149 77.1899 98.5736 77.0779 98.7649C76.9706 98.9516 76.8726 99.1662 76.7839 99.4089V103.889H75.5309V96.7979H76.2449C76.3803 96.7979 76.4736 96.8236 76.5249 96.8749C76.5763 96.9262 76.6113 97.0149 76.6299 97.1409L76.7139 98.2189ZM82.8076 104.001C82.2476 104.001 81.8159 103.845 81.5126 103.532C81.2139 103.219 81.0646 102.769 81.0646 102.181V97.8409H80.2106C80.1359 97.8409 80.0729 97.8199 80.0216 97.7779C79.9702 97.7312 79.9446 97.6612 79.9446 97.5679V97.0709L81.1066 96.9239L81.3936 94.7329C81.4076 94.6629 81.4379 94.6069 81.4846 94.5649C81.5359 94.5182 81.6012 94.4949 81.6806 94.4949H82.3106V96.9379H84.3616V97.8409H82.3106V102.097C82.3106 102.396 82.3829 102.617 82.5276 102.762C82.6722 102.907 82.8589 102.979 83.0876 102.979C83.2182 102.979 83.3302 102.963 83.4236 102.93C83.5216 102.893 83.6056 102.853 83.6756 102.811C83.7456 102.769 83.8039 102.732 83.8506 102.699C83.9019 102.662 83.9462 102.643 83.9836 102.643C84.0489 102.643 84.1072 102.683 84.1586 102.762L84.5226 103.357C84.3079 103.558 84.0489 103.716 83.7456 103.833C83.4422 103.945 83.1296 104.001 82.8076 104.001ZM95.3692 102.937V103.889H89.9932V102.937H92.1422V96.0979C92.1422 95.8926 92.1492 95.6849 92.1632 95.4749L90.3782 97.0079C90.3175 97.0592 90.2568 97.0919 90.1962 97.1059C90.1355 97.1152 90.0795 97.1152 90.0282 97.1059C89.9768 97.0966 89.9278 97.0779 89.8812 97.0499C89.8392 97.0219 89.8065 96.9916 89.7832 96.9589L89.3912 96.4199L92.3802 93.8369H93.3952V102.937H95.3692Z" fill="white"/>
<rect x="152.405" y="80.2745" width="96.5621" height="37.2288" rx="18.6144" fill="#0080D1"/>
<path d="M179.361 101.383L183.636 97.1076L182.849 96.3389L179.418 99.7701L177.524 97.8764L176.699 98.7014L179.361 101.383ZM180.186 106.37C178.436 105.933 176.999 104.917 175.874 103.323C174.749 101.729 174.186 99.9826 174.186 98.0826V93.6201L180.186 91.3701L186.186 93.6201V98.0826C186.186 99.9826 185.624 101.729 184.499 103.323C183.374 104.917 181.936 105.933 180.186 106.37ZM180.186 105.208C181.624 104.733 182.796 103.836 183.702 102.517C184.608 101.198 185.061 99.7201 185.061 98.0826V94.4076L180.186 92.5701L175.311 94.4076V98.0826C175.311 99.7201 175.764 101.198 176.671 102.517C177.577 103.836 178.749 104.733 180.186 105.208Z" fill="white" stroke="white" stroke-width="0.2"/>
<path d="M197.428 99.0589C197.816 99.0589 198.156 99.0076 198.45 98.9049C198.749 98.8022 198.999 98.6599 199.199 98.4779C199.405 98.2912 199.559 98.0696 199.661 97.8129C199.764 97.5562 199.815 97.2739 199.815 96.9659C199.815 96.3266 199.617 95.8272 199.22 95.4679C198.828 95.1086 198.231 94.9289 197.428 94.9289H195.818V99.0589H197.428ZM197.428 93.8579C198.063 93.8579 198.614 93.9326 199.08 94.0819C199.552 94.2266 199.941 94.4342 200.249 94.7049C200.557 94.9756 200.786 95.3022 200.935 95.6849C201.089 96.0676 201.166 96.4946 201.166 96.9659C201.166 97.4326 201.085 97.8596 200.921 98.2469C200.758 98.6342 200.518 98.9679 200.2 99.2479C199.888 99.5279 199.498 99.7472 199.031 99.9059C198.569 100.06 198.035 100.137 197.428 100.137H195.818V103.889H194.467V93.8579H197.428ZM206.206 100.697C205.632 100.716 205.142 100.762 204.736 100.837C204.334 100.907 204.005 101 203.749 101.117C203.497 101.234 203.312 101.371 203.196 101.53C203.084 101.689 203.028 101.866 203.028 102.062C203.028 102.249 203.058 102.41 203.119 102.545C203.179 102.68 203.261 102.792 203.364 102.881C203.471 102.965 203.595 103.028 203.735 103.07C203.879 103.107 204.033 103.126 204.197 103.126C204.416 103.126 204.617 103.105 204.799 103.063C204.981 103.016 205.151 102.951 205.31 102.867C205.473 102.783 205.627 102.683 205.772 102.566C205.921 102.449 206.066 102.316 206.206 102.167V100.697ZM202.181 97.7989C202.573 97.4209 202.995 97.1386 203.448 96.9519C203.9 96.7652 204.402 96.6719 204.953 96.6719C205.349 96.6719 205.702 96.7372 206.01 96.8679C206.318 96.9986 206.577 97.1806 206.787 97.4139C206.997 97.6472 207.155 97.9296 207.263 98.2609C207.37 98.5922 207.424 98.9562 207.424 99.3529V103.889H206.871C206.749 103.889 206.656 103.87 206.591 103.833C206.525 103.791 206.474 103.712 206.437 103.595L206.297 102.923C206.11 103.096 205.928 103.25 205.751 103.385C205.573 103.516 205.387 103.628 205.191 103.721C204.995 103.81 204.785 103.877 204.561 103.924C204.341 103.975 204.096 104.001 203.826 104.001C203.55 104.001 203.291 103.964 203.049 103.889C202.806 103.81 202.594 103.693 202.412 103.539C202.234 103.385 202.092 103.191 201.985 102.958C201.882 102.72 201.831 102.44 201.831 102.118C201.831 101.838 201.908 101.57 202.062 101.313C202.216 101.052 202.465 100.821 202.811 100.62C203.156 100.419 203.606 100.256 204.162 100.13C204.717 99.9992 205.398 99.9246 206.206 99.9059V99.3529C206.206 98.8022 206.087 98.3869 205.849 98.1069C205.611 97.8222 205.263 97.6799 204.806 97.6799C204.498 97.6799 204.239 97.7196 204.029 97.7989C203.823 97.8736 203.644 97.9599 203.49 98.0579C203.34 98.1512 203.21 98.2376 203.098 98.3169C202.99 98.3916 202.883 98.4289 202.776 98.4289C202.692 98.4289 202.619 98.4079 202.559 98.3659C202.498 98.3192 202.447 98.2632 202.405 98.1979L202.181 97.7989ZM210.505 98.2189C210.729 97.7336 211.004 97.3556 211.331 97.0849C211.657 96.8096 212.056 96.6719 212.528 96.6719C212.677 96.6719 212.819 96.6882 212.955 96.7209C213.095 96.7536 213.218 96.8049 213.326 96.8749L213.235 97.8059C213.207 97.9226 213.137 97.9809 213.025 97.9809C212.959 97.9809 212.864 97.9669 212.738 97.9389C212.612 97.9109 212.469 97.8969 212.311 97.8969C212.087 97.8969 211.886 97.9296 211.709 97.9949C211.536 98.0602 211.38 98.1582 211.24 98.2889C211.104 98.4149 210.981 98.5736 210.869 98.7649C210.761 98.9516 210.663 99.1662 210.575 99.4089V103.889H209.322V96.7979H210.036C210.171 96.7979 210.264 96.8236 210.316 96.8749C210.367 96.9262 210.402 97.0149 210.421 97.1409L210.505 98.2189ZM216.598 104.001C216.038 104.001 215.607 103.845 215.303 103.532C215.005 103.219 214.855 102.769 214.855 102.181V97.8409H214.001C213.927 97.8409 213.864 97.8199 213.812 97.7779C213.761 97.7312 213.735 97.6612 213.735 97.5679V97.0709L214.897 96.9239L215.184 94.7329C215.198 94.6629 215.229 94.6069 215.275 94.5649C215.327 94.5182 215.392 94.4949 215.471 94.4949H216.101V96.9379H218.152V97.8409H216.101V102.097C216.101 102.396 216.174 102.617 216.318 102.762C216.463 102.907 216.65 102.979 216.878 102.979C217.009 102.979 217.121 102.963 217.214 102.93C217.312 102.893 217.396 102.853 217.466 102.811C217.536 102.769 217.595 102.732 217.641 102.699C217.693 102.662 217.737 102.643 217.774 102.643C217.84 102.643 217.898 102.683 217.949 102.762L218.313 103.357C218.099 103.558 217.84 103.716 217.536 103.833C217.233 103.945 216.92 104.001 216.598 104.001ZM228.943 102.706C229.078 102.706 229.186 102.746 229.265 102.825C229.344 102.904 229.384 103.007 229.384 103.133V103.889H222.692V103.462C222.692 103.373 222.711 103.282 222.748 103.189C222.785 103.096 222.844 103.009 222.923 102.93L226.136 99.7029C226.402 99.4322 226.645 99.1732 226.864 98.9259C227.083 98.6739 227.27 98.4219 227.424 98.1699C227.578 97.9179 227.697 97.6636 227.781 97.4069C227.865 97.1456 227.907 96.8679 227.907 96.5739C227.907 96.2799 227.86 96.0232 227.767 95.8039C227.674 95.5799 227.545 95.3956 227.382 95.2509C227.223 95.1062 227.034 94.9989 226.815 94.9289C226.596 94.8542 226.36 94.8169 226.108 94.8169C225.851 94.8169 225.616 94.8542 225.401 94.9289C225.186 95.0036 224.995 95.1086 224.827 95.2439C224.664 95.3746 224.526 95.5309 224.414 95.7129C224.302 95.8949 224.223 96.0956 224.176 96.3149C224.12 96.4782 224.043 96.5879 223.945 96.6439C223.852 96.6952 223.719 96.7092 223.546 96.6859L222.895 96.5739C222.96 96.1166 223.086 95.7129 223.273 95.3629C223.464 95.0082 223.702 94.7119 223.987 94.4739C224.276 94.2359 224.605 94.0562 224.974 93.9349C225.343 93.8089 225.742 93.7459 226.171 93.7459C226.596 93.7459 226.992 93.8089 227.361 93.9349C227.73 94.0609 228.049 94.2452 228.32 94.4879C228.591 94.7259 228.803 95.0176 228.957 95.3629C229.111 95.7082 229.188 96.1002 229.188 96.5389C229.188 96.9122 229.132 97.2599 229.02 97.5819C228.908 97.8992 228.756 98.2026 228.565 98.4919C228.374 98.7812 228.152 99.0636 227.9 99.3389C227.653 99.6142 227.389 99.8919 227.109 100.172L224.463 102.874C224.65 102.823 224.839 102.783 225.03 102.755C225.221 102.722 225.406 102.706 225.583 102.706H228.943Z" fill="white"/>
<rect x="255.948" y="80.2745" width="96.5621" height="37.2288" rx="18.6144" fill="#0080D1"/>
<path d="M282.904 101.383L287.179 97.1076L286.391 96.3389L282.96 99.7701L281.066 97.8764L280.241 98.7014L282.904 101.383ZM283.729 106.37C281.979 105.933 280.541 104.917 279.416 103.323C278.291 101.729 277.729 99.9826 277.729 98.0826V93.6201L283.729 91.3701L289.729 93.6201V98.0826C289.729 99.9826 289.166 101.729 288.041 103.323C286.916 104.917 285.479 105.933 283.729 106.37ZM283.729 105.208C285.166 104.733 286.338 103.836 287.244 102.517C288.151 101.198 288.604 99.7201 288.604 98.0826V94.4076L283.729 92.5701L278.854 94.4076V98.0826C278.854 99.7201 279.307 101.198 280.213 102.517C281.119 103.836 282.291 104.733 283.729 105.208Z" fill="white" stroke="white" stroke-width="0.2"/>
<path d="M300.971 99.0589C301.358 99.0589 301.699 99.0076 301.993 98.9049C302.291 98.8022 302.541 98.6599 302.742 98.4779C302.947 98.2912 303.101 98.0696 303.204 97.8129C303.306 97.5562 303.358 97.2739 303.358 96.9659C303.358 96.3266 303.159 95.8272 302.763 95.4679C302.371 95.1086 301.773 94.9289 300.971 94.9289H299.361V99.0589H300.971ZM300.971 93.8579C301.605 93.8579 302.156 93.9326 302.623 94.0819C303.094 94.2266 303.484 94.4342 303.792 94.7049C304.1 94.9756 304.328 95.3022 304.478 95.6849C304.632 96.0676 304.709 96.4946 304.709 96.9659C304.709 97.4326 304.627 97.8596 304.464 98.2469C304.3 98.6342 304.06 98.9679 303.743 99.2479C303.43 99.5279 303.04 99.7472 302.574 99.9059C302.112 100.06 301.577 100.137 300.971 100.137H299.361V103.889H298.01V93.8579H300.971ZM309.748 100.697C309.174 100.716 308.684 100.762 308.278 100.837C307.877 100.907 307.548 101 307.291 101.117C307.039 101.234 306.855 101.371 306.738 101.53C306.626 101.689 306.57 101.866 306.57 102.062C306.57 102.249 306.601 102.41 306.661 102.545C306.722 102.68 306.804 102.792 306.906 102.881C307.014 102.965 307.137 103.028 307.277 103.07C307.422 103.107 307.576 103.126 307.739 103.126C307.959 103.126 308.159 103.105 308.341 103.063C308.523 103.016 308.694 102.951 308.852 102.867C309.016 102.783 309.17 102.683 309.314 102.566C309.464 102.449 309.608 102.316 309.748 102.167V100.697ZM305.723 97.7989C306.115 97.4209 306.538 97.1386 306.99 96.9519C307.443 96.7652 307.945 96.6719 308.495 96.6719C308.892 96.6719 309.244 96.7372 309.552 96.8679C309.86 96.9986 310.119 97.1806 310.329 97.4139C310.539 97.6472 310.698 97.9296 310.805 98.2609C310.913 98.5922 310.966 98.9562 310.966 99.3529V103.889H310.413C310.292 103.889 310.199 103.87 310.133 103.833C310.068 103.791 310.017 103.712 309.979 103.595L309.839 102.923C309.653 103.096 309.471 103.25 309.293 103.385C309.116 103.516 308.929 103.628 308.733 103.721C308.537 103.81 308.327 103.877 308.103 103.924C307.884 103.975 307.639 104.001 307.368 104.001C307.093 104.001 306.834 103.964 306.591 103.889C306.349 103.81 306.136 103.693 305.954 103.539C305.777 103.385 305.635 103.191 305.527 102.958C305.425 102.72 305.373 102.44 305.373 102.118C305.373 101.838 305.45 101.57 305.604 101.313C305.758 101.052 306.008 100.821 306.353 100.62C306.699 100.419 307.149 100.256 307.704 100.13C308.26 99.9992 308.941 99.9246 309.748 99.9059V99.3529C309.748 98.8022 309.629 98.3869 309.391 98.1069C309.153 97.8222 308.806 97.6799 308.348 97.6799C308.04 97.6799 307.781 97.7196 307.571 97.7989C307.366 97.8736 307.186 97.9599 307.032 98.0579C306.883 98.1512 306.752 98.2376 306.64 98.3169C306.533 98.3916 306.426 98.4289 306.318 98.4289C306.234 98.4289 306.162 98.4079 306.101 98.3659C306.041 98.3192 305.989 98.2632 305.947 98.1979L305.723 97.7989ZM314.047 98.2189C314.271 97.7336 314.547 97.3556 314.873 97.0849C315.2 96.8096 315.599 96.6719 316.07 96.6719C316.22 96.6719 316.362 96.6882 316.497 96.7209C316.637 96.7536 316.761 96.8049 316.868 96.8749L316.777 97.8059C316.749 97.9226 316.679 97.9809 316.567 97.9809C316.502 97.9809 316.406 97.9669 316.28 97.9389C316.154 97.9109 316.012 97.8969 315.853 97.8969C315.629 97.8969 315.429 97.9296 315.251 97.9949C315.079 98.0602 314.922 98.1582 314.782 98.2889C314.647 98.4149 314.523 98.5736 314.411 98.7649C314.304 98.9516 314.206 99.1662 314.117 99.4089V103.889H312.864V96.7979H313.578C313.714 96.7979 313.807 96.8236 313.858 96.8749C313.91 96.9262 313.945 97.0149 313.963 97.1409L314.047 98.2189ZM320.141 104.001C319.581 104.001 319.149 103.845 318.846 103.532C318.547 103.219 318.398 102.769 318.398 102.181V97.8409H317.544C317.469 97.8409 317.406 97.8199 317.355 97.7779C317.303 97.7312 317.278 97.6612 317.278 97.5679V97.0709L318.44 96.9239L318.727 94.7329C318.741 94.6629 318.771 94.6069 318.818 94.5649C318.869 94.5182 318.934 94.4949 319.014 94.4949H319.644V96.9379H321.695V97.8409H319.644V102.097C319.644 102.396 319.716 102.617 319.861 102.762C320.005 102.907 320.192 102.979 320.421 102.979C320.551 102.979 320.663 102.963 320.757 102.93C320.855 102.893 320.939 102.853 321.009 102.811C321.079 102.769 321.137 102.732 321.184 102.699C321.235 102.662 321.279 102.643 321.317 102.643C321.382 102.643 321.44 102.683 321.492 102.762L321.856 103.357C321.641 103.558 321.382 103.716 321.079 103.833C320.775 103.945 320.463 104.001 320.141 104.001ZM326.486 96.5739C326.552 96.1166 326.678 95.7129 326.864 95.3629C327.051 95.0082 327.287 94.7119 327.571 94.4739C327.861 94.2359 328.19 94.0562 328.558 93.9349C328.932 93.8089 329.333 93.7459 329.762 93.7459C330.187 93.7459 330.579 93.8066 330.938 93.9279C331.298 94.0492 331.606 94.2219 331.862 94.4459C332.124 94.6699 332.327 94.9406 332.471 95.2579C332.616 95.5752 332.688 95.9276 332.688 96.3149C332.688 96.6322 332.646 96.9169 332.562 97.1689C332.483 97.4162 332.366 97.6332 332.212 97.8199C332.063 98.0066 331.881 98.1652 331.666 98.2959C331.452 98.4266 331.211 98.5339 330.945 98.6179C331.599 98.7859 332.089 99.0752 332.415 99.4859C332.747 99.8919 332.912 100.401 332.912 101.012C332.912 101.474 332.824 101.889 332.646 102.258C332.474 102.627 332.236 102.942 331.932 103.203C331.629 103.46 331.274 103.658 330.868 103.798C330.467 103.933 330.035 104.001 329.573 104.001C329.041 104.001 328.586 103.936 328.208 103.805C327.83 103.67 327.511 103.485 327.249 103.252C326.988 103.019 326.773 102.743 326.605 102.426C326.437 102.104 326.295 101.756 326.178 101.383L326.717 101.159C326.857 101.098 326.993 101.082 327.123 101.11C327.259 101.138 327.357 101.215 327.417 101.341C327.478 101.472 327.553 101.628 327.641 101.81C327.735 101.992 327.861 102.167 328.019 102.335C328.178 102.503 328.379 102.645 328.621 102.762C328.869 102.879 329.181 102.937 329.559 102.937C329.909 102.937 330.215 102.881 330.476 102.769C330.742 102.652 330.962 102.503 331.134 102.321C331.312 102.139 331.445 101.936 331.533 101.712C331.622 101.488 331.666 101.266 331.666 101.047C331.666 100.776 331.631 100.529 331.561 100.305C331.491 100.081 331.361 99.8872 331.169 99.7239C330.978 99.5606 330.714 99.4322 330.378 99.3389C330.047 99.2456 329.62 99.1989 329.097 99.1989V98.2959C329.527 98.2912 329.891 98.2446 330.189 98.1559C330.493 98.0672 330.738 97.9459 330.924 97.7919C331.116 97.6379 331.253 97.4536 331.337 97.2389C331.426 97.0242 331.47 96.7862 331.47 96.5249C331.47 96.2356 331.424 95.9836 331.33 95.7689C331.242 95.5542 331.118 95.3769 330.959 95.2369C330.801 95.0969 330.612 94.9919 330.392 94.9219C330.178 94.8519 329.944 94.8169 329.692 94.8169C329.44 94.8169 329.205 94.8542 328.985 94.9289C328.771 95.0036 328.579 95.1086 328.411 95.2439C328.248 95.3746 328.11 95.5309 327.998 95.7129C327.886 95.8949 327.807 96.0956 327.76 96.3149C327.7 96.4782 327.623 96.5879 327.529 96.6439C327.441 96.6952 327.31 96.7092 327.137 96.6859L326.486 96.5739Z" fill="white"/>
<rect x="359.49" y="80.2745" width="96.5621" height="37.2288" rx="18.6144" fill="#0080D1"/>
<path d="M386.446 101.383L390.721 97.1076L389.934 96.3389L386.502 99.7701L384.609 97.8764L383.784 98.7014L386.446 101.383ZM387.271 106.37C385.521 105.933 384.084 104.917 382.959 103.323C381.834 101.729 381.271 99.9826 381.271 98.0826V93.6201L387.271 91.3701L393.271 93.6201V98.0826C393.271 99.9826 392.709 101.729 391.584 103.323C390.459 104.917 389.021 105.933 387.271 106.37ZM387.271 105.208C388.709 104.733 389.881 103.836 390.787 102.517C391.693 101.198 392.146 99.7201 392.146 98.0826V94.4076L387.271 92.5701L382.396 94.4076V98.0826C382.396 99.7201 382.849 101.198 383.756 102.517C384.662 103.836 385.834 104.733 387.271 105.208Z" fill="white" stroke="white" stroke-width="0.2"/>
<path d="M404.513 99.0589C404.901 99.0589 405.241 99.0076 405.535 98.9049C405.834 98.8022 406.084 98.6599 406.284 98.4779C406.49 98.2912 406.644 98.0696 406.746 97.8129C406.849 97.5562 406.9 97.2739 406.9 96.9659C406.9 96.3266 406.702 95.8272 406.305 95.4679C405.913 95.1086 405.316 94.9289 404.513 94.9289H402.903V99.0589H404.513ZM404.513 93.8579C405.148 93.8579 405.699 93.9326 406.165 94.0819C406.637 94.2266 407.026 94.4342 407.334 94.7049C407.642 94.9756 407.871 95.3022 408.02 95.6849C408.174 96.0676 408.251 96.4946 408.251 96.9659C408.251 97.4326 408.17 97.8596 408.006 98.2469C407.843 98.6342 407.603 98.9679 407.285 99.2479C406.973 99.5279 406.583 99.7472 406.116 99.9059C405.654 100.06 405.12 100.137 404.513 100.137H402.903V103.889H401.552V93.8579H404.513ZM413.291 100.697C412.717 100.716 412.227 100.762 411.821 100.837C411.419 100.907 411.09 101 410.834 101.117C410.582 101.234 410.397 101.371 410.281 101.53C410.169 101.689 410.113 101.866 410.113 102.062C410.113 102.249 410.143 102.41 410.204 102.545C410.264 102.68 410.346 102.792 410.449 102.881C410.556 102.965 410.68 103.028 410.82 103.07C410.964 103.107 411.118 103.126 411.282 103.126C411.501 103.126 411.702 103.105 411.884 103.063C412.066 103.016 412.236 102.951 412.395 102.867C412.558 102.783 412.712 102.683 412.857 102.566C413.006 102.449 413.151 102.316 413.291 102.167V100.697ZM409.266 97.7989C409.658 97.4209 410.08 97.1386 410.533 96.9519C410.985 96.7652 411.487 96.6719 412.038 96.6719C412.434 96.6719 412.787 96.7372 413.095 96.8679C413.403 96.9986 413.662 97.1806 413.872 97.4139C414.082 97.6472 414.24 97.9296 414.348 98.2609C414.455 98.5922 414.509 98.9562 414.509 99.3529V103.889H413.956C413.834 103.889 413.741 103.87 413.676 103.833C413.61 103.791 413.559 103.712 413.522 103.595L413.382 102.923C413.195 103.096 413.013 103.25 412.836 103.385C412.658 103.516 412.472 103.628 412.276 103.721C412.08 103.81 411.87 103.877 411.646 103.924C411.426 103.975 411.181 104.001 410.911 104.001C410.635 104.001 410.376 103.964 410.134 103.889C409.891 103.81 409.679 103.693 409.497 103.539C409.319 103.385 409.177 103.191 409.07 102.958C408.967 102.72 408.916 102.44 408.916 102.118C408.916 101.838 408.993 101.57 409.147 101.313C409.301 101.052 409.55 100.821 409.896 100.62C410.241 100.419 410.691 100.256 411.247 100.13C411.802 99.9992 412.483 99.9246 413.291 99.9059V99.3529C413.291 98.8022 413.172 98.3869 412.934 98.1069C412.696 97.8222 412.348 97.6799 411.891 97.6799C411.583 97.6799 411.324 97.7196 411.114 97.7989C410.908 97.8736 410.729 97.9599 410.575 98.0579C410.425 98.1512 410.295 98.2376 410.183 98.3169C410.075 98.3916 409.968 98.4289 409.861 98.4289C409.777 98.4289 409.704 98.4079 409.644 98.3659C409.583 98.3192 409.532 98.2632 409.49 98.1979L409.266 97.7989ZM417.59 98.2189C417.814 97.7336 418.089 97.3556 418.416 97.0849C418.742 96.8096 419.141 96.6719 419.613 96.6719C419.762 96.6719 419.904 96.6882 420.04 96.7209C420.18 96.7536 420.303 96.8049 420.411 96.8749L420.32 97.8059C420.292 97.9226 420.222 97.9809 420.11 97.9809C420.044 97.9809 419.949 97.9669 419.823 97.9389C419.697 97.9109 419.554 97.8969 419.396 97.8969C419.172 97.8969 418.971 97.9296 418.794 97.9949C418.621 98.0602 418.465 98.1582 418.325 98.2889C418.189 98.4149 418.066 98.5736 417.954 98.7649C417.846 98.9516 417.748 99.1662 417.66 99.4089V103.889H416.407V96.7979H417.121C417.256 96.7979 417.349 96.8236 417.401 96.8749C417.452 96.9262 417.487 97.0149 417.506 97.1409L417.59 98.2189ZM423.683 104.001C423.123 104.001 422.692 103.845 422.388 103.532C422.09 103.219 421.94 102.769 421.94 102.181V97.8409H421.086C421.012 97.8409 420.949 97.8199 420.897 97.7779C420.846 97.7312 420.82 97.6612 420.82 97.5679V97.0709L421.982 96.9239L422.269 94.7329C422.283 94.6629 422.314 94.6069 422.36 94.5649C422.412 94.5182 422.477 94.4949 422.556 94.4949H423.186V96.9379H425.237V97.8409H423.186V102.097C423.186 102.396 423.259 102.617 423.403 102.762C423.548 102.907 423.735 102.979 423.963 102.979C424.094 102.979 424.206 102.963 424.299 102.93C424.397 102.893 424.481 102.853 424.551 102.811C424.621 102.769 424.68 102.732 424.726 102.699C424.778 102.662 424.822 102.643 424.859 102.643C424.925 102.643 424.983 102.683 425.034 102.762L425.398 103.357C425.184 103.558 424.925 103.716 424.621 103.833C424.318 103.945 424.005 104.001 423.683 104.001ZM434.229 100.27V96.1329C434.229 96.0116 434.234 95.8786 434.243 95.7339C434.252 95.5892 434.266 95.4422 434.285 95.2929L430.631 100.27H434.229ZM436.84 100.27V100.984C436.84 101.059 436.817 101.122 436.77 101.173C436.728 101.224 436.66 101.25 436.567 101.25H435.321V103.889H434.229V101.25H429.777C429.684 101.25 429.602 101.224 429.532 101.173C429.467 101.117 429.425 101.049 429.406 100.97L429.28 100.333L434.159 93.8579H435.321V100.27H436.84Z" fill="white"/>
<rect x="152.405" y="126.811" width="303.647" height="23.268" rx="11.634" fill="#1565C0"/>
<path d="M258.383 140.253L257.033 136.755C256.993 136.651 256.951 136.531 256.907 136.395C256.863 136.255 256.821 136.107 256.781 135.951C256.697 136.275 256.611 136.545 256.523 136.761L255.173 140.253H258.383ZM260.807 143.445H259.907C259.803 143.445 259.719 143.419 259.655 143.367C259.591 143.315 259.543 143.249 259.511 143.169L258.707 141.093H254.849L254.045 143.169C254.021 143.241 253.975 143.305 253.907 143.361C253.839 143.417 253.755 143.445 253.655 143.445H252.755L256.193 134.847H257.369L260.807 143.445ZM266.414 137.367L263.936 143.445H262.976L260.498 137.367H261.368C261.456 137.367 261.528 137.389 261.584 137.433C261.64 137.477 261.678 137.529 261.698 137.589L263.24 141.501C263.288 141.649 263.33 141.793 263.366 141.933C263.402 142.073 263.436 142.213 263.468 142.353C263.5 142.213 263.534 142.073 263.57 141.933C263.606 141.793 263.65 141.649 263.702 141.501L265.262 137.589C265.286 137.525 265.326 137.473 265.382 137.433C265.438 137.389 265.504 137.367 265.58 137.367H266.414ZM270.558 140.709C270.066 140.725 269.646 140.765 269.298 140.829C268.954 140.889 268.672 140.969 268.452 141.069C268.236 141.169 268.078 141.287 267.978 141.423C267.882 141.559 267.834 141.711 267.834 141.879C267.834 142.039 267.86 142.177 267.912 142.293C267.964 142.409 268.034 142.505 268.122 142.581C268.214 142.653 268.32 142.707 268.44 142.743C268.564 142.775 268.696 142.791 268.836 142.791C269.024 142.791 269.196 142.773 269.352 142.737C269.508 142.697 269.654 142.641 269.79 142.569C269.93 142.497 270.062 142.411 270.186 142.311C270.314 142.211 270.438 142.097 270.558 141.969V140.709ZM267.108 138.225C267.444 137.901 267.806 137.659 268.194 137.499C268.582 137.339 269.012 137.259 269.484 137.259C269.824 137.259 270.126 137.315 270.39 137.427C270.654 137.539 270.876 137.695 271.056 137.895C271.236 138.095 271.372 138.337 271.464 138.621C271.556 138.905 271.602 139.217 271.602 139.557V143.445H271.128C271.024 143.445 270.944 143.429 270.888 143.397C270.832 143.361 270.788 143.293 270.756 143.193L270.636 142.617C270.476 142.765 270.32 142.897 270.168 143.013C270.016 143.125 269.856 143.221 269.688 143.301C269.52 143.377 269.34 143.435 269.148 143.475C268.96 143.519 268.75 143.541 268.518 143.541C268.282 143.541 268.06 143.509 267.852 143.445C267.644 143.377 267.462 143.277 267.306 143.145C267.154 143.013 267.032 142.847 266.94 142.647C266.852 142.443 266.808 142.203 266.808 141.927C266.808 141.687 266.874 141.457 267.006 141.237C267.138 141.013 267.352 140.815 267.648 140.643C267.944 140.471 268.33 140.331 268.806 140.223C269.282 140.111 269.866 140.047 270.558 140.031V139.557C270.558 139.085 270.456 138.729 270.252 138.489C270.048 138.245 269.75 138.123 269.358 138.123C269.094 138.123 268.872 138.157 268.692 138.225C268.516 138.289 268.362 138.363 268.23 138.447C268.102 138.527 267.99 138.601 267.894 138.669C267.802 138.733 267.71 138.765 267.618 138.765C267.546 138.765 267.484 138.747 267.432 138.711C267.38 138.671 267.336 138.623 267.3 138.567L267.108 138.225ZM274.357 137.367V143.445H273.289V137.367H274.357ZM274.585 135.459C274.585 135.563 274.563 135.661 274.519 135.753C274.479 135.841 274.423 135.921 274.351 135.993C274.283 136.061 274.201 136.115 274.105 136.155C274.013 136.195 273.915 136.215 273.811 136.215C273.707 136.215 273.609 136.195 273.517 136.155C273.429 136.115 273.351 136.061 273.283 135.993C273.215 135.921 273.161 135.841 273.121 135.753C273.081 135.661 273.061 135.563 273.061 135.459C273.061 135.355 273.081 135.257 273.121 135.165C273.161 135.069 273.215 134.987 273.283 134.919C273.351 134.847 273.429 134.791 273.517 134.751C273.609 134.711 273.707 134.691 273.811 134.691C273.915 134.691 274.013 134.711 274.105 134.751C274.201 134.791 274.283 134.847 274.351 134.919C274.423 134.987 274.479 135.069 274.519 135.165C274.563 135.257 274.585 135.355 274.585 135.459ZM277.216 134.607V143.445H276.148V134.607H277.216ZM282.242 140.709C281.75 140.725 281.33 140.765 280.982 140.829C280.638 140.889 280.356 140.969 280.136 141.069C279.92 141.169 279.762 141.287 279.662 141.423C279.566 141.559 279.518 141.711 279.518 141.879C279.518 142.039 279.544 142.177 279.596 142.293C279.648 142.409 279.718 142.505 279.806 142.581C279.898 142.653 280.004 142.707 280.124 142.743C280.248 142.775 280.38 142.791 280.52 142.791C280.708 142.791 280.88 142.773 281.036 142.737C281.192 142.697 281.338 142.641 281.474 142.569C281.614 142.497 281.746 142.411 281.87 142.311C281.998 142.211 282.122 142.097 282.242 141.969V140.709ZM278.792 138.225C279.128 137.901 279.49 137.659 279.878 137.499C280.266 137.339 280.696 137.259 281.168 137.259C281.508 137.259 281.81 137.315 282.074 137.427C282.338 137.539 282.56 137.695 282.74 137.895C282.92 138.095 283.056 138.337 283.148 138.621C283.24 138.905 283.286 139.217 283.286 139.557V143.445H282.812C282.708 143.445 282.628 143.429 282.572 143.397C282.516 143.361 282.472 143.293 282.44 143.193L282.32 142.617C282.16 142.765 282.004 142.897 281.852 143.013C281.7 143.125 281.54 143.221 281.372 143.301C281.204 143.377 281.024 143.435 280.832 143.475C280.644 143.519 280.434 143.541 280.202 143.541C279.966 143.541 279.744 143.509 279.536 143.445C279.328 143.377 279.146 143.277 278.99 143.145C278.838 143.013 278.716 142.847 278.624 142.647C278.536 142.443 278.492 142.203 278.492 141.927C278.492 141.687 278.558 141.457 278.69 141.237C278.822 141.013 279.036 140.815 279.332 140.643C279.628 140.471 280.014 140.331 280.49 140.223C280.966 140.111 281.55 140.047 282.242 140.031V139.557C282.242 139.085 282.14 138.729 281.936 138.489C281.732 138.245 281.434 138.123 281.042 138.123C280.778 138.123 280.556 138.157 280.376 138.225C280.2 138.289 280.046 138.363 279.914 138.447C279.786 138.527 279.674 138.601 279.578 138.669C279.486 138.733 279.394 138.765 279.302 138.765C279.23 138.765 279.168 138.747 279.116 138.711C279.064 138.671 279.02 138.623 278.984 138.567L278.792 138.225ZM285.987 141.981C286.183 142.245 286.397 142.431 286.629 142.539C286.865 142.647 287.123 142.701 287.403 142.701C287.975 142.701 288.413 142.499 288.717 142.095C289.021 141.691 289.173 141.089 289.173 140.289C289.173 139.545 289.037 138.999 288.765 138.651C288.497 138.299 288.113 138.123 287.613 138.123C287.265 138.123 286.961 138.203 286.701 138.363C286.445 138.523 286.207 138.749 285.987 139.041V141.981ZM285.987 138.243C286.243 137.947 286.531 137.711 286.851 137.535C287.175 137.359 287.547 137.271 287.967 137.271C288.323 137.271 288.643 137.339 288.927 137.475C289.215 137.611 289.459 137.809 289.659 138.069C289.859 138.325 290.011 138.637 290.115 139.005C290.223 139.373 290.277 139.787 290.277 140.247C290.277 140.739 290.217 141.187 290.097 141.591C289.977 141.995 289.803 142.341 289.575 142.629C289.351 142.913 289.077 143.135 288.753 143.295C288.429 143.451 288.065 143.529 287.661 143.529C287.261 143.529 286.923 143.455 286.647 143.307C286.375 143.155 286.137 142.941 285.933 142.665L285.879 143.217C285.847 143.369 285.755 143.445 285.603 143.445H284.913V134.607H285.987V138.243ZM292.731 134.607V143.445H291.663V134.607H292.731ZM298.531 139.743C298.531 139.495 298.495 139.269 298.423 139.065C298.355 138.857 298.253 138.679 298.117 138.531C297.985 138.379 297.823 138.263 297.631 138.183C297.439 138.099 297.221 138.057 296.977 138.057C296.465 138.057 296.059 138.207 295.759 138.507C295.463 138.803 295.279 139.215 295.207 139.743H298.531ZM299.395 142.593C299.263 142.753 299.105 142.893 298.921 143.013C298.737 143.129 298.539 143.225 298.327 143.301C298.119 143.377 297.903 143.433 297.679 143.469C297.455 143.509 297.233 143.529 297.013 143.529C296.593 143.529 296.205 143.459 295.849 143.319C295.497 143.175 295.191 142.967 294.931 142.695C294.675 142.419 294.475 142.079 294.331 141.675C294.187 141.271 294.115 140.807 294.115 140.283C294.115 139.859 294.179 139.463 294.307 139.095C294.439 138.727 294.627 138.409 294.871 138.141C295.115 137.869 295.413 137.657 295.765 137.505C296.117 137.349 296.513 137.271 296.953 137.271C297.317 137.271 297.653 137.333 297.961 137.457C298.273 137.577 298.541 137.753 298.765 137.985C298.993 138.213 299.171 138.497 299.299 138.837C299.427 139.173 299.491 139.557 299.491 139.989C299.491 140.157 299.473 140.269 299.437 140.325C299.401 140.381 299.333 140.409 299.233 140.409H295.171C295.183 140.793 295.235 141.127 295.327 141.411C295.423 141.695 295.555 141.933 295.723 142.125C295.891 142.313 296.091 142.455 296.323 142.551C296.555 142.643 296.815 142.689 297.103 142.689C297.371 142.689 297.601 142.659 297.793 142.599C297.989 142.535 298.157 142.467 298.297 142.395C298.437 142.323 298.553 142.257 298.645 142.197C298.741 142.133 298.823 142.101 298.891 142.101C298.979 142.101 299.047 142.135 299.095 142.203L299.395 142.593ZM304.27 143.445V138.279L303.598 138.201C303.514 138.181 303.444 138.151 303.388 138.111C303.336 138.067 303.31 138.005 303.31 137.925V137.487H304.27V136.899C304.27 136.551 304.318 136.243 304.414 135.975C304.514 135.703 304.654 135.475 304.834 135.291C305.018 135.103 305.238 134.961 305.494 134.865C305.75 134.769 306.038 134.721 306.358 134.721C306.63 134.721 306.88 134.761 307.108 134.841L307.084 135.375C307.076 135.471 307.022 135.523 306.922 135.531C306.826 135.539 306.696 135.543 306.532 135.543C306.348 135.543 306.18 135.567 306.028 135.615C305.88 135.663 305.752 135.741 305.644 135.849C305.536 135.957 305.452 136.099 305.392 136.275C305.336 136.451 305.308 136.669 305.308 136.929V137.487H307.06V138.261H305.344V143.445H304.27ZM310.443 137.271C310.887 137.271 311.287 137.345 311.643 137.493C311.999 137.641 312.303 137.851 312.555 138.123C312.807 138.395 312.999 138.725 313.131 139.113C313.267 139.497 313.335 139.927 313.335 140.403C313.335 140.883 313.267 141.315 313.131 141.699C312.999 142.083 312.807 142.411 312.555 142.683C312.303 142.955 311.999 143.165 311.643 143.313C311.287 143.457 310.887 143.529 310.443 143.529C309.995 143.529 309.591 143.457 309.231 143.313C308.875 143.165 308.571 142.955 308.319 142.683C308.067 142.411 307.873 142.083 307.737 141.699C307.605 141.315 307.539 140.883 307.539 140.403C307.539 139.927 307.605 139.497 307.737 139.113C307.873 138.725 308.067 138.395 308.319 138.123C308.571 137.851 308.875 137.641 309.231 137.493C309.591 137.345 309.995 137.271 310.443 137.271ZM310.443 142.695C311.043 142.695 311.491 142.495 311.787 142.095C312.083 141.691 312.231 141.129 312.231 140.409C312.231 139.685 312.083 139.121 311.787 138.717C311.491 138.313 311.043 138.111 310.443 138.111C310.139 138.111 309.873 138.163 309.645 138.267C309.421 138.371 309.233 138.521 309.081 138.717C308.933 138.913 308.821 139.155 308.745 139.443C308.673 139.727 308.637 140.049 308.637 140.409C308.637 141.129 308.785 141.691 309.081 142.095C309.381 142.495 309.835 142.695 310.443 142.695ZM315.704 138.585C315.896 138.169 316.132 137.845 316.412 137.613C316.692 137.377 317.034 137.259 317.438 137.259C317.566 137.259 317.688 137.273 317.804 137.301C317.924 137.329 318.03 137.373 318.122 137.433L318.044 138.231C318.02 138.331 317.96 138.381 317.864 138.381C317.808 138.381 317.726 138.369 317.618 138.345C317.51 138.321 317.388 138.309 317.252 138.309C317.06 138.309 316.888 138.337 316.736 138.393C316.588 138.449 316.454 138.533 316.334 138.645C316.218 138.753 316.112 138.889 316.016 139.053C315.924 139.213 315.84 139.397 315.764 139.605V143.445H314.69V137.367H315.302C315.418 137.367 315.498 137.389 315.542 137.433C315.586 137.477 315.616 137.553 315.632 137.661L315.704 138.585ZM322.888 138.585C323.08 138.169 323.316 137.845 323.596 137.613C323.876 137.377 324.218 137.259 324.622 137.259C324.75 137.259 324.872 137.273 324.988 137.301C325.108 137.329 325.214 137.373 325.306 137.433L325.228 138.231C325.204 138.331 325.144 138.381 325.048 138.381C324.992 138.381 324.91 138.369 324.802 138.345C324.694 138.321 324.572 138.309 324.436 138.309C324.244 138.309 324.072 138.337 323.92 138.393C323.772 138.449 323.638 138.533 323.518 138.645C323.402 138.753 323.296 138.889 323.2 139.053C323.108 139.213 323.024 139.397 322.948 139.605V143.445H321.874V137.367H322.486C322.602 137.367 322.682 137.389 322.726 137.433C322.77 137.477 322.8 137.553 322.816 137.661L322.888 138.585ZM330.067 139.743C330.067 139.495 330.031 139.269 329.959 139.065C329.891 138.857 329.789 138.679 329.653 138.531C329.521 138.379 329.359 138.263 329.167 138.183C328.975 138.099 328.757 138.057 328.513 138.057C328.001 138.057 327.595 138.207 327.295 138.507C326.999 138.803 326.815 139.215 326.743 139.743H330.067ZM330.931 142.593C330.799 142.753 330.641 142.893 330.457 143.013C330.273 143.129 330.075 143.225 329.863 143.301C329.655 143.377 329.439 143.433 329.215 143.469C328.991 143.509 328.769 143.529 328.549 143.529C328.129 143.529 327.741 143.459 327.385 143.319C327.033 143.175 326.727 142.967 326.467 142.695C326.211 142.419 326.011 142.079 325.867 141.675C325.723 141.271 325.651 140.807 325.651 140.283C325.651 139.859 325.715 139.463 325.843 139.095C325.975 138.727 326.163 138.409 326.407 138.141C326.651 137.869 326.949 137.657 327.301 137.505C327.653 137.349 328.049 137.271 328.489 137.271C328.853 137.271 329.189 137.333 329.497 137.457C329.809 137.577 330.077 137.753 330.301 137.985C330.529 138.213 330.707 138.497 330.835 138.837C330.963 139.173 331.027 139.557 331.027 139.989C331.027 140.157 331.009 140.269 330.973 140.325C330.937 140.381 330.869 140.409 330.769 140.409H326.707C326.719 140.793 326.771 141.127 326.863 141.411C326.959 141.695 327.091 141.933 327.259 142.125C327.427 142.313 327.627 142.455 327.859 142.551C328.091 142.643 328.351 142.689 328.639 142.689C328.907 142.689 329.137 142.659 329.329 142.599C329.525 142.535 329.693 142.467 329.833 142.395C329.973 142.323 330.089 142.257 330.181 142.197C330.277 142.133 330.359 142.101 330.427 142.101C330.515 142.101 330.583 142.135 330.631 142.203L330.931 142.593ZM332.676 143.445V138.279L332.004 138.201C331.92 138.181 331.85 138.151 331.794 138.111C331.742 138.067 331.716 138.005 331.716 137.925V137.487H332.676V136.899C332.676 136.551 332.724 136.243 332.82 135.975C332.92 135.703 333.06 135.475 333.24 135.291C333.424 135.103 333.644 134.961 333.9 134.865C334.156 134.769 334.444 134.721 334.764 134.721C335.036 134.721 335.286 134.761 335.514 134.841L335.49 135.375C335.482 135.471 335.428 135.523 335.328 135.531C335.232 135.539 335.102 135.543 334.938 135.543C334.754 135.543 334.586 135.567 334.434 135.615C334.286 135.663 334.158 135.741 334.05 135.849C333.942 135.957 333.858 136.099 333.798 136.275C333.742 136.451 333.714 136.669 333.714 136.929V137.487H335.466V138.261H333.75V143.445H332.676ZM341.485 137.367V143.445H340.849C340.697 143.445 340.601 143.371 340.561 143.223L340.477 142.569C340.213 142.861 339.917 143.097 339.589 143.277C339.261 143.453 338.885 143.541 338.461 143.541C338.129 143.541 337.835 143.487 337.579 143.379C337.327 143.267 337.115 143.111 336.943 142.911C336.771 142.711 336.641 142.469 336.553 142.185C336.469 141.901 336.427 141.587 336.427 141.243V137.367H337.495V141.243C337.495 141.703 337.599 142.059 337.807 142.311C338.019 142.563 338.341 142.689 338.773 142.689C339.089 142.689 339.383 142.615 339.655 142.467C339.931 142.315 340.185 142.107 340.417 141.843V137.367H341.485ZM344.186 138.249C344.318 138.101 344.458 137.967 344.606 137.847C344.754 137.727 344.91 137.625 345.074 137.541C345.242 137.453 345.418 137.387 345.602 137.343C345.79 137.295 345.992 137.271 346.208 137.271C346.54 137.271 346.832 137.327 347.084 137.439C347.34 137.547 347.552 137.703 347.72 137.907C347.892 138.107 348.022 138.349 348.11 138.633C348.198 138.917 348.242 139.231 348.242 139.575V143.445H347.168V139.575C347.168 139.115 347.062 138.759 346.85 138.507C346.642 138.251 346.324 138.123 345.896 138.123C345.58 138.123 345.284 138.199 345.008 138.351C344.736 138.503 344.484 138.709 344.252 138.969V143.445H343.178V137.367H343.82C343.972 137.367 344.066 137.441 344.102 137.589L344.186 138.249ZM353.83 138.813C353.63 138.545 353.414 138.359 353.182 138.255C352.95 138.147 352.69 138.093 352.402 138.093C351.838 138.093 351.404 138.295 351.1 138.699C350.796 139.103 350.644 139.679 350.644 140.427C350.644 140.823 350.678 141.163 350.746 141.447C350.814 141.727 350.914 141.959 351.046 142.143C351.178 142.323 351.34 142.455 351.532 142.539C351.724 142.623 351.942 142.665 352.186 142.665C352.538 142.665 352.844 142.585 353.104 142.425C353.368 142.265 353.61 142.039 353.83 141.747V138.813ZM354.898 134.607V143.445H354.262C354.11 143.445 354.014 143.371 353.974 143.223L353.878 142.485C353.618 142.797 353.322 143.049 352.99 143.241C352.658 143.433 352.274 143.529 351.838 143.529C351.49 143.529 351.174 143.463 350.89 143.331C350.606 143.195 350.364 142.997 350.164 142.737C349.964 142.477 349.81 142.153 349.702 141.765C349.594 141.377 349.54 140.931 349.54 140.427C349.54 139.979 349.6 139.563 349.72 139.179C349.84 138.791 350.012 138.455 350.236 138.171C350.46 137.887 350.734 137.665 351.058 137.505C351.386 137.341 351.754 137.259 352.162 137.259C352.534 137.259 352.852 137.323 353.116 137.451C353.384 137.575 353.622 137.749 353.83 137.973V134.607H354.898Z" fill="#DAE6F2"/>
<rect y="126.811" width="133.791" height="23.268" rx="11.634" fill="#004695"/>
<path d="M22.6333 139.011C22.9693 139.011 23.2653 138.971 23.5213 138.891C23.7813 138.807 23.9973 138.691 24.1693 138.543C24.3453 138.391 24.4773 138.211 24.5653 138.003C24.6533 137.795 24.6973 137.565 24.6973 137.313C24.6973 136.801 24.5293 136.415 24.1933 136.155C23.8573 135.895 23.3533 135.765 22.6813 135.765H21.4093V139.011H22.6333ZM26.6053 143.445H25.5733C25.3613 143.445 25.2053 143.363 25.1053 143.199L22.8733 140.127C22.8053 140.031 22.7313 139.963 22.6513 139.923C22.5753 139.879 22.4553 139.857 22.2913 139.857H21.4093V143.445H20.2513V134.847H22.6813C23.2253 134.847 23.6953 134.903 24.0913 135.015C24.4873 135.123 24.8133 135.281 25.0693 135.489C25.3293 135.697 25.5213 135.949 25.6453 136.245C25.7693 136.537 25.8313 136.865 25.8313 137.229C25.8313 137.533 25.7833 137.817 25.6873 138.081C25.5913 138.345 25.4513 138.583 25.2673 138.795C25.0873 139.003 24.8653 139.181 24.6013 139.329C24.3413 139.477 24.0453 139.589 23.7133 139.665C23.8613 139.749 23.9893 139.871 24.0973 140.031L26.6053 143.445ZM31.204 139.743C31.204 139.495 31.168 139.269 31.096 139.065C31.028 138.857 30.926 138.679 30.79 138.531C30.658 138.379 30.496 138.263 30.304 138.183C30.112 138.099 29.894 138.057 29.65 138.057C29.138 138.057 28.732 138.207 28.432 138.507C28.136 138.803 27.952 139.215 27.88 139.743H31.204ZM32.068 142.593C31.936 142.753 31.778 142.893 31.594 143.013C31.41 143.129 31.212 143.225 31 143.301C30.792 143.377 30.576 143.433 30.352 143.469C30.128 143.509 29.906 143.529 29.686 143.529C29.266 143.529 28.878 143.459 28.522 143.319C28.17 143.175 27.864 142.967 27.604 142.695C27.348 142.419 27.148 142.079 27.004 141.675C26.86 141.271 26.788 140.807 26.788 140.283C26.788 139.859 26.852 139.463 26.98 139.095C27.112 138.727 27.3 138.409 27.544 138.141C27.788 137.869 28.086 137.657 28.438 137.505C28.79 137.349 29.186 137.271 29.626 137.271C29.99 137.271 30.326 137.333 30.634 137.457C30.946 137.577 31.214 137.753 31.438 137.985C31.666 138.213 31.844 138.497 31.972 138.837C32.1 139.173 32.164 139.557 32.164 139.989C32.164 140.157 32.146 140.269 32.11 140.325C32.074 140.381 32.006 140.409 31.906 140.409H27.844C27.856 140.793 27.908 141.127 28 141.411C28.096 141.695 28.228 141.933 28.396 142.125C28.564 142.313 28.764 142.455 28.996 142.551C29.228 142.643 29.488 142.689 29.776 142.689C30.044 142.689 30.274 142.659 30.466 142.599C30.662 142.535 30.83 142.467 30.97 142.395C31.11 142.323 31.226 142.257 31.318 142.197C31.414 142.133 31.496 142.101 31.564 142.101C31.652 142.101 31.72 142.135 31.768 142.203L32.068 142.593ZM34.5799 134.607V143.445H33.5119V134.607H34.5799ZM40.3798 139.743C40.3798 139.495 40.3438 139.269 40.2718 139.065C40.2038 138.857 40.1018 138.679 39.9658 138.531C39.8338 138.379 39.6718 138.263 39.4798 138.183C39.2878 138.099 39.0698 138.057 38.8258 138.057C38.3138 138.057 37.9078 138.207 37.6078 138.507C37.3118 138.803 37.1278 139.215 37.0558 139.743H40.3798ZM41.2438 142.593C41.1118 142.753 40.9538 142.893 40.7698 143.013C40.5858 143.129 40.3878 143.225 40.1758 143.301C39.9678 143.377 39.7518 143.433 39.5278 143.469C39.3038 143.509 39.0818 143.529 38.8618 143.529C38.4418 143.529 38.0538 143.459 37.6978 143.319C37.3458 143.175 37.0398 142.967 36.7798 142.695C36.5238 142.419 36.3238 142.079 36.1798 141.675C36.0358 141.271 35.9638 140.807 35.9638 140.283C35.9638 139.859 36.0278 139.463 36.1558 139.095C36.2878 138.727 36.4758 138.409 36.7198 138.141C36.9638 137.869 37.2618 137.657 37.6138 137.505C37.9658 137.349 38.3618 137.271 38.8018 137.271C39.1658 137.271 39.5018 137.333 39.8098 137.457C40.1218 137.577 40.3898 137.753 40.6138 137.985C40.8418 138.213 41.0198 138.497 41.1478 138.837C41.2758 139.173 41.3398 139.557 41.3398 139.989C41.3398 140.157 41.3218 140.269 41.2858 140.325C41.2498 140.381 41.1818 140.409 41.0818 140.409H37.0198C37.0318 140.793 37.0838 141.127 37.1758 141.411C37.2718 141.695 37.4038 141.933 37.5718 142.125C37.7398 142.313 37.9398 142.455 38.1718 142.551C38.4038 142.643 38.6638 142.689 38.9518 142.689C39.2198 142.689 39.4498 142.659 39.6418 142.599C39.8378 142.535 40.0058 142.467 40.1458 142.395C40.2858 142.323 40.4018 142.257 40.4938 142.197C40.5898 142.133 40.6718 142.101 40.7398 142.101C40.8278 142.101 40.8958 142.135 40.9438 142.203L41.2438 142.593ZM45.9457 140.709C45.4537 140.725 45.0337 140.765 44.6857 140.829C44.3417 140.889 44.0597 140.969 43.8397 141.069C43.6237 141.169 43.4657 141.287 43.3657 141.423C43.2697 141.559 43.2217 141.711 43.2217 141.879C43.2217 142.039 43.2477 142.177 43.2997 142.293C43.3517 142.409 43.4217 142.505 43.5097 142.581C43.6017 142.653 43.7077 142.707 43.8277 142.743C43.9517 142.775 44.0837 142.791 44.2237 142.791C44.4117 142.791 44.5837 142.773 44.7397 142.737C44.8957 142.697 45.0417 142.641 45.1777 142.569C45.3177 142.497 45.4497 142.411 45.5737 142.311C45.7017 142.211 45.8257 142.097 45.9457 141.969V140.709ZM42.4957 138.225C42.8317 137.901 43.1937 137.659 43.5817 137.499C43.9697 137.339 44.3997 137.259 44.8717 137.259C45.2117 137.259 45.5137 137.315 45.7777 137.427C46.0417 137.539 46.2637 137.695 46.4437 137.895C46.6237 138.095 46.7597 138.337 46.8517 138.621C46.9437 138.905 46.9897 139.217 46.9897 139.557V143.445H46.5157C46.4117 143.445 46.3317 143.429 46.2757 143.397C46.2197 143.361 46.1757 143.293 46.1437 143.193L46.0237 142.617C45.8637 142.765 45.7077 142.897 45.5557 143.013C45.4037 143.125 45.2437 143.221 45.0757 143.301C44.9077 143.377 44.7277 143.435 44.5357 143.475C44.3477 143.519 44.1377 143.541 43.9057 143.541C43.6697 143.541 43.4477 143.509 43.2397 143.445C43.0317 143.377 42.8497 143.277 42.6937 143.145C42.5417 143.013 42.4197 142.847 42.3277 142.647C42.2397 142.443 42.1957 142.203 42.1957 141.927C42.1957 141.687 42.2617 141.457 42.3937 141.237C42.5257 141.013 42.7397 140.815 43.0357 140.643C43.3317 140.471 43.7177 140.331 44.1937 140.223C44.6697 140.111 45.2537 140.047 45.9457 140.031V139.557C45.9457 139.085 45.8437 138.729 45.6397 138.489C45.4357 138.245 45.1377 138.123 44.7457 138.123C44.4817 138.123 44.2597 138.157 44.0797 138.225C43.9037 138.289 43.7497 138.363 43.6177 138.447C43.4897 138.527 43.3777 138.601 43.2817 138.669C43.1897 138.733 43.0977 138.765 43.0057 138.765C42.9337 138.765 42.8717 138.747 42.8197 138.711C42.7677 138.671 42.7237 138.623 42.6877 138.567L42.4957 138.225ZM52.1565 138.369C52.1085 138.457 52.0345 138.501 51.9345 138.501C51.8745 138.501 51.8065 138.479 51.7305 138.435C51.6545 138.391 51.5605 138.343 51.4485 138.291C51.3405 138.235 51.2105 138.185 51.0585 138.141C50.9065 138.093 50.7265 138.069 50.5185 138.069C50.3385 138.069 50.1765 138.093 50.0325 138.141C49.8885 138.185 49.7645 138.247 49.6605 138.327C49.5605 138.407 49.4825 138.501 49.4265 138.609C49.3745 138.713 49.3485 138.827 49.3485 138.951C49.3485 139.107 49.3925 139.237 49.4805 139.341C49.5725 139.445 49.6925 139.535 49.8405 139.611C49.9885 139.687 50.1565 139.755 50.3445 139.815C50.5325 139.871 50.7245 139.933 50.9205 140.001C51.1205 140.065 51.3145 140.137 51.5025 140.217C51.6905 140.297 51.8585 140.397 52.0065 140.517C52.1545 140.637 52.2725 140.785 52.3605 140.961C52.4525 141.133 52.4985 141.341 52.4985 141.585C52.4985 141.865 52.4485 142.125 52.3485 142.365C52.2485 142.601 52.1005 142.807 51.9045 142.983C51.7085 143.155 51.4685 143.291 51.1845 143.391C50.9005 143.491 50.5725 143.541 50.2005 143.541C49.7765 143.541 49.3925 143.473 49.0485 143.337C48.7045 143.197 48.4125 143.019 48.1725 142.803L48.4245 142.395C48.4565 142.343 48.4945 142.303 48.5385 142.275C48.5825 142.247 48.6385 142.233 48.7065 142.233C48.7785 142.233 48.8545 142.261 48.9345 142.317C49.0145 142.373 49.1105 142.435 49.2225 142.503C49.3385 142.571 49.4785 142.633 49.6425 142.689C49.8065 142.745 50.0105 142.773 50.2545 142.773C50.4625 142.773 50.6445 142.747 50.8005 142.695C50.9565 142.639 51.0865 142.565 51.1905 142.473C51.2945 142.381 51.3705 142.275 51.4185 142.155C51.4705 142.035 51.4965 141.907 51.4965 141.771C51.4965 141.603 51.4505 141.465 51.3585 141.357C51.2705 141.245 51.1525 141.151 51.0045 141.075C50.8565 140.995 50.6865 140.927 50.4945 140.871C50.3065 140.811 50.1125 140.749 49.9125 140.685C49.7165 140.621 49.5225 140.549 49.3305 140.469C49.1425 140.385 48.9745 140.281 48.8265 140.157C48.6785 140.033 48.5585 139.881 48.4665 139.701C48.3785 139.517 48.3345 139.295 48.3345 139.035C48.3345 138.803 48.3825 138.581 48.4785 138.369C48.5745 138.153 48.7145 137.965 48.8985 137.805C49.0825 137.641 49.3085 137.511 49.5765 137.415C49.8445 137.319 50.1505 137.271 50.4945 137.271C50.8945 137.271 51.2525 137.335 51.5685 137.463C51.8885 137.587 52.1645 137.759 52.3965 137.979L52.1565 138.369ZM57.8759 139.743C57.8759 139.495 57.8399 139.269 57.7679 139.065C57.6999 138.857 57.5979 138.679 57.4619 138.531C57.3299 138.379 57.1679 138.263 56.9759 138.183C56.7839 138.099 56.5659 138.057 56.3219 138.057C55.8099 138.057 55.4039 138.207 55.1039 138.507C54.8079 138.803 54.6239 139.215 54.5519 139.743H57.8759ZM58.7399 142.593C58.6079 142.753 58.4499 142.893 58.2659 143.013C58.0819 143.129 57.8839 143.225 57.6719 143.301C57.4639 143.377 57.2479 143.433 57.0239 143.469C56.7999 143.509 56.5779 143.529 56.3579 143.529C55.9379 143.529 55.5499 143.459 55.1939 143.319C54.8419 143.175 54.5359 142.967 54.2759 142.695C54.0199 142.419 53.8199 142.079 53.6759 141.675C53.5319 141.271 53.4599 140.807 53.4599 140.283C53.4599 139.859 53.5239 139.463 53.6519 139.095C53.7839 138.727 53.9719 138.409 54.2159 138.141C54.4599 137.869 54.7579 137.657 55.1099 137.505C55.4619 137.349 55.8579 137.271 56.2979 137.271C56.6619 137.271 56.9979 137.333 57.3059 137.457C57.6179 137.577 57.8859 137.753 58.1099 137.985C58.3379 138.213 58.5159 138.497 58.6439 138.837C58.7719 139.173 58.8359 139.557 58.8359 139.989C58.8359 140.157 58.8179 140.269 58.7819 140.325C58.7459 140.381 58.6779 140.409 58.5779 140.409H54.5159C54.5279 140.793 54.5799 141.127 54.6719 141.411C54.7679 141.695 54.8999 141.933 55.0679 142.125C55.2359 142.313 55.4359 142.455 55.6679 142.551C55.8999 142.643 56.1599 142.689 56.4479 142.689C56.7159 142.689 56.9459 142.659 57.1379 142.599C57.3339 142.535 57.5019 142.467 57.6419 142.395C57.7819 142.323 57.8979 142.257 57.9899 142.197C58.0859 142.133 58.1679 142.101 58.2359 142.101C58.3239 142.101 58.3919 142.135 58.4399 142.203L58.7399 142.593ZM64.1078 138.813C63.9078 138.545 63.6918 138.359 63.4598 138.255C63.2278 138.147 62.9678 138.093 62.6798 138.093C62.1158 138.093 61.6818 138.295 61.3778 138.699C61.0738 139.103 60.9218 139.679 60.9218 140.427C60.9218 140.823 60.9558 141.163 61.0238 141.447C61.0918 141.727 61.1918 141.959 61.3238 142.143C61.4558 142.323 61.6178 142.455 61.8098 142.539C62.0018 142.623 62.2198 142.665 62.4638 142.665C62.8158 142.665 63.1218 142.585 63.3818 142.425C63.6458 142.265 63.8878 142.039 64.1078 141.747V138.813ZM65.1758 134.607V143.445H64.5398C64.3878 143.445 64.2918 143.371 64.2518 143.223L64.1558 142.485C63.8958 142.797 63.5998 143.049 63.2678 143.241C62.9358 143.433 62.5518 143.529 62.1158 143.529C61.7678 143.529 61.4518 143.463 61.1678 143.331C60.8838 143.195 60.6418 142.997 60.4418 142.737C60.2418 142.477 60.0878 142.153 59.9798 141.765C59.8718 141.377 59.8178 140.931 59.8178 140.427C59.8178 139.979 59.8778 139.563 59.9978 139.179C60.1178 138.791 60.2898 138.455 60.5138 138.171C60.7378 137.887 61.0118 137.665 61.3358 137.505C61.6638 137.341 62.0318 137.259 62.4398 137.259C62.8118 137.259 63.1298 137.323 63.3938 137.451C63.6618 137.575 63.8998 137.749 64.1078 137.973V134.607H65.1758ZM71.7989 143.541C71.3189 143.541 70.9489 143.407 70.6889 143.139C70.4329 142.871 70.3049 142.485 70.3049 141.981V138.261H69.5729C69.5089 138.261 69.4549 138.243 69.4109 138.207C69.3669 138.167 69.3449 138.107 69.3449 138.027V137.601L70.3409 137.475L70.5869 135.597C70.5989 135.537 70.6249 135.489 70.6649 135.453C70.7089 135.413 70.7649 135.393 70.8329 135.393H71.3729V137.487H73.1309V138.261H71.3729V141.909C71.3729 142.165 71.4349 142.355 71.5589 142.479C71.6829 142.603 71.8429 142.665 72.0389 142.665C72.1509 142.665 72.2469 142.651 72.3269 142.623C72.4109 142.591 72.4829 142.557 72.5429 142.521C72.6029 142.485 72.6529 142.453 72.6929 142.425C72.7369 142.393 72.7749 142.377 72.8069 142.377C72.8629 142.377 72.9129 142.411 72.9569 142.479L73.2689 142.989C73.0849 143.161 72.8629 143.297 72.6029 143.397C72.3429 143.493 72.0749 143.541 71.7989 143.541ZM76.7605 137.271C77.2045 137.271 77.6045 137.345 77.9605 137.493C78.3165 137.641 78.6205 137.851 78.8725 138.123C79.1245 138.395 79.3165 138.725 79.4485 139.113C79.5845 139.497 79.6525 139.927 79.6525 140.403C79.6525 140.883 79.5845 141.315 79.4485 141.699C79.3165 142.083 79.1245 142.411 78.8725 142.683C78.6205 142.955 78.3165 143.165 77.9605 143.313C77.6045 143.457 77.2045 143.529 76.7605 143.529C76.3125 143.529 75.9085 143.457 75.5485 143.313C75.1925 143.165 74.8885 142.955 74.6365 142.683C74.3845 142.411 74.1905 142.083 74.0545 141.699C73.9225 141.315 73.8565 140.883 73.8565 140.403C73.8565 139.927 73.9225 139.497 74.0545 139.113C74.1905 138.725 74.3845 138.395 74.6365 138.123C74.8885 137.851 75.1925 137.641 75.5485 137.493C75.9085 137.345 76.3125 137.271 76.7605 137.271ZM76.7605 142.695C77.3605 142.695 77.8085 142.495 78.1045 142.095C78.4005 141.691 78.5485 141.129 78.5485 140.409C78.5485 139.685 78.4005 139.121 78.1045 138.717C77.8085 138.313 77.3605 138.111 76.7605 138.111C76.4565 138.111 76.1905 138.163 75.9625 138.267C75.7385 138.371 75.5505 138.521 75.3985 138.717C75.2505 138.913 75.1385 139.155 75.0625 139.443C74.9905 139.727 74.9545 140.049 74.9545 140.409C74.9545 141.129 75.1025 141.691 75.3985 142.095C75.6985 142.495 76.1525 142.695 76.7605 142.695ZM92.2134 137.367L90.2454 143.445H89.3994C89.2954 143.445 89.2234 143.377 89.1834 143.241L87.8394 139.119C87.8074 139.027 87.7814 138.935 87.7614 138.843C87.7414 138.747 87.7214 138.653 87.7014 138.561C87.6814 138.653 87.6614 138.747 87.6414 138.843C87.6214 138.935 87.5954 139.029 87.5634 139.125L86.1954 143.241C86.1594 143.377 86.0794 143.445 85.9554 143.445H85.1514L83.1834 137.367H84.0234C84.1074 137.367 84.1774 137.389 84.2334 137.433C84.2934 137.477 84.3334 137.529 84.3534 137.589L85.5174 141.501C85.5854 141.789 85.6394 142.061 85.6794 142.317C85.7154 142.185 85.7514 142.051 85.7874 141.915C85.8274 141.779 85.8694 141.641 85.9134 141.501L87.1974 137.565C87.2174 137.505 87.2514 137.455 87.2994 137.415C87.3514 137.375 87.4134 137.355 87.4854 137.355H87.9534C88.0334 137.355 88.0994 137.375 88.1514 137.415C88.2034 137.455 88.2394 137.505 88.2594 137.565L89.5134 141.501C89.5574 141.641 89.5974 141.779 89.6334 141.915C89.6694 142.051 89.7034 142.185 89.7354 142.317C89.7554 142.185 89.7794 142.053 89.8074 141.921C89.8394 141.785 89.8734 141.645 89.9094 141.501L91.0974 137.589C91.1174 137.525 91.1554 137.473 91.2114 137.433C91.2674 137.389 91.3334 137.367 91.4094 137.367H92.2134ZM94.2672 138.585C94.4592 138.169 94.6952 137.845 94.9752 137.613C95.2552 137.377 95.5972 137.259 96.0012 137.259C96.1292 137.259 96.2512 137.273 96.3672 137.301C96.4872 137.329 96.5932 137.373 96.6852 137.433L96.6072 138.231C96.5832 138.331 96.5232 138.381 96.4272 138.381C96.3712 138.381 96.2892 138.369 96.1812 138.345C96.0732 138.321 95.9512 138.309 95.8152 138.309C95.6232 138.309 95.4512 138.337 95.2992 138.393C95.1512 138.449 95.0172 138.533 94.8972 138.645C94.7812 138.753 94.6752 138.889 94.5792 139.053C94.4872 139.213 94.4032 139.397 94.3272 139.605V143.445H93.2532V137.367H93.8652C93.9812 137.367 94.0612 137.389 94.1052 137.433C94.1492 137.477 94.1792 137.553 94.1952 137.661L94.2672 138.585ZM98.7523 137.367V143.445H97.6843V137.367H98.7523ZM98.9803 135.459C98.9803 135.563 98.9583 135.661 98.9143 135.753C98.8743 135.841 98.8183 135.921 98.7463 135.993C98.6783 136.061 98.5963 136.115 98.5003 136.155C98.4083 136.195 98.3103 136.215 98.2063 136.215C98.1023 136.215 98.0043 136.195 97.9123 136.155C97.8243 136.115 97.7463 136.061 97.6783 135.993C97.6103 135.921 97.5563 135.841 97.5163 135.753C97.4763 135.661 97.4563 135.563 97.4563 135.459C97.4563 135.355 97.4763 135.257 97.5163 135.165C97.5563 135.069 97.6103 134.987 97.6783 134.919C97.7463 134.847 97.8243 134.791 97.9123 134.751C98.0043 134.711 98.1023 134.691 98.2063 134.691C98.3103 134.691 98.4083 134.711 98.5003 134.751C98.5963 134.791 98.6783 134.847 98.7463 134.919C98.8183 134.987 98.8743 135.069 98.9143 135.165C98.9583 135.257 98.9803 135.355 98.9803 135.459ZM102.373 143.541C101.893 143.541 101.523 143.407 101.263 143.139C101.007 142.871 100.879 142.485 100.879 141.981V138.261H100.147C100.083 138.261 100.029 138.243 99.9851 138.207C99.9411 138.167 99.9191 138.107 99.9191 138.027V137.601L100.915 137.475L101.161 135.597C101.173 135.537 101.199 135.489 101.239 135.453C101.283 135.413 101.339 135.393 101.407 135.393H101.947V137.487H103.705V138.261H101.947V141.909C101.947 142.165 102.009 142.355 102.133 142.479C102.257 142.603 102.417 142.665 102.613 142.665C102.725 142.665 102.821 142.651 102.901 142.623C102.985 142.591 103.057 142.557 103.117 142.521C103.177 142.485 103.227 142.453 103.267 142.425C103.311 142.393 103.349 142.377 103.381 142.377C103.437 142.377 103.487 142.411 103.531 142.479L103.843 142.989C103.659 143.161 103.437 143.297 103.177 143.397C102.917 143.493 102.649 143.541 102.373 143.541ZM108.841 139.743C108.841 139.495 108.805 139.269 108.733 139.065C108.665 138.857 108.563 138.679 108.427 138.531C108.295 138.379 108.133 138.263 107.941 138.183C107.749 138.099 107.531 138.057 107.287 138.057C106.775 138.057 106.369 138.207 106.069 138.507C105.773 138.803 105.589 139.215 105.517 139.743H108.841ZM109.705 142.593C109.573 142.753 109.415 142.893 109.231 143.013C109.047 143.129 108.849 143.225 108.637 143.301C108.429 143.377 108.213 143.433 107.989 143.469C107.765 143.509 107.543 143.529 107.323 143.529C106.903 143.529 106.515 143.459 106.159 143.319C105.807 143.175 105.501 142.967 105.241 142.695C104.985 142.419 104.785 142.079 104.641 141.675C104.497 141.271 104.425 140.807 104.425 140.283C104.425 139.859 104.489 139.463 104.617 139.095C104.749 138.727 104.937 138.409 105.181 138.141C105.425 137.869 105.723 137.657 106.075 137.505C106.427 137.349 106.823 137.271 107.263 137.271C107.627 137.271 107.963 137.333 108.271 137.457C108.583 137.577 108.851 137.753 109.075 137.985C109.303 138.213 109.481 138.497 109.609 138.837C109.737 139.173 109.801 139.557 109.801 139.989C109.801 140.157 109.783 140.269 109.747 140.325C109.711 140.381 109.643 140.409 109.543 140.409H105.481C105.493 140.793 105.545 141.127 105.637 141.411C105.733 141.695 105.865 141.933 106.033 142.125C106.201 142.313 106.401 142.455 106.633 142.551C106.865 142.643 107.125 142.689 107.413 142.689C107.681 142.689 107.911 142.659 108.103 142.599C108.299 142.535 108.467 142.467 108.607 142.395C108.747 142.323 108.863 142.257 108.955 142.197C109.051 142.133 109.133 142.101 109.201 142.101C109.289 142.101 109.357 142.135 109.405 142.203L109.705 142.593ZM112.127 138.585C112.319 138.169 112.555 137.845 112.835 137.613C113.115 137.377 113.457 137.259 113.861 137.259C113.989 137.259 114.111 137.273 114.227 137.301C114.347 137.329 114.453 137.373 114.545 137.433L114.467 138.231C114.443 138.331 114.383 138.381 114.287 138.381C114.231 138.381 114.149 138.369 114.041 138.345C113.933 138.321 113.811 138.309 113.675 138.309C113.483 138.309 113.311 138.337 113.159 138.393C113.011 138.449 112.877 138.533 112.757 138.645C112.641 138.753 112.535 138.889 112.439 139.053C112.347 139.213 112.263 139.397 112.187 139.605V143.445H111.113V137.367H111.725C111.841 137.367 111.921 137.389 111.965 137.433C112.009 137.477 112.039 137.553 112.055 137.661L112.127 138.585Z" fill="#DAE6F2"/>
<path d="M199.523 37.2288V44.7516C199.523 52.4836 193.255 58.7516 185.523 58.7516H85.1504C74.1047 58.7516 65.1504 67.7059 65.1504 78.7516V80.2745" stroke="#1565C0" stroke-width="2" stroke-dasharray="0"/>
<path d="M199.523 37.2288V58.7516V80.2745" stroke="#1565C0" stroke-width="2" stroke-dasharray="0"/>
<path d="M199.523 37.2288V38.7516C199.523 49.7973 208.477 58.7516 219.523 58.7516H283.065C294.111 58.7516 303.065 67.7059 303.065 78.7516V80.2745" stroke="#1565C0" stroke-width="2" stroke-linejoin="round" stroke-dasharray="0"/>
<path d="M199.523 37.2288V38.7516C199.523 49.7973 208.477 58.7516 219.523 58.7516H386.608C397.654 58.7516 406.608 67.7059 406.608 78.7516V80.2745" stroke="#1565C0" stroke-width="2" stroke-linejoin="round" stroke-dasharray="0"/>
</g>
<defs>
<clipPath id="clip0_20713_18274">
<rect width="456" height="150" fill="white"/>
</clipPath>
</defs>
</svg>
