<svg width="205" height="40" viewBox="0 0 205 40" fill="none" xmlns="http://www.w3.org/2000/svg">
<path d="M13.9417 12.5423C13.8335 12.7262 13.7199 12.8614 13.6009 12.948C13.4819 13.0346 13.3304 13.0778 13.1464 13.0778C12.9517 13.0778 12.7299 12.9913 12.481 12.8182C12.2321 12.6342 11.9184 12.434 11.5397 12.2176C11.1718 11.9904 10.7281 11.7903 10.2088 11.6171C9.68942 11.4332 9.06726 11.3412 8.34231 11.3412C7.66065 11.3412 7.06013 11.4332 6.54076 11.6171C6.03222 11.7903 5.60482 12.0337 5.25858 12.3475C4.91233 12.6505 4.64724 13.0129 4.4633 13.4349C4.29018 13.8461 4.20362 14.2951 4.20362 14.782C4.20362 15.4096 4.36051 15.9289 4.67429 16.3401C4.9989 16.7513 5.42088 17.1029 5.94025 17.3951C6.45961 17.6872 7.04931 17.9415 7.70934 18.1579C8.36936 18.3743 9.04562 18.6015 9.73811 18.8396C10.4306 19.0668 11.1069 19.3319 11.7669 19.6348C12.4269 19.9378 13.0166 20.3219 13.536 20.7872C14.0553 21.2416 14.4719 21.8043 14.7857 22.4751C15.1103 23.1351 15.2726 23.9467 15.2726 24.9096C15.2726 25.9376 15.0941 26.9005 14.737 27.7986C14.3908 28.6967 13.8822 29.4811 13.2114 30.152C12.5405 30.8228 11.7128 31.353 10.7281 31.7426C9.75434 32.1213 8.64528 32.3106 7.40096 32.3106C6.65437 32.3106 5.92943 32.2349 5.22612 32.0834C4.52281 31.9427 3.85737 31.7426 3.22981 31.4829C2.60224 31.2124 2.01254 30.8932 1.46072 30.5253C0.91971 30.1466 0.432805 29.7246 0 29.2593L0.990041 27.6039C1.08742 27.474 1.20103 27.3658 1.33087 27.2793C1.47154 27.1927 1.62843 27.1494 1.80155 27.1494C2.02877 27.1494 2.28846 27.2684 2.5806 27.5065C2.88356 27.7445 3.25145 28.0096 3.68425 28.3018C4.12788 28.5831 4.65265 28.8428 5.25858 29.0808C5.87533 29.3188 6.62191 29.4379 7.49834 29.4379C8.21247 29.4379 8.85086 29.3459 9.4135 29.162C9.97615 28.9672 10.4468 28.6967 10.8255 28.3504C11.2151 27.9934 11.5126 27.566 11.7182 27.0683C11.9238 26.5705 12.0266 26.0187 12.0266 25.4128C12.0266 24.7311 11.8697 24.1739 11.5559 23.7411C11.2421 23.3083 10.8255 22.9458 10.3062 22.6537C9.7868 22.3615 9.1971 22.1126 8.53708 21.9071C7.87705 21.7015 7.20079 21.4905 6.5083 21.2741C5.81581 21.0469 5.13956 20.7872 4.47953 20.495C3.8195 20.2029 3.22981 19.8242 2.71044 19.3589C2.19107 18.8828 1.7745 18.2931 1.46072 17.5898C1.14693 16.8757 0.990041 15.9993 0.990041 14.9605C0.990041 14.1274 1.15234 13.3213 1.47695 12.5423C1.80155 11.7632 2.27223 11.0761 2.88897 10.481C3.51654 9.87509 4.28477 9.3936 5.19366 9.03653C6.10255 8.66865 7.14128 8.48471 8.30985 8.48471C9.61909 8.48471 10.8201 8.6957 11.913 9.11768C13.0166 9.52885 13.9742 10.124 14.7857 10.903L13.9417 12.5423Z" fill="white"/>
<path d="M27.5299 24.7311C26.2423 24.7744 25.1495 24.8772 24.2514 25.0395C23.3534 25.191 22.623 25.3966 22.0604 25.6562C21.4977 25.9159 21.092 26.2243 20.8431 26.5814C20.5942 26.9276 20.4698 27.3171 20.4698 27.7499C20.4698 28.1611 20.5347 28.5182 20.6646 28.8211C20.8052 29.1133 20.9892 29.3567 21.2164 29.5515C21.4544 29.7354 21.7304 29.8707 22.0441 29.9572C22.3579 30.0438 22.6988 30.0871 23.0666 30.0871C23.5535 30.0871 23.9972 30.0384 24.3975 29.941C24.8087 29.8436 25.1928 29.7084 25.5499 29.5352C25.9069 29.3513 26.2478 29.1295 26.5724 28.8698C26.897 28.6101 27.2162 28.3126 27.5299 27.9771V24.7311ZM18.2463 17.8657C19.166 16.9893 20.1614 16.3347 21.2326 15.9019C22.3146 15.4691 23.4994 15.2527 24.787 15.2527C25.7284 15.2527 26.5615 15.4096 27.2865 15.7234C28.0114 16.0263 28.6228 16.4537 29.1205 17.0055C29.6182 17.5574 29.9915 18.2174 30.2404 18.9856C30.5001 19.7539 30.6299 20.6032 30.6299 21.5338V32.0509H29.2179C28.9041 32.0509 28.666 32.0022 28.5037 31.9049C28.3414 31.7967 28.2116 31.6019 28.1142 31.3206L27.7734 29.8761C27.3514 30.2656 26.9348 30.6119 26.5237 30.9148C26.1125 31.207 25.6797 31.4612 25.2252 31.6776C24.7816 31.8832 24.3055 32.0401 23.797 32.1483C23.2884 32.2565 22.7258 32.3106 22.1091 32.3106C21.4598 32.3106 20.8485 32.224 20.275 32.0509C19.7124 31.867 19.2201 31.5911 18.7981 31.2232C18.3761 30.8553 18.0407 30.3954 17.7918 29.8436C17.5538 29.2918 17.4348 28.648 17.4348 27.9122C17.4348 27.263 17.6079 26.6409 17.9541 26.0458C18.3112 25.4398 18.8847 24.8988 19.6745 24.4227C20.4752 23.9467 21.5139 23.5571 22.7907 23.2542C24.0783 22.9512 25.6581 22.7781 27.5299 22.7348V21.5338C27.5299 20.2895 27.2648 19.3589 26.7347 18.7422C26.2045 18.1254 25.4254 17.8171 24.3975 17.8171C23.705 17.8171 23.1207 17.9036 22.6447 18.0767C22.1794 18.2499 21.7736 18.4446 21.4274 18.661C21.092 18.8666 20.7944 19.056 20.5347 19.2291C20.2859 19.4022 20.0262 19.4888 19.7557 19.4888C19.5393 19.4888 19.3499 19.4293 19.1876 19.3102C19.0361 19.1912 18.9117 19.0506 18.8143 18.8883L18.2463 17.8657Z" fill="white"/>
<path d="M35.7006 32.0509V18.1579L33.9802 17.9469C33.7313 17.8928 33.5257 17.8062 33.3634 17.6872C33.2119 17.5574 33.1362 17.3734 33.1362 17.1354V15.8207H35.7006V14.3276C35.7006 13.3862 35.8358 12.5477 36.1063 11.8119C36.3768 11.0761 36.7609 10.454 37.2587 9.94542C37.7672 9.42606 38.3731 9.03653 39.0764 8.77685C39.7906 8.50635 40.5913 8.37109 41.4785 8.37109C42.2251 8.37109 42.9122 8.4793 43.5397 8.6957L43.4748 10.2863C43.464 10.4269 43.4207 10.5351 43.345 10.6109C43.2692 10.6758 43.1664 10.7245 43.0366 10.7569C42.9176 10.7894 42.7661 10.811 42.5822 10.8219C42.409 10.8219 42.2197 10.8219 42.0141 10.8219C41.5272 10.8219 41.0836 10.8814 40.6832 11.0004C40.2829 11.1194 39.9421 11.3196 39.6607 11.6009C39.3794 11.8822 39.163 12.2555 39.0115 12.7208C38.86 13.1752 38.7843 13.7433 38.7843 14.425V15.8207H43.4099V18.1254H38.8817V32.0509H35.7006Z" fill="white"/>
<path d="M56.4724 21.972C56.4724 21.3444 56.3804 20.7655 56.1965 20.2354C56.0234 19.7052 55.7637 19.2453 55.4174 18.8558C55.0712 18.4663 54.6492 18.1633 54.1515 17.9469C53.6538 17.7305 53.0803 17.6223 52.4311 17.6223C51.1002 17.6223 50.0507 18.0064 49.2824 18.7746C48.525 19.5429 48.0435 20.6087 47.8379 21.972H56.4724ZM59.0855 29.6975C58.6959 30.152 58.2469 30.5469 57.7384 30.8824C57.2298 31.207 56.6888 31.472 56.1153 31.6776C55.5419 31.8832 54.9468 32.0347 54.33 32.1321C53.7241 32.2295 53.1236 32.2781 52.5285 32.2781C51.3924 32.2781 50.3374 32.0888 49.3636 31.7101C48.4006 31.3206 47.562 30.7579 46.8479 30.0222C46.1446 29.2756 45.5928 28.3559 45.1924 27.263C44.8029 26.1594 44.6081 24.8934 44.6081 23.4652C44.6081 22.3182 44.7867 21.2524 45.1437 20.2678C45.5008 19.2724 46.0093 18.4068 46.6694 17.671C47.3402 16.9352 48.1571 16.3563 49.1201 15.9344C50.0831 15.5124 51.1651 15.3014 52.3662 15.3014C53.3724 15.3014 54.2976 15.4691 55.1415 15.8045C55.9963 16.1291 56.7321 16.6052 57.3488 17.2328C57.9656 17.8603 58.4471 18.634 58.7933 19.5537C59.1504 20.4734 59.3289 21.5229 59.3289 22.7023C59.3289 23.1892 59.2748 23.5193 59.1666 23.6924C59.0584 23.8547 58.8582 23.9358 58.5661 23.9358H47.7568C47.7893 24.9205 47.9299 25.7807 48.1788 26.5164C48.4276 27.2414 48.7685 27.8473 49.2013 28.3342C49.6449 28.8211 50.1697 29.1836 50.7756 29.4216C51.3815 29.6597 52.0578 29.7787 52.8044 29.7787C53.5077 29.7787 54.1136 29.6975 54.6222 29.5352C55.1415 29.3729 55.5852 29.1998 55.953 29.0159C56.3317 28.8211 56.6455 28.6426 56.8944 28.4803C57.1541 28.318 57.3813 28.2368 57.5761 28.2368C57.8357 28.2368 58.0359 28.3342 58.1766 28.529L59.0855 29.6975Z" fill="white"/>
<path d="M80.654 15.4172L80.654 15.4178C80.529 16.4479 80.1824 17.4005 79.6148 18.2741C79.0465 19.1488 78.248 19.9214 77.2241 20.5933M80.654 15.4172L77.1415 20.4681M80.654 15.4172C80.7758 14.3787 80.6863 13.3019 80.3879 12.1882C80.1007 11.1164 79.655 10.1745 79.0493 9.36469C78.4521 8.5495 77.6961 7.914 76.7832 7.45924C75.8692 7.00396 74.8006 6.74877 73.581 6.68947C72.3585 6.63003 70.9833 6.80681 69.4571 7.21575L62.0889 9.19007L61.944 9.22889L61.9828 9.37378L68.057 32.0429L68.0958 32.1878L68.2407 32.149L72.4578 31.019L72.6027 30.9802L72.5639 30.8353L70.4646 23.0005M80.654 15.4172L70.3197 23.0394M77.2241 20.5933C77.224 20.5934 77.2239 20.5934 77.2238 20.5935L77.1415 20.4681M77.2241 20.5933C77.2241 20.5933 77.2242 20.5933 77.2242 20.5932L77.1415 20.4681M77.2241 20.5933C76.2082 21.2641 74.9559 21.7971 73.4708 22.195L70.4646 23.0005M77.1415 20.4681C76.1422 21.1279 74.9056 21.6553 73.432 22.0501L70.4258 22.8556L70.4646 23.0005M70.4646 23.0005L70.3197 23.0394M70.3197 23.0394L72.3802 30.7292L72.419 30.8741L70.3197 23.0394ZM72.4752 10.5074L72.4752 10.5074L72.4776 10.5075C73.0818 10.5304 73.6049 10.6601 74.0507 10.8922C74.4981 11.1252 74.8747 11.452 75.1812 11.8746C75.4887 12.2985 75.7226 12.8047 75.881 13.3958C76.0479 14.0189 76.1069 14.6065 76.0605 15.1598C76.0116 15.6996 75.849 16.1931 75.5728 16.6421C75.3049 17.0769 74.9201 17.4663 74.4136 17.8089C73.9057 18.1401 73.2727 18.409 72.511 18.613L69.5048 19.4186L67.4023 11.5719L70.4085 10.7664C71.1813 10.5593 71.8696 10.4743 72.4752 10.5074Z" fill="white" stroke="white" stroke-width="0.3"/>
<path d="M92.05 25.3789C91.0037 25.4239 90.1431 25.5139 89.4681 25.6489C88.7931 25.7839 88.2587 25.9526 87.865 26.1551C87.4712 26.3576 87.1956 26.5883 87.0381 26.847C86.8919 27.1058 86.8187 27.387 86.8187 27.6908C86.8187 28.287 86.9819 28.7089 87.3081 28.9564C87.6344 29.1926 88.1125 29.3108 88.7425 29.3108C89.4175 29.3108 90.0081 29.1926 90.5144 28.9564C91.0206 28.7201 91.5325 28.3376 92.05 27.8089V25.3789ZM82.6337 17.4308C83.6912 16.497 84.8612 15.8051 86.1437 15.3551C87.4375 14.8939 88.8212 14.6633 90.295 14.6633C91.3525 14.6633 92.3031 14.8376 93.1469 15.1864C94.0019 15.5239 94.7219 16.002 95.3069 16.6208C95.9031 17.2283 96.3587 17.9539 96.6737 18.7976C96.9887 19.6414 97.1462 20.5639 97.1462 21.5651V32.5001H94.75C94.255 32.5001 93.8781 32.4326 93.6194 32.2976C93.3719 32.1626 93.1637 31.8814 92.995 31.4539L92.6237 30.492C92.185 30.8633 91.7631 31.1895 91.3581 31.4708C90.9531 31.752 90.5312 31.9939 90.0925 32.1964C89.665 32.3876 89.2037 32.5283 88.7087 32.6183C88.225 32.7195 87.685 32.7701 87.0887 32.7701C86.29 32.7701 85.5644 32.6689 84.9119 32.4664C84.2594 32.2526 83.7025 31.9433 83.2412 31.5383C82.7912 31.1333 82.4425 30.6326 82.195 30.0364C81.9475 29.4289 81.8237 28.7314 81.8237 27.9439C81.8237 27.3139 81.9812 26.6783 82.2962 26.037C82.6112 25.3845 83.1569 24.7939 83.9331 24.2651C84.7094 23.7251 85.7556 23.2751 87.0719 22.9151C88.3881 22.5551 90.0475 22.3526 92.05 22.3076V21.5651C92.05 20.5414 91.8362 19.8045 91.4087 19.3545C90.9925 18.8933 90.3962 18.6626 89.62 18.6626C89.0012 18.6626 88.495 18.7301 88.1012 18.8651C87.7075 19.0001 87.3531 19.152 87.0381 19.3208C86.7344 19.4895 86.4362 19.6414 86.1437 19.7764C85.8512 19.9114 85.5025 19.9789 85.0975 19.9789C84.7375 19.9789 84.4337 19.8889 84.1862 19.7089C83.9387 19.5289 83.7362 19.3151 83.5787 19.0676L82.6337 17.4308Z" fill="white"/>
<path d="M115.539 15.0008L106.19 37.0395C106.033 37.3883 105.842 37.6414 105.617 37.7989C105.392 37.9676 105.032 38.052 104.537 38.052H100.622L103.997 30.9645L97.0104 15.0008H101.634C102.039 15.0008 102.349 15.0908 102.562 15.2708C102.787 15.4508 102.95 15.6645 103.052 15.912L105.92 23.4551C106.19 24.1414 106.41 24.8445 106.579 25.5645C106.702 25.2045 106.826 24.8445 106.95 24.4845C107.074 24.1245 107.203 23.7701 107.338 23.4214L109.937 15.912C110.038 15.6533 110.218 15.4395 110.477 15.2708C110.735 15.0908 111.017 15.0008 111.32 15.0008H115.539Z" fill="white"/>
<path d="M116.065 32.5001V15.0008H119.305C119.958 15.0008 120.385 15.2933 120.588 15.8783L120.875 16.8233C121.167 16.5195 121.471 16.2439 121.786 15.9964C122.101 15.7376 122.438 15.5183 122.798 15.3383C123.17 15.147 123.563 15.0008 123.98 14.8995C124.407 14.787 124.874 14.7308 125.38 14.7308C126.438 14.7308 127.31 15.0064 127.996 15.5576C128.693 16.0976 129.222 16.8233 129.582 17.7345C129.875 17.1945 130.229 16.7333 130.645 16.3508C131.073 15.9683 131.528 15.6589 132.012 15.4226C132.507 15.1864 133.025 15.012 133.565 14.8995C134.116 14.787 134.661 14.7308 135.201 14.7308C136.203 14.7308 137.091 14.8826 137.868 15.1864C138.644 15.4789 139.291 15.912 139.808 16.4858C140.337 17.0483 140.736 17.7458 141.006 18.5783C141.276 19.3995 141.411 20.3333 141.411 21.3795V32.5001H136.18V21.3795C136.18 19.5683 135.404 18.6626 133.851 18.6626C133.143 18.6626 132.552 18.8989 132.08 19.3714C131.618 19.8326 131.388 20.502 131.388 21.3795V32.5001H126.156V21.3795C126.156 20.3783 125.96 19.6751 125.566 19.2701C125.172 18.8651 124.593 18.6626 123.828 18.6626C123.355 18.6626 122.905 18.7695 122.478 18.9833C122.061 19.197 121.668 19.4839 121.296 19.8439V32.5001H116.065Z" fill="white"/>
<path d="M154.644 21.6495C154.644 21.2333 154.588 20.8283 154.476 20.4345C154.374 20.0408 154.2 19.692 153.952 19.3883C153.716 19.0733 153.401 18.8201 153.007 18.6289C152.614 18.4376 152.136 18.342 151.573 18.342C150.583 18.342 149.807 18.6289 149.244 19.2026C148.682 19.7651 148.311 20.5808 148.131 21.6495H154.644ZM148.063 24.687C148.232 26.1495 148.676 27.2126 149.396 27.8764C150.116 28.5289 151.044 28.8551 152.181 28.8551C152.788 28.8551 153.311 28.782 153.75 28.6358C154.189 28.4895 154.577 28.3264 154.914 28.1464C155.263 27.9664 155.578 27.8033 155.859 27.657C156.152 27.5108 156.456 27.4376 156.771 27.4376C157.187 27.4376 157.502 27.5895 157.716 27.8933L159.234 29.7664C158.694 30.3851 158.109 30.8914 157.479 31.2851C156.861 31.6676 156.219 31.9714 155.556 32.1964C154.903 32.4101 154.245 32.5564 153.581 32.6351C152.929 32.7251 152.304 32.7701 151.708 32.7701C150.482 32.7701 149.329 32.5733 148.249 32.1795C147.18 31.7745 146.241 31.1783 145.431 30.3908C144.632 29.6033 143.996 28.6245 143.524 27.4545C143.062 26.2845 142.832 24.9233 142.832 23.3708C142.832 22.2008 143.029 21.0926 143.422 20.0464C143.827 19.0001 144.401 18.0833 145.144 17.2958C145.897 16.5083 146.803 15.8839 147.861 15.4226C148.929 14.9614 150.133 14.7308 151.472 14.7308C152.631 14.7308 153.688 14.9108 154.644 15.2708C155.612 15.6308 156.439 16.1539 157.125 16.8401C157.822 17.5264 158.362 18.3701 158.745 19.3714C159.139 20.3614 159.336 21.4864 159.336 22.7464C159.336 23.1401 159.319 23.4608 159.285 23.7083C159.251 23.9558 159.189 24.1526 159.099 24.2989C159.009 24.4451 158.886 24.5464 158.728 24.6026C158.582 24.6589 158.391 24.687 158.154 24.687H148.063Z" fill="white"/>
<path d="M165.767 16.8908C166.105 16.5758 166.453 16.2833 166.813 16.0133C167.173 15.7433 167.556 15.5183 167.961 15.3383C168.377 15.147 168.821 15.0008 169.294 14.8995C169.778 14.787 170.301 14.7308 170.863 14.7308C171.82 14.7308 172.663 14.8995 173.395 15.237C174.137 15.5633 174.761 16.0245 175.268 16.6208C175.774 17.2058 176.156 17.9089 176.415 18.7301C176.674 19.5401 176.803 20.4233 176.803 21.3795V32.5001H171.572V21.3795C171.572 20.5245 171.375 19.8608 170.981 19.3883C170.588 18.9045 170.008 18.6626 169.243 18.6626C168.67 18.6626 168.13 18.7864 167.623 19.0339C167.128 19.2701 166.645 19.5964 166.172 20.0126V32.5001H160.941V15.0008H164.181C164.833 15.0008 165.261 15.2933 165.463 15.8783L165.767 16.8908Z" fill="white"/>
<path d="M185.206 32.7701C184.374 32.7701 183.637 32.652 182.996 32.4158C182.366 32.1683 181.831 31.8251 181.393 31.3864C180.965 30.9364 180.639 30.3964 180.414 29.7664C180.189 29.1364 180.076 28.4333 180.076 27.657V18.612H178.591C178.321 18.612 178.091 18.5276 177.899 18.3589C177.708 18.1789 177.613 17.9201 177.613 17.5826V15.5408L180.397 15.0008L181.426 10.7314C181.561 10.1914 181.944 9.92139 182.574 9.92139H185.308V15.0345H189.644V18.612H185.308V27.3026C185.308 27.7076 185.403 28.0451 185.594 28.3151C185.797 28.5739 186.084 28.7033 186.455 28.7033C186.646 28.7033 186.804 28.6864 186.928 28.6526C187.063 28.6076 187.175 28.5626 187.265 28.5176C187.366 28.4614 187.456 28.4164 187.535 28.3826C187.625 28.3376 187.726 28.3151 187.839 28.3151C187.996 28.3151 188.12 28.3545 188.21 28.4333C188.311 28.5008 188.413 28.6133 188.514 28.7708L190.1 31.2514C189.425 31.7576 188.666 32.1401 187.822 32.3989C186.978 32.6464 186.106 32.7701 185.206 32.7701Z" fill="white"/>
<path d="M202.007 18.8314C201.872 19.0451 201.725 19.197 201.568 19.287C201.422 19.377 201.23 19.422 200.994 19.422C200.747 19.422 200.499 19.3714 200.252 19.2701C200.004 19.1576 199.734 19.0395 199.442 18.9158C199.16 18.792 198.84 18.6795 198.48 18.5783C198.12 18.4658 197.709 18.4095 197.248 18.4095C196.584 18.4095 196.072 18.5389 195.712 18.7976C195.364 19.0451 195.189 19.3939 195.189 19.8439C195.189 20.1701 195.302 20.4401 195.527 20.6539C195.763 20.8676 196.072 21.0589 196.455 21.2276C196.837 21.3851 197.27 21.537 197.754 21.6833C198.238 21.8295 198.733 21.9926 199.239 22.1726C199.745 22.3526 200.24 22.5664 200.724 22.8139C201.208 23.0501 201.641 23.3483 202.024 23.7083C202.406 24.057 202.71 24.4845 202.935 24.9908C203.171 25.497 203.289 26.1045 203.289 26.8133C203.289 27.6795 203.132 28.4783 202.817 29.2095C202.502 29.9408 202.029 30.5708 201.399 31.0995C200.78 31.6283 200.01 32.0389 199.087 32.3314C198.176 32.6239 197.124 32.7701 195.932 32.7701C195.335 32.7701 194.739 32.7139 194.143 32.6014C193.547 32.4889 192.967 32.337 192.405 32.1458C191.854 31.9545 191.342 31.7295 190.869 31.4708C190.397 31.2008 189.992 30.9139 189.654 30.6101L190.869 28.6864C191.004 28.4614 191.173 28.287 191.375 28.1633C191.589 28.0283 191.859 27.9608 192.185 27.9608C192.489 27.9608 192.759 28.0283 192.995 28.1633C193.243 28.2983 193.507 28.4445 193.789 28.602C194.07 28.7595 194.396 28.9058 194.767 29.0408C195.15 29.1758 195.628 29.2433 196.202 29.2433C196.607 29.2433 196.95 29.2039 197.231 29.1251C197.512 29.0351 197.737 28.917 197.906 28.7708C198.075 28.6245 198.199 28.4614 198.277 28.2814C198.356 28.1014 198.395 27.9158 198.395 27.7245C198.395 27.3758 198.277 27.0889 198.041 26.8639C197.805 26.6389 197.495 26.4476 197.113 26.2901C196.73 26.1214 196.292 25.9695 195.797 25.8345C195.313 25.6883 194.818 25.5251 194.312 25.3451C193.805 25.1651 193.305 24.9514 192.81 24.7039C192.326 24.4451 191.893 24.1245 191.51 23.742C191.128 23.3483 190.819 22.8701 190.582 22.3076C190.346 21.7451 190.228 21.0645 190.228 20.2658C190.228 19.5233 190.369 18.8201 190.65 18.1564C190.942 17.4814 191.375 16.8908 191.949 16.3845C192.523 15.8783 193.243 15.4789 194.109 15.1864C194.975 14.8826 195.988 14.7308 197.147 14.7308C197.777 14.7308 198.384 14.787 198.969 14.8995C199.565 15.012 200.122 15.1695 200.64 15.372C201.157 15.5745 201.63 15.8164 202.057 16.0976C202.485 16.3676 202.862 16.6658 203.188 16.992L202.007 18.8314Z" fill="white"/>
<path d="M72.3042 18.7805C73.7386 18.3961 74.6792 17.7772 75.1261 16.9237C75.5729 16.0703 75.6318 15.0296 75.3028 13.8016C75.1572 13.2583 74.9432 12.7857 74.6608 12.3838C74.3785 11.982 74.0266 11.6686 73.6053 11.4438C73.192 11.2051 72.7066 11.0673 72.1493 11.0303C71.6028 10.9903 70.9819 11.0635 70.2864 11.2499L67.4176 12.0186L69.4354 19.5492L72.3042 18.7805ZM69.1814 7.12599C70.8549 6.67759 72.3432 6.49427 73.6462 6.57605C74.9572 6.64405 76.0917 6.92242 77.0496 7.41115C78.0183 7.89697 78.8141 8.56309 79.4369 9.40949C80.0597 10.2559 80.5181 11.2279 80.8122 12.3254C81.1296 13.5099 81.2306 14.6475 81.1152 15.7383C80.9998 16.829 80.6456 17.8324 80.0524 18.7484C79.4593 19.6644 78.6135 20.485 77.515 21.2103C76.4245 21.9217 75.0588 22.4973 73.418 22.937L70.5492 23.7057L72.6762 31.6438L67.1668 33.12L60.8032 9.37092L69.1814 7.12599Z" fill="white"/>
</svg>
