<svg width="37" height="24" viewBox="0 0 37 24" fill="none" xmlns="http://www.w3.org/2000/svg">
<path d="M37 22.5852C37 23.3712 36.3884 24 35.624 24H1.37603C0.611569 24 0 23.3712 0 22.5852V1.41485C0 0.628823 0.611569 0 1.37603 0H35.624C36.3884 0 37 0.628823 37 1.41485V22.5852Z" fill="white"/>
<path d="M14.0662 6.96934L9.93809 17.0829H7.23698L5.19841 9.01301C5.09649 8.54139 4.9436 8.33178 4.58685 8.12218C3.97528 7.80777 2.95599 7.44096 2.0896 7.28375L2.14056 6.96934H6.47252C7.03313 6.96934 7.54277 7.33615 7.6447 8.01738L8.71494 13.8864L11.3651 7.02174H14.0662V6.96934ZM24.6158 13.7816C24.6158 11.1091 21.0483 10.9519 21.0483 9.79904C21.0483 9.43222 21.405 9.06541 22.1185 8.9606C22.4753 8.9082 23.4946 8.8558 24.6158 9.43222L25.0745 7.28375C24.4629 7.07414 23.6984 6.81213 22.6791 6.81213C20.1819 6.81213 18.3981 8.17458 18.3981 10.1658C18.3981 11.6331 19.6722 12.4191 20.6406 12.8907C21.6089 13.3624 21.9656 13.6768 21.9656 14.1484C21.9656 14.8296 21.2012 15.144 20.4367 15.144C19.1626 15.144 18.3981 14.7772 17.8375 14.5152L17.3789 16.7161C17.9904 16.9781 19.0607 17.2401 20.1819 17.2401C22.832 17.2401 24.5648 15.8776 24.6158 13.7816ZM31.2411 17.0829H33.5855L31.5469 6.96934H29.3554C28.8458 6.96934 28.4381 7.28375 28.2852 7.70297L24.4629 17.0829H27.113L27.6227 15.5632H30.8844L31.2411 17.0829ZM28.3871 13.5196L29.7122 9.74663L30.4767 13.5196H28.3871ZM17.6846 6.96934L15.5951 17.0829H13.0469L15.1364 6.96934H17.6846Z" fill="#1A1F71"/>
</svg>
