<svg width="24" height="24" viewBox="0 0 24 24" fill="none" xmlns="http://www.w3.org/2000/svg">
<path d="M22 1.99994C22 1.99994 14.36 1.62994 8.34 9.87994C3.72 16.2099 2 21.9999 2 21.9999L3.94 20.9999C5.38 18.4999 6.13 17.4699 7.54 15.9999C10.07 16.7399 12.71 16.6499 15 13.9999C13 13.4399 11.4 13.5699 9.04 13.8099C11.69 11.9999 13.5 11.5999 16 11.9999L17 9.99994C15.2 9.65994 14 9.62994 12.22 10.0399C14.19 8.64994 15.56 7.86994 18 7.99994L19.21 6.06994C17.65 5.95994 16.71 6.12994 14.92 6.56994C16.53 5.10994 18 4.44994 20.14 4.31994C20.14 4.31994 21.19 2.42994 22 1.99994Z" fill="#0080D1"/>
</svg>
