<svg width="24" height="24" viewBox="0 0 24 24" fill="none" xmlns="http://www.w3.org/2000/svg">
<path d="M7.69847 11.7294C9.92571 11.7294 11.6059 10.0678 11.6059 7.86509C11.6059 5.6624 9.92571 4.00073 7.69847 4.00073C5.47123 4.00073 3.79103 5.6624 3.79103 7.86509C3.79103 10.0678 5.47123 11.7294 7.69847 11.7294ZM8.81488 12.7761H6.58206C3.50411 12.7761 1 15.2526 1 18.2966V19.4007H14.3969V18.2966C14.3969 15.2526 11.8928 12.7761 8.81488 12.7761ZM21.4236 7.57802L16.6231 12.3168L15.1807 10.8903L13.6021 12.4515L16.6231 15.437L23 9.14143L21.4236 7.57802Z" fill="#0080D1"/>
</svg>
