<svg xmlns="http://www.w3.org/2000/svg" version="1.1" xmlns:xlink="http://www.w3.org/1999/xlink" xmlns:svgjs="http://svgjs.dev/svgjs" width="1500" height="1500" viewBox="0 0 1500 1500"><rect width="1500" height="1500" fill="#ffffff"></rect><g transform="matrix(0.6666666666666666,0,0,0.6666666666666666,249.39393939393938,642.68393133602)"><svg viewBox="0 0 396 85" data-background-color="#ffffff" preserveAspectRatio="xMidYMid meet" height="321" width="1500" xmlns="http://www.w3.org/2000/svg" xmlns:xlink="http://www.w3.org/1999/xlink"><g id="tight-bounds" transform="matrix(1,0,0,1,0.2400000000000091,0.1255412917677461)"><svg viewBox="0 0 395.52 84.74891741646452" height="84.74891741646452" width="395.52"><g><svg viewBox="0 0 536.5246591549767 114.9622876987811" height="84.74891741646452" width="395.52"><g><rect width="4.7345618252320865" height="99.82253635205304" x="123.87595642599565" y="7.569875673364031" fill="#000000" opacity="1" stroke-width="0" stroke="transparent" fill-opacity="1" class="rect-qz-0" data-fill-palette-color="primary" rx="1%" id="qz-0" data-palette-color="#6b7280"></rect></g><g transform="matrix(1,0,0,1,141.00465915497665,15.888420369368447)"><svg viewBox="0 0 395.52 83.1854469600442" height="83.1854469600442" width="395.52"><g id="textblocktransform"><svg viewBox="0 0 395.52 83.1854469600442" height="83.1854469600442" width="395.52" id="textblock"><g><svg viewBox="0 0 395.52 52.50063921681542" height="52.50063921681542" width="395.52"><g transform="matrix(1,0,0,1,0,0)"><svg width="395.52" viewBox="1.4 -35.7 347.27000000000004 46.1" height="52.50063921681542" data-palette-color="#6b7280"><path d="M15.2 0L11.5 0 11.5-29.7 1.4-29.7 1.4-32.85 25.25-32.85 25.25-29.7 15.2-29.7 15.2 0ZM40.15 0.6L40.15 0.6Q37.2 0.6 34.65-0.9 32.1-2.4 30.55-5.23 29-8.05 29-12.1L29-12.1Q29-16.1 30.55-18.98 32.1-21.85 34.65-23.35 37.2-24.85 40.15-24.85L40.15-24.85Q43.1-24.85 45.62-23.35 48.15-21.85 49.72-18.98 51.3-16.1 51.3-12.1L51.3-12.1Q51.3-8.05 49.72-5.23 48.15-2.4 45.62-0.9 43.1 0.6 40.15 0.6ZM40.15-2.45L40.15-2.45Q42.35-2.45 44.02-3.65 45.7-4.85 46.62-7.03 47.55-9.2 47.55-12.1L47.55-12.1Q47.55-14.95 46.62-17.15 45.7-19.35 44.02-20.58 42.35-21.8 40.15-21.8L40.15-21.8Q38-21.8 36.32-20.58 34.65-19.35 33.72-17.15 32.8-14.95 32.8-12.1L32.8-12.1Q32.8-9.2 33.72-7.03 34.65-4.85 36.32-3.65 38-2.45 40.15-2.45ZM61.5 10.4L57.9 10.4 57.9-24.25 60.9-24.25 61.2-21.35 61.35-21.35Q63-22.75 65.02-23.8 67.05-24.85 69.2-24.85L69.2-24.85Q72.34-24.85 74.5-23.33 76.65-21.8 77.72-19 78.8-16.2 78.8-12.5L78.8-12.5Q78.8-8.35 77.32-5.43 75.84-2.5 73.45-0.95 71.05 0.6 68.3 0.6L68.3 0.6Q66.59 0.6 64.87-0.15 63.15-0.9 61.4-2.25L61.4-2.25 61.5 2.05 61.5 10.4ZM67.7-2.5L67.7-2.5Q69.84-2.5 71.5-3.7 73.15-4.9 74.09-7.15 75.05-9.4 75.05-12.45L75.05-12.45Q75.05-15.2 74.37-17.3 73.7-19.4 72.22-20.58 70.75-21.75 68.34-21.75L68.34-21.75Q66.75-21.75 65.07-20.88 63.4-20 61.5-18.25L61.5-18.25 61.5-5.15Q63.25-3.7 64.87-3.1 66.5-2.5 67.7-2.5ZM89.54 0L85.84 0 85.84-32.85 95.89-32.85Q99.19-32.85 101.74-31.98 104.29-31.1 105.74-29.1 107.19-27.1 107.19-23.75L107.19-23.75Q107.19-20.55 105.74-18.43 104.29-16.3 101.74-15.25 99.19-14.2 95.89-14.2L95.89-14.2 89.54-14.2 89.54 0ZM108.09 0L103.89 0 95.14-15.2 98.14-17 108.09 0ZM89.54-29.85L89.54-17.2 95.29-17.2Q99.29-17.2 101.39-18.82 103.49-20.45 103.49-23.75L103.49-23.75Q103.49-27.1 101.39-28.48 99.29-29.85 95.29-29.85L95.29-29.85 89.54-29.85ZM119.14 0.6L119.14 0.6Q117.14 0.6 115.54-0.2 113.94-1 112.99-2.53 112.04-4.05 112.04-6.2L112.04-6.2Q112.04-10.2 115.67-12.33 119.29-14.45 127.14-15.3L127.14-15.3Q127.14-16.9 126.72-18.43 126.29-19.95 125.17-20.88 124.04-21.8 121.94-21.8L121.94-21.8Q119.74-21.8 117.87-20.95 115.99-20.1 114.59-19.15L114.59-19.15 113.14-21.65Q114.19-22.35 115.64-23.1 117.09-23.85 118.84-24.35 120.59-24.85 122.54-24.85L122.54-24.85Q125.44-24.85 127.27-23.6 129.09-22.35 129.92-20.15 130.74-17.95 130.74-15L130.74-15 130.74 0 127.74 0 127.44-2.95 127.29-2.95Q125.54-1.5 123.49-0.45 121.44 0.6 119.14 0.6ZM120.09-2.35L120.09-2.35Q121.94-2.35 123.59-3.23 125.24-4.1 127.14-5.75L127.14-5.75 127.14-12.85Q122.84-12.35 120.34-11.48 117.84-10.6 116.74-9.35 115.64-8.1 115.64-6.45L115.64-6.45Q115.64-4.3 116.97-3.33 118.29-2.35 120.09-2.35ZM146.04 0.6L146.04 0.6Q142.24 0.6 140.79-1.6 139.34-3.8 139.34-7.3L139.34-7.3 139.34-21.25 135.69-21.25 135.69-24 139.49-24.25 139.94-31.1 142.99-31.1 142.99-24.25 149.64-24.25 149.64-21.25 142.99-21.25 142.99-7.2Q142.99-4.95 143.81-3.68 144.64-2.4 146.84-2.4L146.84-2.4Q147.49-2.4 148.26-2.6 149.04-2.8 149.64-3.05L149.64-3.05 150.39-0.3Q149.39 0.05 148.21 0.33 147.04 0.6 146.04 0.6ZM164.84 0.6L164.84 0.6Q161.64 0.6 159.04-0.93 156.44-2.45 154.89-5.28 153.34-8.1 153.34-12.1L153.34-12.1Q153.34-16 154.89-18.88 156.44-21.75 158.91-23.3 161.39-24.85 164.19-24.85L164.19-24.85Q167.19-24.85 169.34-23.45 171.49-22.05 172.61-19.53 173.74-17 173.74-13.5L173.74-13.5Q173.74-12.95 173.69-12.35 173.64-11.75 173.54-11.3L173.54-11.3 156.19-11.3 156.14-13.95 170.49-13.95Q170.49-17.85 168.84-19.88 167.19-21.9 164.24-21.9L164.24-21.9Q162.44-21.9 160.74-20.88 159.04-19.85 157.94-17.68 156.84-15.5 156.84-12.1L156.84-12.1Q156.84-8.85 157.99-6.7 159.14-4.55 161.06-3.45 162.99-2.35 165.29-2.35L165.29-2.35Q167.09-2.35 168.59-2.9 170.09-3.45 171.44-4.3L171.44-4.3 172.79-1.9Q171.24-0.9 169.31-0.15 167.39 0.6 164.84 0.6ZM187.98 0.6L187.98 0.6Q183.48 0.6 180.76-2.73 178.03-6.05 178.03-12.1L178.03-12.1Q178.03-16 179.51-18.85 180.98-21.7 183.38-23.28 185.78-24.85 188.58-24.85L188.58-24.85Q190.73-24.85 192.31-24.1 193.88-23.35 195.48-22L195.48-22 195.33-26.2 195.33-35.7 198.93-35.7 198.93 0 195.93 0 195.63-2.95 195.48-2.95Q194.08-1.5 192.16-0.45 190.23 0.6 187.98 0.6ZM188.78-2.5L188.78-2.5Q190.53-2.5 192.13-3.38 193.73-4.25 195.33-5.95L195.33-5.95 195.33-19.1Q193.68-20.55 192.21-21.15 190.73-21.75 189.13-21.75L189.13-21.75Q187.08-21.75 185.41-20.53 183.73-19.3 182.76-17.13 181.78-14.95 181.78-12.1L181.78-12.1Q181.78-7.65 183.61-5.08 185.43-2.5 188.78-2.5ZM215.83 0L211.48 0 204.38-32.85 208.23-32.85 211.83-14.6Q212.33-11.95 212.83-9.28 213.33-6.6 213.83-3.95L213.83-3.95 214.03-3.95Q214.58-6.6 215.21-9.28 215.83-11.95 216.38-14.6L216.38-14.6 221.13-32.85 224.53-32.85 229.23-14.6Q229.88-11.95 230.48-9.3 231.08-6.65 231.68-3.95L231.68-3.95 231.88-3.95Q232.38-6.65 232.86-9.3 233.33-11.95 233.83-14.6L233.83-14.6 237.43-32.85 241.03-32.85 234.08 0 229.68 0 224.43-20.45Q224.03-22.4 223.63-24.2 223.23-26 222.83-27.9L222.83-27.9 222.63-27.9Q222.23-26 221.81-24.2 221.38-22.4 220.93-20.45L220.93-20.45 215.83 0ZM250.13 0L246.53 0 246.53-24.25 249.53-24.25 249.83-19.8 249.98-19.8Q251.23-22.1 253-23.48 254.78-24.85 256.88-24.85L256.88-24.85Q257.63-24.85 258.23-24.73 258.83-24.6 259.38-24.35L259.38-24.35 258.68-21.15Q258.08-21.35 257.6-21.45 257.13-21.55 256.38-21.55L256.38-21.55Q254.83-21.55 253.13-20.28 251.43-19 250.13-15.8L250.13-15.8 250.13 0ZM267.13 0L263.53 0 263.53-24.25 267.13-24.25 267.13 0ZM265.38-29.45L265.38-29.45Q264.33-29.45 263.6-30.15 262.88-30.85 262.88-32L262.88-32Q262.88-33.05 263.6-33.75 264.33-34.45 265.38-34.45L265.38-34.45Q266.48-34.45 267.18-33.75 267.88-33.05 267.88-32L267.88-32Q267.88-30.85 267.18-30.15 266.48-29.45 265.38-29.45ZM282.97 0.6L282.97 0.6Q279.17 0.6 277.72-1.6 276.27-3.8 276.27-7.3L276.27-7.3 276.27-21.25 272.62-21.25 272.62-24 276.42-24.25 276.87-31.1 279.92-31.1 279.92-24.25 286.57-24.25 286.57-21.25 279.92-21.25 279.92-7.2Q279.92-4.95 280.75-3.68 281.57-2.4 283.77-2.4L283.77-2.4Q284.42-2.4 285.2-2.6 285.97-2.8 286.57-3.05L286.57-3.05 287.32-0.3Q286.32 0.05 285.15 0.33 283.97 0.6 282.97 0.6ZM301.77 0.6L301.77 0.6Q298.57 0.6 295.97-0.93 293.37-2.45 291.82-5.28 290.27-8.1 290.27-12.1L290.27-12.1Q290.27-16 291.82-18.88 293.37-21.75 295.85-23.3 298.32-24.85 301.12-24.85L301.12-24.85Q304.12-24.85 306.27-23.45 308.42-22.05 309.55-19.53 310.67-17 310.67-13.5L310.67-13.5Q310.67-12.95 310.62-12.35 310.57-11.75 310.47-11.3L310.47-11.3 293.12-11.3 293.07-13.95 307.42-13.95Q307.42-17.85 305.77-19.88 304.12-21.9 301.17-21.9L301.17-21.9Q299.37-21.9 297.67-20.88 295.97-19.85 294.87-17.68 293.77-15.5 293.77-12.1L293.77-12.1Q293.77-8.85 294.92-6.7 296.07-4.55 298-3.45 299.92-2.35 302.22-2.35L302.22-2.35Q304.02-2.35 305.52-2.9 307.02-3.45 308.37-4.3L308.37-4.3 309.72-1.9Q308.17-0.9 306.25-0.15 304.32 0.6 301.77 0.6ZM320.37 0L316.77 0 316.77-24.25 319.77-24.25 320.07-19.8 320.22-19.8Q321.47-22.1 323.24-23.48 325.02-24.85 327.12-24.85L327.12-24.85Q327.87-24.85 328.47-24.73 329.07-24.6 329.62-24.35L329.62-24.35 328.92-21.15Q328.32-21.35 327.84-21.45 327.37-21.55 326.62-21.55L326.62-21.55Q325.07-21.55 323.37-20.28 321.67-19 320.37-15.8L320.37-15.8 320.37 0ZM339.97 0.6L339.97 0.6Q337.37 0.6 335.02-0.38 332.67-1.35 330.97-2.75L330.97-2.75 332.82-5.2Q334.37-3.95 336.09-3.1 337.82-2.25 340.12-2.25L340.12-2.25Q342.62-2.25 343.87-3.45 345.12-4.65 345.12-6.3L345.12-6.3Q345.12-7.6 344.27-8.47 343.42-9.35 342.14-9.98 340.87-10.6 339.47-11.1L339.47-11.1Q337.77-11.7 336.07-12.55 334.37-13.4 333.24-14.7 332.12-16 332.12-18.05L332.12-18.05Q332.12-20.9 334.29-22.88 336.47-24.85 340.37-24.85L340.37-24.85Q342.57-24.85 344.47-24.05 346.37-23.25 347.72-22.15L347.72-22.15 345.97-19.8Q344.72-20.7 343.39-21.33 342.07-21.95 340.37-21.95L340.37-21.95Q337.97-21.95 336.82-20.83 335.67-19.7 335.67-18.25L335.67-18.25Q335.67-17.05 336.44-16.28 337.22-15.5 338.47-14.95 339.72-14.4 341.12-13.85L341.12-13.85Q342.92-13.2 344.64-12.38 346.37-11.55 347.52-10.2 348.67-8.85 348.67-6.5L348.67-6.5Q348.67-4.6 347.67-2.98 346.67-1.35 344.72-0.38 342.77 0.6 339.97 0.6Z" opacity="1" transform="matrix(1,0,0,1,0,0)" fill="#000000" class="wordmark-text-0" data-fill-palette-color="primary" id="text-0"></path></svg></g></svg></g><g transform="matrix(1,0,0,1,0,64.89478012056433)"><svg viewBox="0 0 232.209792 18.290666839479854" height="18.290666839479854" width="232.209792"><g transform="matrix(1,0,0,1,0,0)"><svg width="232.209792" viewBox="1.45 -36.5 469.05 36.95" height="18.290666839479854" data-palette-color="#6b7280"><path d="M1.6 0.15L1.6 0.15 1.45-1.3Q4.1-1.85 4.95-2.25 5.8-2.65 5.9-3.45L5.9-3.45Q6-4.25 6.1-6.33 6.2-8.4 6.25-11.25 6.3-14.1 6.3-17.1L6.3-17.1Q6.3-22.5 6.2-25.48 6.1-28.45 6-29.63 5.9-30.8 5.9-30.8L5.9-30.8Q5.8-31.65 5.05-32.05 4.3-32.45 1.8-32.95L1.8-32.95 1.95-34.4Q3.55-34.35 5.18-34.3 6.8-34.25 8.65-34.25L8.65-34.25 17.05-34.25Q21.4-34.25 24.03-32.08 26.65-29.9 26.65-26.25L26.65-26.25Q26.65-23.95 25.23-21.88 23.8-19.8 21.4-18.6L21.4-18.6Q25.25-17.7 27.05-15.55 28.85-13.4 28.85-9.7L28.85-9.7Q28.85-7.05 27.38-4.83 25.9-2.6 23.4-1.3 20.9 0 17.85 0L17.85 0 8.65 0Q4.7 0 1.6 0.15ZM10.75-18.4L10.75-18.4Q11.2-18.5 12.2-18.6 13.2-18.7 14.4-18.78 15.6-18.85 16.63-18.93 17.65-19 18.2-19L18.2-19Q21.95-21.4 21.95-26.25L21.95-26.25Q21.95-29.15 20-30.65 18.05-32.15 14.35-32.15L14.35-32.15Q12.55-32.15 12.03-31.95 11.5-31.75 11.3-31.05L11.3-31.05Q11.2-30.5 11.05-28.63 10.9-26.75 10.83-24.08 10.75-21.4 10.75-18.4ZM16.35-1.8L16.35-1.8Q18.6-1.8 20.35-2.83 22.1-3.85 23.1-5.63 24.1-7.4 24.1-9.65L24.1-9.65Q24.1-16.9 13.9-16.9L13.9-16.9Q12.4-16.9 10.75-16.75L10.75-16.75Q10.75-13.55 10.83-10.65 10.9-7.75 11.05-5.8 11.2-3.85 11.3-3.4L11.3-3.4Q11.55-2.65 12.9-2.23 14.25-1.8 16.35-1.8ZM51.45-4.15L51.45-4.15 52.05-2.65Q50.5-1.4 48.42-0.48 46.35 0.45 43.85 0.45L43.85 0.45Q40.15 0.45 37.77-1.03 35.4-2.5 34.27-4.95 33.15-7.4 33.15-10.35L33.15-10.35Q33.15-12.75 33.82-15 34.5-17.25 35.9-19.05 37.3-20.85 39.6-21.93 41.9-23 45.1-23L45.1-23Q46.9-23 48.65-22.15 50.4-21.3 51.55-19.43 52.7-17.55 52.7-14.45L52.7-14.45 51-12.4Q50.8-12.45 50.32-12.45 49.85-12.45 49.15-12.45L49.15-12.45Q47.9-12.45 46.2-12.43 44.5-12.4 42.75-12.35 41-12.3 39.55-12.23 38.1-12.15 37.4-12.1L37.4-12.1 37.4-11.65Q37.4-6.95 39.37-4.75 41.35-2.55 44.5-2.55L44.5-2.55Q46.35-2.55 48-2.95 49.65-3.35 51.45-4.15ZM48.2-16L48.2-16Q48.2-17.7 47.52-18.68 46.85-19.65 45.87-20.1 44.9-20.55 44-20.55L44-20.55Q41.55-20.55 39.9-18.63 38.25-16.7 37.7-14.15L37.7-14.15 48.05-14.55Q48.2-15.3 48.2-16ZM63.9-23L63.9-23Q67-23 68.72-22.38 70.45-21.75 70.45-21.75L70.45-21.75Q70.45-20.65 70.5-19.25 70.55-17.85 70.75-16.8L70.75-16.8 69.45-16.35Q68.8-19 67.59-19.95 66.4-20.9 64.5-20.9L64.5-20.9Q62.8-20.9 61.77-19.95 60.75-19 60.75-17.7L60.75-17.7Q60.75-16.8 61.3-15.83 61.85-14.85 63.35-14L63.35-14 68.45-11.2Q70-10.35 70.87-9.05 71.75-7.75 71.75-5.85L71.75-5.85Q71.75-4.35 70.95-2.9 70.15-1.45 68.37-0.5 66.59 0.45 63.75 0.45L63.75 0.45Q62.25 0.45 60.32 0.15 58.4-0.15 56.25-0.8L56.25-0.8Q56.4-1.55 56.52-2.63 56.65-3.7 56.75-4.78 56.85-5.85 56.85-6.55L56.85-6.55 58.15-7Q58.6-5.25 59.05-3.98 59.5-2.7 60.47-2.05 61.45-1.4 63.45-1.4L63.45-1.4Q65.59-1.4 66.7-2.45 67.8-3.5 67.8-4.8L67.8-4.8Q67.8-5.75 67.22-6.65 66.65-7.55 65.45-8.2L65.45-8.2 60.05-11.2Q58.35-12.1 57.55-13.55 56.75-15 56.75-16.55L56.75-16.55Q56.75-18.15 57.57-19.63 58.4-21.1 60-22.05 61.6-23 63.9-23ZM88.89-3.55L88.89-3.55 89.49-1.9Q87.79-0.8 86.24-0.18 84.69 0.45 83.09 0.45L83.09 0.45Q80.94 0.45 79.42-0.6 77.89-1.65 77.89-4.55L77.89-4.55Q77.89-4.55 77.92-5.78 77.94-7 77.94-8.78 77.94-10.55 77.94-12.15L77.94-12.15Q77.94-14.65 77.92-16.73 77.89-18.8 77.84-20.3L77.84-20.3Q76.34-20.25 75.49-20.25 74.64-20.25 74.64-20.25L74.64-20.25 74.49-20.8 75.64-22.75Q75.64-22.75 76.17-22.68 76.69-22.6 77.74-22.55L77.74-22.55Q77.74-23.55 77.69-24.63 77.64-25.7 77.59-26.43 77.54-27.15 77.54-27.15L77.54-27.15 80.84-30.1 81.79-29.65Q81.79-29.65 81.77-28.58 81.74-27.5 81.72-25.9 81.69-24.3 81.69-22.6L81.69-22.6Q85.09-22.6 87.07-22.63 89.04-22.65 89.04-22.65L89.04-22.65 89.29-22.05 87.49-20.05Q87.49-20.05 86.14-20.15 84.79-20.25 81.69-20.3L81.69-20.3 81.69-13.6Q81.69-10.6 81.72-8.65 81.74-6.7 81.84-4.65L81.84-4.65Q81.94-3.4 82.69-2.9 83.44-2.4 84.49-2.4L84.49-2.4Q85.64-2.4 86.87-2.8 88.09-3.2 88.89-3.55ZM124.04-2.6L124.04-2.6 124.54-1.3Q122.64 0.45 120.39 0.45L120.39 0.45Q119.14 0.45 118.14-0.33 117.14-1.1 116.89-2.8L116.89-2.8Q115.04-1.4 113.21-0.48 111.39 0.45 109.29 0.45L109.29 0.45Q107.29 0.45 105.71-0.8 104.14-2.05 104.14-4.75L104.14-4.75Q104.14-6.55 105.29-8.28 106.44-10 109.21-11.23 111.99-12.45 116.74-12.75L116.74-12.75 116.74-17.4Q116.74-18.85 115.66-19.58 114.59-20.3 113.09-20.3L113.09-20.3Q110.89-20.3 109.84-19.25 108.79-18.2 108.79-16.65L108.79-16.65Q108.79-16.05 108.94-15.3L108.94-15.3 107.84-14.8Q106.79-15.35 105.94-16.32 105.09-17.3 105.09-17.7L105.09-17.7Q105.09-18.05 105.71-18.9 106.34-19.75 107.59-20.7 108.84-21.65 110.64-22.33 112.44-23 114.79-23L114.79-23Q116.34-23 117.61-22.55 118.89-22.1 119.64-20.95 120.39-19.8 120.39-17.65L120.39-17.65Q120.39-17.15 120.41-15.85 120.44-14.55 120.49-12.85 120.54-11.15 120.56-9.43 120.59-7.7 120.64-6.4 120.69-5.1 120.69-4.6L120.69-4.6Q120.74-3.25 121.26-2.73 121.79-2.2 122.49-2.2L122.49-2.2Q122.79-2.2 123.19-2.3 123.59-2.4 124.04-2.6ZM116.74-4.7L116.74-4.7 116.74-10.5Q112.34-10.4 110.34-8.85 108.34-7.3 108.34-5.55L108.34-5.55Q108.34-4.05 109.24-3.3 110.14-2.55 111.59-2.55L111.59-2.55Q112.69-2.55 114.01-3.08 115.34-3.6 116.74-4.7ZM145.49-4.5L145.49-4.5 146.09-2.85Q144.38-1.5 142.21-0.53 140.03 0.45 137.23 0.45L137.23 0.45Q133.73 0.45 131.41-1.03 129.09-2.5 127.96-5.05 126.83-7.6 126.83-10.75L126.83-10.75Q126.83-13 127.56-15.18 128.28-17.35 129.71-19.13 131.13-20.9 133.26-21.95 135.38-23 138.23-23L138.23-23Q140.38-23 142.09-22.28 143.78-21.55 144.78-20.73 145.78-19.9 145.78-19.6L145.78-19.6Q145.78-18.95 145.49-17.88 145.19-16.8 144.59-15.95L144.59-15.95 143.38-15.95Q143.09-16.8 142.38-17.8 141.69-18.8 140.53-19.55 139.38-20.3 137.69-20.3L137.69-20.3Q135.48-20.3 134.03-18.93 132.59-17.55 131.91-15.43 131.23-13.3 131.23-11.1L131.23-11.1Q131.23-6.55 133.28-4.53 135.34-2.5 138.53-2.5L138.53-2.5Q140.13-2.5 142.03-3.03 143.94-3.55 145.49-4.5ZM169.03-2.6L169.03-2.6 169.53-1.3Q167.63 0.45 165.38 0.45L165.38 0.45Q164.13 0.45 163.13-0.33 162.13-1.1 161.88-2.8L161.88-2.8Q160.03-1.4 158.21-0.48 156.38 0.45 154.28 0.45L154.28 0.45Q152.28 0.45 150.71-0.8 149.13-2.05 149.13-4.75L149.13-4.75Q149.13-6.55 150.28-8.28 151.43-10 154.21-11.23 156.98-12.45 161.73-12.75L161.73-12.75 161.73-17.4Q161.73-18.85 160.66-19.58 159.58-20.3 158.08-20.3L158.08-20.3Q155.88-20.3 154.83-19.25 153.78-18.2 153.78-16.65L153.78-16.65Q153.78-16.05 153.93-15.3L153.93-15.3 152.83-14.8Q151.78-15.35 150.93-16.32 150.08-17.3 150.08-17.7L150.08-17.7Q150.08-18.05 150.71-18.9 151.33-19.75 152.58-20.7 153.83-21.65 155.63-22.33 157.43-23 159.78-23L159.78-23Q161.33-23 162.61-22.55 163.88-22.1 164.63-20.95 165.38-19.8 165.38-17.65L165.38-17.65Q165.38-17.15 165.41-15.85 165.43-14.55 165.48-12.85 165.53-11.15 165.56-9.43 165.58-7.7 165.63-6.4 165.68-5.1 165.68-4.6L165.68-4.6Q165.73-3.25 166.26-2.73 166.78-2.2 167.48-2.2L167.48-2.2Q167.78-2.2 168.18-2.3 168.58-2.4 169.03-2.6ZM161.73-4.7L161.73-4.7 161.73-10.5Q157.33-10.4 155.33-8.85 153.33-7.3 153.33-5.55L153.33-5.55Q153.33-4.05 154.23-3.3 155.13-2.55 156.58-2.55L156.58-2.55Q157.68-2.55 159.01-3.08 160.33-3.6 161.73-4.7ZM188.88-2.8L188.88-2.8Q187.13-1.15 185.1-0.35 183.08 0.45 181.18 0.45L181.18 0.45Q178.68 0.45 176.58-0.83 174.48-2.1 173.23-4.63 171.98-7.15 171.98-10.85L171.98-10.85Q171.98-14.85 173.48-17.55 174.98-20.25 177.46-21.65 179.93-23.05 182.83-23.05L182.83-23.05Q184.43-23.05 185.78-22.68 187.13-22.3 188.83-21.3L188.83-21.3Q188.83-25.2 188.75-27.6 188.68-30 188.6-31.23 188.53-32.45 188.48-32.9 188.43-33.35 188.43-33.35L188.43-33.35 185.23-34.3 185.13-35.6Q186.03-35.6 187.25-35.73 188.48-35.85 189.68-36.08 190.88-36.3 191.73-36.5L191.73-36.5 192.68-36.05Q192.68-36.05 192.63-31.4 192.58-26.75 192.58-17.6L192.58-17.6Q192.58-11.55 192.63-8.55 192.68-5.55 192.73-4.25L192.73-4.25Q192.78-3.35 193.38-2.9 193.98-2.45 194.83-2.33 195.68-2.2 196.53-2.15L196.53-2.15 196.38-0.7Q195.03-0.6 193.63-0.33 192.23-0.05 190.93 0.2L190.93 0.2Q190.93 0.2 190.11-0.43 189.28-1.05 188.88-2.8ZM188.83-19.1L188.83-19.1Q187.53-19.55 186.41-19.78 185.28-20 184.13-20L184.13-20Q181.33-20 179.63-18.7 177.93-17.4 177.18-15.35 176.43-13.3 176.43-10.95L176.43-10.95Q176.43-7.45 178-5.08 179.58-2.7 182.93-2.7L182.93-2.7Q184.68-2.7 186.23-3.4 187.78-4.1 188.58-4.7L188.58-4.7Q188.63-5.5 188.68-7.68 188.73-9.85 188.78-12.85 188.83-15.85 188.83-19.1ZM217.38-4.15L217.38-4.15 217.98-2.65Q216.43-1.4 214.35-0.48 212.28 0.45 209.78 0.45L209.78 0.45Q206.08 0.45 203.7-1.03 201.33-2.5 200.2-4.95 199.08-7.4 199.08-10.35L199.08-10.35Q199.08-12.75 199.75-15 200.43-17.25 201.83-19.05 203.23-20.85 205.53-21.93 207.83-23 211.03-23L211.03-23Q212.83-23 214.58-22.15 216.33-21.3 217.48-19.43 218.63-17.55 218.63-14.45L218.63-14.45 216.93-12.4Q216.73-12.45 216.25-12.45 215.78-12.45 215.08-12.45L215.08-12.45Q213.83-12.45 212.13-12.43 210.43-12.4 208.68-12.35 206.93-12.3 205.48-12.23 204.03-12.15 203.33-12.1L203.33-12.1 203.33-11.65Q203.33-6.95 205.3-4.75 207.28-2.55 210.43-2.55L210.43-2.55Q212.28-2.55 213.93-2.95 215.58-3.35 217.38-4.15ZM214.13-16L214.13-16Q214.13-17.7 213.45-18.68 212.78-19.65 211.8-20.1 210.83-20.55 209.93-20.55L209.93-20.55Q207.48-20.55 205.83-18.63 204.18-16.7 203.63-14.15L203.63-14.15 213.98-14.55Q214.13-15.3 214.13-16ZM261.23-1.3L261.23-1.3 261.08 0.15Q259.88 0.05 258.43 0.03 256.98 0 255.68 0L255.68 0Q254.43 0 252.85 0.03 251.28 0.05 250.08 0.15L250.08 0.15 250.23-1.3Q250.78-1.35 251.48-1.5 252.18-1.65 252.75-1.9 253.33-2.15 253.38-2.4L253.38-2.4Q253.38-2.4 253.48-3.15 253.58-3.9 253.68-5.85 253.78-7.8 253.78-11.45L253.78-11.45 253.78-16.7Q253.78-18.55 252.7-19.23 251.63-19.9 250.03-19.9L250.03-19.9Q248.28-19.9 246.33-19.3 244.38-18.7 243.13-18.2L243.13-18.2 243.13-11.45Q243.13-7.8 243.25-5.85 243.38-3.9 243.5-3.15 243.63-2.4 243.63-2.4L243.63-2.4Q243.68-2.15 244.25-1.9 244.83-1.65 245.58-1.5 246.33-1.35 246.83-1.3L246.83-1.3 246.68 0.15Q245.48 0.05 244.03 0.03 242.58 0 241.28 0L241.28 0Q240.03 0 238.45 0.03 236.88 0.05 235.68 0.15L235.68 0.15 235.83-1.3Q236.38-1.35 237.08-1.5 237.78-1.65 238.35-1.9 238.93-2.15 238.98-2.4L238.98-2.4Q238.98-2.4 239.08-3.15 239.18-3.9 239.28-5.85 239.38-7.8 239.38-11.45L239.38-11.45 239.38-16.7Q239.38-18.55 238.3-19.23 237.23-19.9 235.63-19.9L235.63-19.9Q234.48-19.9 233.15-19.58 231.83-19.25 230.68-18.85 229.53-18.45 228.78-18.1L228.78-18.1 228.78-11.45Q228.78-7.8 228.93-5.85 229.08-3.9 229.2-3.15 229.33-2.4 229.33-2.4L229.33-2.4Q229.38-2.15 229.95-1.9 230.53-1.65 231.28-1.5 232.03-1.35 232.53-1.3L232.53-1.3 232.38 0.15Q231.18 0.05 229.73 0.03 228.28 0 226.98 0L226.98 0Q225.73 0 224.15 0.03 222.58 0.05 221.38 0.15L221.38 0.15 221.53-1.3Q222.08-1.35 222.78-1.5 223.48-1.65 224.05-1.9 224.63-2.15 224.68-2.4L224.68-2.4Q224.68-2.4 224.78-3.15 224.88-3.9 224.95-5.85 225.03-7.8 225.03-11.45L225.03-11.45Q225.03-15.1 224.93-16.88 224.83-18.65 224.73-19.23 224.63-19.8 224.63-19.8L224.63-19.8 221.43-20.75 221.33-22.05Q222.23-22.05 223.45-22.18 224.68-22.3 225.88-22.53 227.08-22.75 227.93-22.95L227.93-22.95 228.88-22.5Q228.88-22.5 228.85-21.73 228.83-20.95 228.83-20.1L228.83-20.1Q229.83-20.7 231.38-21.38 232.93-22.05 234.68-22.53 236.43-23 238.03-23L238.03-23Q239.73-23 241.05-22.35 242.38-21.7 242.88-20.1L242.88-20.1Q243.88-20.7 245.5-21.38 247.13-22.05 248.95-22.53 250.78-23 252.43-23L252.43-23Q254.58-23 256.05-21.98 257.53-20.95 257.53-18.25L257.53-18.25 257.53-11.45Q257.53-7.8 257.65-5.85 257.78-3.9 257.9-3.15 258.03-2.4 258.03-2.4L258.03-2.4Q258.07-2.15 258.65-1.9 259.23-1.65 259.98-1.5 260.73-1.35 261.23-1.3ZM270.12-22.95L270.12-22.95 271.07-22.5Q271.07-21.85 271.05-20.5 271.02-19.15 271.02-17.53 271.02-15.9 271-14.28 270.97-12.65 270.97-11.45L270.97-11.45Q270.97-7.8 271.1-5.85 271.22-3.9 271.35-3.15 271.47-2.4 271.47-2.4L271.47-2.4Q271.52-2.15 272.2-1.9 272.87-1.65 273.7-1.5 274.52-1.35 275.02-1.3L275.02-1.3 274.87 0.15Q273.67 0.05 272.05 0.03 270.42 0 269.12 0L269.12 0Q267.87 0 266.12 0.03 264.37 0.05 263.17 0.15L263.17 0.15 263.32-1.3Q263.87-1.35 264.67-1.5 265.47-1.65 266.12-1.9 266.77-2.15 266.82-2.4L266.82-2.4Q266.82-2.4 266.92-3.15 267.02-3.9 267.12-5.85 267.22-7.8 267.22-11.45L267.22-11.45Q267.22-15.1 267.12-16.88 267.02-18.65 266.92-19.23 266.82-19.8 266.82-19.8L266.82-19.8 263.62-20.75 263.52-22.05Q264.42-22.05 265.65-22.18 266.87-22.3 268.07-22.53 269.27-22.75 270.12-22.95ZM268.97-28.15L268.97-28.15Q267.87-28.15 267.12-28.93 266.37-29.7 266.37-30.85L266.37-30.85Q266.37-31.95 267.12-32.7 267.87-33.45 268.97-33.45L268.97-33.45Q270.07-33.45 270.82-32.7 271.57-31.95 271.57-30.85L271.57-30.85Q271.57-29.7 270.82-28.93 270.07-28.15 268.97-28.15ZM296.27-4.5L296.27-4.5 296.87-2.85Q295.17-1.5 293-0.53 290.82 0.45 288.02 0.45L288.02 0.45Q284.52 0.45 282.2-1.03 279.87-2.5 278.75-5.05 277.62-7.6 277.62-10.75L277.62-10.75Q277.62-13 278.35-15.18 279.07-17.35 280.5-19.13 281.92-20.9 284.05-21.95 286.17-23 289.02-23L289.02-23Q291.17-23 292.87-22.28 294.57-21.55 295.57-20.73 296.57-19.9 296.57-19.6L296.57-19.6Q296.57-18.95 296.27-17.88 295.97-16.8 295.37-15.95L295.37-15.95 294.17-15.95Q293.87-16.8 293.17-17.8 292.47-18.8 291.32-19.55 290.17-20.3 288.47-20.3L288.47-20.3Q286.27-20.3 284.82-18.93 283.37-17.55 282.7-15.43 282.02-13.3 282.02-11.1L282.02-11.1Q282.02-6.55 284.07-4.53 286.12-2.5 289.32-2.5L289.32-2.5Q290.92-2.5 292.82-3.03 294.72-3.55 296.27-4.5ZM330.92-4.5L330.92-4.5 331.52-2.85Q329.82-1.5 327.64-0.53 325.47 0.45 322.67 0.45L322.67 0.45Q319.17 0.45 316.84-1.03 314.52-2.5 313.39-5.05 312.27-7.6 312.27-10.75L312.27-10.75Q312.27-13 312.99-15.18 313.72-17.35 315.14-19.13 316.57-20.9 318.69-21.95 320.82-23 323.67-23L323.67-23Q325.82-23 327.52-22.28 329.22-21.55 330.22-20.73 331.22-19.9 331.22-19.6L331.22-19.6Q331.22-18.95 330.92-17.88 330.62-16.8 330.02-15.95L330.02-15.95 328.82-15.95Q328.52-16.8 327.82-17.8 327.12-18.8 325.97-19.55 324.82-20.3 323.12-20.3L323.12-20.3Q320.92-20.3 319.47-18.93 318.02-17.55 317.34-15.43 316.67-13.3 316.67-11.1L316.67-11.1Q316.67-6.55 318.72-4.53 320.77-2.5 323.97-2.5L323.97-2.5Q325.57-2.5 327.47-3.03 329.37-3.55 330.92-4.5ZM357.11-12.15L357.11-12.15Q357.11-9.75 356.44-7.5 355.76-5.25 354.36-3.45 352.96-1.65 350.69-0.6 348.41 0.45 345.16 0.45L345.16 0.45Q339.56 0.45 337.06-2.53 334.56-5.5 334.56-10.3L334.56-10.3Q334.56-12.7 335.24-14.95 335.91-17.2 337.31-19.03 338.71-20.85 341.01-21.93 343.31-23 346.51-23L346.51-23Q350.26-23 352.59-21.63 354.91-20.25 356.01-17.8 357.11-15.35 357.11-12.15ZM352.81-10.3L352.81-10.3Q352.81-12.85 352.24-15.2 351.66-17.55 350.19-19.05 348.71-20.55 345.96-20.55L345.96-20.55Q343.76-20.55 342.36-19.53 340.96-18.5 340.21-17 339.46-15.5 339.16-14 338.86-12.5 338.86-11.5L338.86-11.5Q338.86-9.05 339.51-6.88 340.16-4.7 341.66-3.33 343.16-1.95 345.71-1.95L345.71-1.95Q347.71-1.95 349.09-2.83 350.46-3.7 351.29-5.05 352.11-6.4 352.46-7.83 352.81-9.25 352.81-10.3ZM366.81-22.95L366.81-22.95 367.76-22.5 367.76-20.1Q368.81-20.7 370.41-21.38 372.01-22.05 373.86-22.53 375.71-23 377.41-23L377.41-23Q379.56-23 381.04-21.98 382.51-20.95 382.51-18.25L382.51-18.25 382.51-11.45Q382.51-7.8 382.63-5.85 382.76-3.9 382.88-3.15 383.01-2.4 383.01-2.4L383.01-2.4Q383.06-2.15 383.63-1.9 384.21-1.65 384.96-1.5 385.71-1.35 386.21-1.3L386.21-1.3 386.06 0.15Q384.86 0.05 383.41 0.03 381.96 0 380.66 0L380.66 0Q379.41 0 377.83 0.03 376.26 0.05 375.06 0.15L375.06 0.15 375.21-1.3Q375.76-1.35 376.46-1.5 377.16-1.65 377.74-1.9 378.31-2.15 378.36-2.4L378.36-2.4Q378.36-2.4 378.46-3.15 378.56-3.9 378.66-5.85 378.76-7.8 378.76-11.45L378.76-11.45 378.76-16.7Q378.76-18.55 377.69-19.23 376.61-19.9 375.01-19.9L375.01-19.9Q373.76-19.9 372.38-19.58 371.01-19.25 369.76-18.85 368.51-18.45 367.71-18.1L367.71-18.1Q367.71-16.85 367.69-15.25 367.66-13.65 367.66-11.45L367.66-11.45Q367.66-7.8 367.79-5.85 367.91-3.9 368.04-3.15 368.16-2.4 368.16-2.4L368.16-2.4Q368.21-2.15 368.79-1.9 369.36-1.65 370.11-1.5 370.86-1.35 371.36-1.3L371.36-1.3 371.21 0.15Q370.01 0.05 368.56 0.03 367.11 0 365.81 0L365.81 0Q364.56 0 362.99 0.03 361.41 0.05 360.21 0.15L360.21 0.15 360.36-1.3Q360.91-1.35 361.61-1.5 362.31-1.65 362.88-1.9 363.46-2.15 363.51-2.4L363.51-2.4Q363.51-2.4 363.61-3.15 363.71-3.9 363.81-5.85 363.91-7.8 363.91-11.45L363.91-11.45Q363.91-15.1 363.81-16.88 363.71-18.65 363.61-19.23 363.51-19.8 363.51-19.8L363.51-19.8 360.31-20.75 360.21-22.05Q361.11-22.05 362.33-22.18 363.56-22.3 364.76-22.53 365.96-22.75 366.81-22.95ZM402.61-3.55L402.61-3.55 403.21-1.9Q401.51-0.8 399.96-0.18 398.41 0.45 396.81 0.45L396.81 0.45Q394.66 0.45 393.13-0.6 391.61-1.65 391.61-4.55L391.61-4.55Q391.61-4.55 391.63-5.78 391.66-7 391.66-8.78 391.66-10.55 391.66-12.15L391.66-12.15Q391.66-14.65 391.63-16.73 391.61-18.8 391.56-20.3L391.56-20.3Q390.06-20.25 389.21-20.25 388.36-20.25 388.36-20.25L388.36-20.25 388.21-20.8 389.36-22.75Q389.36-22.75 389.88-22.68 390.41-22.6 391.46-22.55L391.46-22.55Q391.46-23.55 391.41-24.63 391.36-25.7 391.31-26.43 391.26-27.15 391.26-27.15L391.26-27.15 394.56-30.1 395.51-29.65Q395.51-29.65 395.48-28.58 395.46-27.5 395.43-25.9 395.41-24.3 395.41-22.6L395.41-22.6Q398.81-22.6 400.78-22.63 402.76-22.65 402.76-22.65L402.76-22.65 403.01-22.05 401.21-20.05Q401.21-20.05 399.86-20.15 398.51-20.25 395.41-20.3L395.41-20.3 395.41-13.6Q395.41-10.6 395.43-8.65 395.46-6.7 395.56-4.65L395.56-4.65Q395.66-3.4 396.41-2.9 397.16-2.4 398.21-2.4L398.21-2.4Q399.36-2.4 400.58-2.8 401.81-3.2 402.61-3.55ZM423.56-4.15L423.56-4.15 424.16-2.65Q422.61-1.4 420.53-0.48 418.46 0.45 415.96 0.45L415.96 0.45Q412.26 0.45 409.88-1.03 407.51-2.5 406.38-4.95 405.26-7.4 405.26-10.35L405.26-10.35Q405.26-12.75 405.93-15 406.61-17.25 408.01-19.05 409.41-20.85 411.71-21.93 414.01-23 417.21-23L417.21-23Q419.01-23 420.76-22.15 422.51-21.3 423.66-19.43 424.81-17.55 424.81-14.45L424.81-14.45 423.11-12.4Q422.91-12.45 422.43-12.45 421.96-12.45 421.26-12.45L421.26-12.45Q420.01-12.45 418.31-12.43 416.61-12.4 414.86-12.35 413.11-12.3 411.66-12.23 410.21-12.15 409.51-12.1L409.51-12.1 409.51-11.65Q409.51-6.95 411.48-4.75 413.46-2.55 416.61-2.55L416.61-2.55Q418.46-2.55 420.11-2.95 421.76-3.35 423.56-4.15ZM420.31-16L420.31-16Q420.31-17.7 419.63-18.68 418.96-19.65 417.98-20.1 417.01-20.55 416.11-20.55L416.11-20.55Q413.66-20.55 412.01-18.63 410.36-16.7 409.81-14.15L409.81-14.15 420.16-14.55Q420.31-15.3 420.31-16ZM434.1-22.95L434.1-22.95 435.05-22.5 435.05-20.1Q436.1-20.7 437.7-21.38 439.3-22.05 441.15-22.53 443-23 444.7-23L444.7-23Q446.85-23 448.33-21.98 449.8-20.95 449.8-18.25L449.8-18.25 449.8-11.45Q449.8-7.8 449.93-5.85 450.05-3.9 450.18-3.15 450.3-2.4 450.3-2.4L450.3-2.4Q450.35-2.15 450.93-1.9 451.5-1.65 452.25-1.5 453-1.35 453.5-1.3L453.5-1.3 453.35 0.15Q452.15 0.05 450.7 0.03 449.25 0 447.95 0L447.95 0Q446.7 0 445.13 0.03 443.55 0.05 442.35 0.15L442.35 0.15 442.5-1.3Q443.05-1.35 443.75-1.5 444.45-1.65 445.03-1.9 445.6-2.15 445.65-2.4L445.65-2.4Q445.65-2.4 445.75-3.15 445.85-3.9 445.95-5.85 446.05-7.8 446.05-11.45L446.05-11.45 446.05-16.7Q446.05-18.55 444.98-19.23 443.9-19.9 442.3-19.9L442.3-19.9Q441.05-19.9 439.68-19.58 438.3-19.25 437.05-18.85 435.8-18.45 435-18.1L435-18.1Q435-16.85 434.98-15.25 434.95-13.65 434.95-11.45L434.95-11.45Q434.95-7.8 435.08-5.85 435.2-3.9 435.33-3.15 435.45-2.4 435.45-2.4L435.45-2.4Q435.5-2.15 436.08-1.9 436.65-1.65 437.4-1.5 438.15-1.35 438.65-1.3L438.65-1.3 438.5 0.15Q437.3 0.05 435.85 0.03 434.4 0 433.1 0L433.1 0Q431.85 0 430.28 0.03 428.7 0.05 427.5 0.15L427.5 0.15 427.65-1.3Q428.2-1.35 428.9-1.5 429.6-1.65 430.18-1.9 430.75-2.15 430.8-2.4L430.8-2.4Q430.8-2.4 430.9-3.15 431-3.9 431.1-5.85 431.2-7.8 431.2-11.45L431.2-11.45Q431.2-15.1 431.1-16.88 431-18.65 430.9-19.23 430.8-19.8 430.8-19.8L430.8-19.8 427.6-20.75 427.5-22.05Q428.4-22.05 429.63-22.18 430.85-22.3 432.05-22.53 433.25-22.75 434.1-22.95ZM469.9-3.55L469.9-3.55 470.5-1.9Q468.8-0.8 467.25-0.18 465.7 0.45 464.1 0.45L464.1 0.45Q461.95 0.45 460.43-0.6 458.9-1.65 458.9-4.55L458.9-4.55Q458.9-4.55 458.93-5.78 458.95-7 458.95-8.78 458.95-10.55 458.95-12.15L458.95-12.15Q458.95-14.65 458.93-16.73 458.9-18.8 458.85-20.3L458.85-20.3Q457.35-20.25 456.5-20.25 455.65-20.25 455.65-20.25L455.65-20.25 455.5-20.8 456.65-22.75Q456.65-22.75 457.18-22.68 457.7-22.6 458.75-22.55L458.75-22.55Q458.75-23.55 458.7-24.63 458.65-25.7 458.6-26.43 458.55-27.15 458.55-27.15L458.55-27.15 461.85-30.1 462.8-29.65Q462.8-29.65 462.78-28.58 462.75-27.5 462.73-25.9 462.7-24.3 462.7-22.6L462.7-22.6Q466.1-22.6 468.08-22.63 470.05-22.65 470.05-22.65L470.05-22.65 470.3-22.05 468.5-20.05Q468.5-20.05 467.15-20.15 465.8-20.25 462.7-20.3L462.7-20.3 462.7-13.6Q462.7-10.6 462.73-8.65 462.75-6.7 462.85-4.65L462.85-4.65Q462.95-3.4 463.7-2.9 464.45-2.4 465.5-2.4L465.5-2.4Q466.65-2.4 467.88-2.8 469.1-3.2 469.9-3.55Z" opacity="1" transform="matrix(1,0,0,1,0,0)" fill="#000000" class="slogan-text-1" data-fill-palette-color="secondary" id="text-1"></path></svg></g></svg></g></svg></g></svg></g><g><svg viewBox="0 0 111.48181552224673 114.9622876987811" height="114.9622876987811" width="111.48181552224673"><g><svg xmlns="http://www.w3.org/2000/svg" width="111.48181552224673" height="114.9622876987811" version="1.0" viewBox="-0.015208469235689803 0 210.9152084692357 217.5" x="0" y="0" class="icon-icon-0" data-fill-palette-color="accent" id="icon-0"><path d="M138.4 4.3l-4.5 4.4V31H75.4c-55.8 0-58.8 0.1-62.3 1.9-2.1 1.1-5.2 3.4-7 5.2-6.5 6.7-6.3 3.4-6 88.6l0.3 77.1 3 4.4c1.7 2.3 5.1 5.4 7.5 6.8l4.5 2.5h87.5c66.5 0 88.5-0.3 91.6-1.2 5.3-1.7 11.7-7.3 14.3-12.6 2.1-4.3 2.1-5.1 2.1-93.8V20.4l-2.9-4.5c-3.9-6-11.9-13.4-16-14.8C189.9 0.4 180.1 0 165.8 0h-22.9z m53.7 12.5c5.1 5.2 6.2 7.7 5.2 11.6l-0.6 2.6h-48.8V12.1h39.6z m-57.4 107.3l-0.3 81.1-57.7-0.3-57.8-0.4-2.4-2.5c-1.4-1.4-2.6-3.4-2.7-4.5-0.1-1.1-0.1-34.9-0.1-75.1 0.2-70.4 0.3-73.3 2.1-75.5l1.9-2.4 58.4-0.5c32-0.3 58.4-0.6 58.6-0.8 0.1-0.1 0.1 36.3 0 80.9m62.5-2.4l-0.3 77.8-3 2.7-3 2.8h-22.1c-19.8 0-22-0.2-21.5-1.6 0.3-0.9 0.6-37.1 0.6-80.5V44h49.6z" fill="#000000" data-fill-palette-color="accent"></path></svg></g></svg></g></svg></g><defs></defs></svg><rect width="395.52" height="84.74891741646452" fill="none" stroke="none" visibility="hidden"></rect></g></svg></g></svg>