<svg width="36" height="36" viewBox="0 0 36 36" fill="none" xmlns="http://www.w3.org/2000/svg">
<path d="M18 36C27.9411 36 36 27.9411 36 18C36 8.05887 27.9411 0 18 0C8.05888 0 0 8.05887 0 18C0 27.9411 8.05888 36 18 36Z" fill="#B6745E"/>
<path d="M18 35.0511C27.417 35.0511 35.0511 27.4171 35.0511 18C35.0511 8.583 27.417 0.948975 18 0.948975C8.58296 0.948975 0.948952 8.583 0.948952 18C0.948952 27.4171 8.58296 35.0511 18 35.0511Z" fill="#E6D894"/>
<path d="M18 35.0511C27.4179 35.0511 35.0511 27.418 35.0511 18C35.0511 8.58209 27.4179 0.948975 18 0.948975V35.0511Z" fill="#E6D06B"/>
<path d="M18 33.9862C26.8289 33.9862 33.9861 26.8289 33.9861 18C33.9861 9.17114 26.8289 2.01392 18 2.01392C9.17111 2.01392 2.01389 9.17114 2.01389 18C2.01389 26.8289 9.17111 33.9862 18 33.9862Z" stroke="white" stroke-miterlimit="10"/>
<path d="M17.8007 32.1775C21.6319 32.1775 24.7377 25.83 24.7377 18C24.7377 10.17 21.6319 3.82251 17.8007 3.82251C13.9695 3.82251 10.8637 10.17 10.8637 18C10.8637 25.83 13.9695 32.1775 17.8007 32.1775Z" stroke="#B6745E" stroke-miterlimit="10"/>
<path d="M21.4746 23.8826C28.1215 19.7436 31.8681 13.7519 29.8429 10.4995C27.8177 7.24721 20.7876 7.96595 14.1407 12.1049C7.49385 16.2438 3.7472 22.2356 5.77239 25.488C7.79757 28.7403 14.8277 28.0215 21.4746 23.8826Z" stroke="#B6745E" stroke-miterlimit="10"/>
<path d="M30.0768 25.0976C31.9924 21.7798 28.0484 15.9164 21.2676 12.0014C14.4868 8.0864 7.43699 7.60229 5.52138 10.9201C3.60577 14.238 7.54977 20.1014 14.3306 24.0164C21.1113 27.9314 28.1612 28.4154 30.0768 25.0976Z" stroke="#B6745E" stroke-miterlimit="10"/>
<path d="M14.1597 6.53249C14.5786 6.53249 14.9182 6.19287 14.9182 5.77393C14.9182 5.355 14.5786 5.01538 14.1597 5.01538C13.7407 5.01538 13.4011 5.355 13.4011 5.77393C13.4011 6.19287 13.7407 6.53249 14.1597 6.53249Z" fill="#B6745E"/>
<path d="M30.2023 25.9216C30.6212 25.9216 30.9609 25.582 30.9609 25.1631C30.9609 24.7442 30.6212 24.4045 30.2023 24.4045C29.7833 24.4045 29.4438 24.7442 29.4438 25.1631C29.4438 25.582 29.7833 25.9216 30.2023 25.9216Z" fill="#B6745E"/>
<path d="M5.97623 21.0609C6.39516 21.0609 6.73476 20.7213 6.73476 20.3024C6.73476 19.8834 6.39516 19.5438 5.97623 19.5438C5.55729 19.5438 5.21766 19.8834 5.21766 20.3024C5.21766 20.7213 5.55729 21.0609 5.97623 21.0609Z" fill="#B6745E"/>
<path d="M13.2613 16.1617V20.9004C13.2613 21.2276 13.5261 21.4924 13.8533 21.4924H15.6292V15.5697H13.8533C13.529 15.5697 13.2613 15.8345 13.2613 16.1617Z" fill="#313332"/>
<path d="M21.644 16.1616H19.8949C19.7432 16.1616 19.6658 16.0605 19.6391 16.0159C19.6123 15.9713 19.5617 15.8552 19.6361 15.7214L20.2519 14.6118C20.3857 14.3679 20.4006 14.0823 20.2906 13.8265C20.1805 13.5707 19.9604 13.3862 19.6897 13.3178L19.2554 13.2077C19.1483 13.181 19.0382 13.2137 18.9638 13.297L16.6019 15.9207C16.358 16.1944 16.2211 16.5454 16.2211 16.9113V20.0109C16.2211 20.826 16.8845 21.4923 17.7025 21.4923H20.6475C21.3138 21.4923 21.8999 21.0431 22.0754 20.4036L22.709 17.5032C22.7268 17.4229 22.7358 17.3396 22.7358 17.2563C22.7387 16.6525 22.2479 16.1616 21.644 16.1616Z" fill="#313332"/>
</svg>
