<svg width="36" height="36" viewBox="0 0 36 36" fill="none" xmlns="http://www.w3.org/2000/svg">
<path d="M36 18L34.1352 20.3058L35.2745 23.0395L32.8288 24.7287L33.1434 27.6679L30.3179 28.6026L29.7879 31.5137L26.8123 31.6234L25.4775 34.2699L22.5925 33.5407L20.5605 35.7001L17.9986 34.191L15.4395 35.7001L13.4075 33.5407L10.5197 34.2699L9.18775 31.6234L6.21208 31.5137L5.68212 28.6026L2.85665 27.6679L3.17122 24.7287L0.725497 23.0395L1.86476 20.3058L0 18L1.86476 15.6943L0.725497 12.9606L3.17122 11.2742L2.85665 8.3322L5.68212 7.3975L6.21208 4.48645L9.18775 4.37665L10.5197 1.73305L13.4075 2.46222L15.4395 0.300049L17.9986 1.80907L20.5605 0.300049L22.5925 2.46222L25.4803 1.73305L26.8123 4.37665L29.7879 4.48645L30.3179 7.3975L33.1434 8.3322L32.8288 11.2742L35.2745 12.9634L34.1352 15.6943L36 18Z" fill="#759BAB"/>
<path d="M17.9986 32.195C25.8901 32.195 32.2875 25.8397 32.2875 18.0001C32.2875 10.1605 25.8901 3.80518 17.9986 3.80518C10.107 3.80518 3.70967 10.1605 3.70967 18.0001C3.70967 25.8397 10.107 32.195 17.9986 32.195Z" fill="#EEEEEE"/>
<path d="M17.9986 30.6042C25.0058 30.6042 30.6863 24.9611 30.6863 18C30.6863 11.0389 25.0058 5.39575 17.9986 5.39575C10.9914 5.39575 5.31087 11.0389 5.31087 18C5.31087 24.9611 10.9914 30.6042 17.9986 30.6042Z" fill="#435573"/>
<path d="M17.9986 29.9174C11.3841 29.9174 6.0052 24.571 6.0052 18.0029C6.0052 11.4347 11.3869 6.08838 17.9986 6.08838C24.6103 6.08838 29.992 11.4347 29.992 18.0029C29.992 24.571 24.6131 29.9174 17.9986 29.9174ZM17.9986 6.22633C11.4634 6.22633 6.1469 11.5079 6.1469 18.0001C6.1469 24.4922 11.4634 29.7738 17.9986 29.7738C24.5337 29.7738 29.8503 24.4922 29.8503 18.0001C29.8503 11.5079 24.5366 6.22633 17.9986 6.22633Z" fill="white"/>
<path d="M16.2897 17.6312L15.9694 16.4009C16.9897 16.2855 17.769 16.018 18.3018 15.5929C18.8346 15.1706 19.1492 14.5878 19.2484 13.8474C18.7326 14.1824 18.1176 14.3513 17.3978 14.3513C16.6779 14.3513 16.1168 14.1233 15.7116 13.6644C15.3063 13.2055 15.1051 12.558 15.1051 11.719C15.1051 10.88 15.3573 10.1818 15.8646 9.62156C16.3719 9.06131 17.1087 8.78259 18.0751 8.78259C19.0415 8.78259 19.7528 9.12606 20.2062 9.81582C20.6597 10.5028 20.8864 11.4262 20.8864 12.5805C20.8836 15.6717 19.3504 17.3581 16.2897 17.6312ZM17.0208 10.4577C16.78 10.759 16.6609 11.1587 16.6609 11.6627C16.6609 12.1666 16.763 12.5467 16.967 12.8085C17.1711 13.0675 17.4261 13.1999 17.7322 13.1999C18.0383 13.1999 18.3415 13.1492 18.6391 13.0478C18.9366 12.9465 19.1662 12.8339 19.3249 12.71C19.3249 12.6312 19.3249 12.5523 19.3249 12.4707C19.3249 10.8293 18.8771 10.0101 17.9787 10.0101C17.5791 10.0101 17.2617 10.1593 17.0208 10.4577Z" fill="#EEEEEE"/>
<path d="M25.5936 15.075L26.2369 16.37L27.6766 16.5783L26.6337 17.5834L26.8803 19.008L25.5936 18.3351L24.307 19.008L24.5536 17.5834L23.5135 16.5783L24.9503 16.37L25.5936 15.075Z" fill="#FBB040"/>
<path d="M10.5452 15.075L11.1885 16.37L12.6254 16.5783L11.5853 17.5834L11.829 19.008L10.5452 18.3351L9.2586 19.008L9.50515 17.5834L8.46225 16.5783L9.90191 16.37L10.5452 15.075Z" fill="#FBB040"/>
<path d="M10.8031 25.441V24.9174L11.0185 24.8976C11.1432 24.8836 11.2084 24.8244 11.2084 24.7175V21.7051L10.8371 21.6854V21.1335H12.7019C13.1893 21.1335 13.5663 21.2462 13.8383 21.4742C14.1104 21.6994 14.2464 22.0401 14.2464 22.4934C14.2464 22.9466 14.0934 23.2985 13.7845 23.5519C13.4756 23.8053 13.0675 23.932 12.5602 23.932H12.0047V24.8695L12.631 24.8892V25.441H10.8031ZM12.0047 23.3042H12.4752C13.11 23.3042 13.4274 23.048 13.4274 22.5328C13.4274 22.2231 13.3452 22.0147 13.1837 21.9134C13.0193 21.812 12.7614 21.7614 12.4043 21.7614H12.0076V23.3042H12.0047Z" fill="#EEEEEE"/>
<path d="M17.7464 25.441H14.6488V24.9174L14.8642 24.8976C14.9889 24.8836 15.0541 24.8244 15.0541 24.7175V21.7051L14.6828 21.6854V21.1335H16.2529V21.6572L16.0375 21.6769C15.9128 21.691 15.8476 21.7586 15.8476 21.8852V24.7738H16.9302C16.9897 24.7738 17.0322 24.7569 17.052 24.7259C17.0719 24.6949 17.0804 24.6415 17.0804 24.5683V24.115L17.7464 24.16V25.441Z" fill="#EEEEEE"/>
<path d="M19.0812 21.8937V24.0446C19.0812 24.3458 19.1548 24.5598 19.2994 24.6837C19.4439 24.8075 19.6536 24.8695 19.9257 24.8695C20.1977 24.8695 20.4075 24.8019 20.5577 24.6696C20.7079 24.5373 20.7816 24.3402 20.7816 24.0812V21.7107L20.4046 21.691V21.1392H21.9491V21.6628L21.7338 21.6825C21.6091 21.6966 21.5439 21.7614 21.5439 21.8768V24.1882C21.5439 24.6077 21.3965 24.9342 21.1018 25.1735C20.8071 25.41 20.399 25.5283 19.8775 25.5283C19.3561 25.5283 18.9621 25.4128 18.6957 25.182C18.4293 24.9511 18.2962 24.5851 18.2962 24.084V21.7079L17.9192 21.6882V21.1364H19.4978V21.66L19.2824 21.6797C19.2115 21.6882 19.1633 21.7079 19.1322 21.736C19.0982 21.7614 19.0812 21.8148 19.0812 21.8937Z" fill="#EEEEEE"/>
<path d="M23.573 24.8582C24.0945 24.8582 24.3552 24.6499 24.3552 24.236C24.3552 24.0192 24.239 23.8616 24.0094 23.7574C23.8876 23.6983 23.7289 23.642 23.5362 23.5885C23.3435 23.5378 23.1819 23.4843 23.0544 23.4308C22.9269 23.3773 22.7965 23.3013 22.6661 23.2084C22.4083 23.0198 22.2807 22.727 22.2807 22.33C22.2807 21.9359 22.4196 21.6234 22.6945 21.3982C22.9694 21.1701 23.3321 21.0575 23.7771 21.0575C24.222 21.0575 24.6358 21.1448 25.0183 21.3221V22.2934L24.3524 22.3385V21.964C24.3524 21.8993 24.3439 21.8514 24.3269 21.8205C24.2787 21.7388 24.1256 21.6966 23.8678 21.6966C23.6099 21.6966 23.4172 21.7416 23.2953 21.8317C23.1706 21.9218 23.1082 22.0626 23.1082 22.254C23.1082 22.392 23.1593 22.513 23.2641 22.6172C23.335 22.6876 23.437 22.7439 23.573 22.7889C23.7091 22.834 23.8564 22.8818 24.0094 22.9269C24.1625 22.9747 24.3014 23.0254 24.4204 23.0817C24.5394 23.138 24.6641 23.2169 24.7945 23.3154C25.0609 23.5096 25.1912 23.8109 25.1912 24.2163C25.1912 24.6217 25.0439 24.9427 24.752 25.1735C24.4601 25.4072 24.0718 25.5226 23.5929 25.5226C23.1139 25.5226 22.6803 25.4353 22.2977 25.258V24.236L22.9637 24.191V24.5851C22.9637 24.6499 22.9722 24.6977 22.9892 24.7287C23.0062 24.7597 23.0601 24.7878 23.1479 24.816C23.2414 24.8441 23.3831 24.8582 23.573 24.8582Z" fill="#EEEEEE"/>
</svg>
