<svg width="36" height="36" viewBox="0 0 36 36" fill="none" xmlns="http://www.w3.org/2000/svg">
<path d="M36 17.9986C36 18.9258 34.7819 19.7466 34.6436 20.6364C34.4996 21.5493 35.4039 22.7041 35.1245 23.5623C34.8395 24.4377 33.4284 24.8409 33.0166 25.6501C32.599 26.4651 33.1001 27.8474 32.5644 28.5817C32.0259 29.3218 30.5601 29.27 29.915 29.915C29.27 30.5601 29.3218 32.0259 28.5817 32.5644C27.8474 33.1001 26.468 32.599 25.6501 33.0166C24.8438 33.4284 24.4377 34.8395 23.5652 35.1245C22.707 35.4039 21.5493 34.4996 20.6393 34.6436C19.7495 34.7819 18.9287 36 18.0014 36C17.0742 36 16.2534 34.7819 15.3636 34.6436C14.4507 34.4996 13.2959 35.4039 12.4377 35.1245C11.5623 34.8395 11.1591 33.4284 10.3499 33.0166C9.53492 32.599 8.15263 33.1001 7.41829 32.5644C6.67819 32.0259 6.73002 30.5601 6.08495 29.915C5.43989 29.27 3.97408 29.3218 3.43556 28.5817C2.89993 27.8474 3.40101 26.468 2.98345 25.6501C2.57164 24.8438 1.16055 24.4377 0.875452 23.5652C0.596115 22.707 1.50036 21.5493 1.35637 20.6393C1.21814 19.7495 0 18.9287 0 18.0014C0 17.0742 1.21814 16.2534 1.35637 15.3636C1.50036 14.4507 0.596115 13.2959 0.875452 12.4377C1.16055 11.5623 2.57164 11.1591 2.98345 10.3499C3.40101 9.53492 2.89993 8.15263 3.43556 7.41829C3.97408 6.67818 5.43989 6.73002 6.08495 6.08495C6.73002 5.43988 6.67819 3.97408 7.41829 3.43556C8.15263 2.89993 9.53204 3.40101 10.3499 2.98344C11.1562 2.57163 11.5623 1.16055 12.4348 0.87545C13.293 0.596112 14.4507 1.50036 15.3607 1.35637C16.2505 1.21814 17.0713 0 17.9986 0C18.9258 0 19.7466 1.21814 20.6364 1.35637C21.5493 1.50036 22.7041 0.596112 23.5623 0.87545C24.4377 1.16055 24.8409 2.57163 25.6501 2.98344C26.4651 3.40101 27.8474 2.89993 28.5817 3.43556C29.3218 3.97408 29.27 5.43988 29.915 6.08495C30.5601 6.73002 32.0259 6.67818 32.5644 7.41829C33.1001 8.15263 32.599 9.53204 33.0166 10.3499C33.4284 11.1562 34.8395 11.5623 35.1245 12.4348C35.4039 13.293 34.4996 14.4507 34.6436 15.3607C34.7847 16.2505 36 17.0713 36 17.9986Z" fill="#1D6C5B"/>
<path d="M17.9985 32.5183C26.0176 32.5183 32.5183 26.0176 32.5183 17.9986C32.5183 9.97949 26.0176 3.47876 17.9985 3.47876C9.97949 3.47876 3.47876 9.97949 3.47876 17.9986C3.47876 26.0176 9.97949 32.5183 17.9985 32.5183Z" fill="#73AB81"/>
<path d="M17.9986 31.8646C25.6566 31.8646 31.8646 25.6566 31.8646 17.9985C31.8646 10.3405 25.6566 4.13245 17.9986 4.13245C10.3405 4.13245 4.13248 10.3405 4.13248 17.9985C4.13248 25.6566 10.3405 31.8646 17.9986 31.8646Z" fill="#139679"/>
<path d="M17.9985 31.09C25.2287 31.09 31.09 25.2287 31.09 17.9985C31.09 10.7683 25.2287 4.9071 17.9985 4.9071C10.7684 4.9071 4.90712 10.7683 4.90712 17.9985C4.90712 25.2287 10.7684 31.09 17.9985 31.09Z" fill="#139679"/>
<path d="M35.7322 17.9985L19.496 18.0619L35.6832 19.3491L19.4874 18.1799L35.5277 20.6969L19.4701 18.2923L35.2714 22.036L19.4442 18.4017L34.9086 23.3491L19.4125 18.5054L34.4478 24.6335L19.3693 18.609L33.8891 25.8747L19.3204 18.7098L33.2383 27.0698L19.2628 18.8077L32.5011 28.2073L19.1937 18.9028L31.6775 29.2872L19.1188 18.9949L30.7761 30.298L19.0382 19.0784L29.7998 31.2368L18.9489 19.1591L28.7545 32.1008L18.8567 19.2282L27.6458 32.8812L18.7588 19.2915L26.4766 33.5781L18.658 19.3463L25.2584 34.1828L18.5572 19.3923L23.9942 34.6925L18.4536 19.4298L22.6955 35.1015L18.347 19.4586L21.3679 35.4125L18.2376 19.4787L20.023 35.617L18.1224 19.4931L18.6724 35.7206L17.9986 19.496L17.3247 35.7206L17.8747 19.4931L15.9741 35.617L17.7595 19.4787L14.6292 35.4125L17.6501 19.4586L13.3016 35.1015L17.5436 19.4298L12.0029 34.6925L17.4399 19.3923L10.7387 34.1799L17.3391 19.3463L9.52051 33.5752L17.2383 19.2915L8.35133 32.8812L17.1433 19.2282L7.24261 32.0979L17.0482 19.1591L6.19726 31.2368L16.9618 19.0784L5.22102 30.2951L16.8783 18.9949L4.31965 29.2843L16.8034 18.9028L3.49604 28.2073L16.7372 18.8077L2.75882 27.0669L16.6796 18.7098L2.10799 25.8747L16.6278 18.609L1.54931 24.6306L16.5875 18.5054L1.08855 23.3491L16.5529 18.4017L0.728577 22.0331L16.5299 18.2923L0.469399 20.6969L16.5126 18.1799L0.316772 19.3491L16.504 18.0619L0.264938 17.9985L16.504 17.9352L0.316772 16.6508L16.5126 17.8171L0.469399 15.3002L16.5299 17.7048L0.728577 13.964L16.5529 17.5982L1.08855 12.6479L16.5875 17.4917L1.54931 11.3664L16.6278 17.3909L2.10799 10.1223L16.6796 17.2901L2.75882 8.93013L16.7372 17.1893L3.49891 7.78974L16.8034 17.0943L4.31965 6.7127L16.8783 17.005L5.2239 5.69902L16.9618 16.9186L6.20014 4.76022L17.0482 16.8409L7.2455 3.89917L17.1433 16.7689L8.35421 3.11587L17.2383 16.7055L9.52051 2.42185L17.3391 16.6508L10.7387 1.81709L17.4399 16.6076L12.0029 1.30737L17.5436 16.5702L13.3045 0.895568L17.6501 16.5414L14.6292 0.587432L17.7595 16.5183L15.9741 0.380089L17.8747 16.5068L17.3247 0.279297L17.9986 16.501L18.6724 0.279297L18.1224 16.5068L20.023 0.380089L18.2376 16.5183L21.3679 0.587432L18.347 16.5414L22.6955 0.895568L18.4536 16.5702L23.9971 1.30737L18.5572 16.6076L25.2584 1.81709L18.658 16.6537L26.4795 2.42185L18.7588 16.7055L27.6458 3.11875L18.8567 16.7689L28.7545 3.89917L18.9489 16.8409L29.7998 4.7631L19.0382 16.9186L30.7761 5.7019L19.1188 17.005L31.6775 6.7127L19.1937 17.0943L32.5011 7.78974L19.2628 17.1922L33.2412 8.93013L19.3204 17.2901L33.892 10.1252L19.3693 17.3909L34.4478 11.3664L19.4125 17.4917L34.9086 12.6508L19.4442 17.5982L35.2714 13.964L19.4701 17.7048L35.5277 15.3002L19.4874 17.8171L35.6832 16.6508L19.496 17.9352L35.7322 17.9985Z" fill="white"/>
<path d="M17.9986 28.2649C23.6685 28.2649 28.2649 23.6685 28.2649 17.9986C28.2649 12.3286 23.6685 7.73218 17.9986 7.73218C12.3286 7.73218 7.73218 12.3286 7.73218 17.9986C7.73218 23.6685 12.3286 28.2649 17.9986 28.2649Z" fill="#73AB81"/>
<path d="M17.9986 27.5652C23.282 27.5652 27.5651 23.2821 27.5651 17.9986C27.5651 12.7151 23.282 8.43201 17.9986 8.43201C12.7151 8.43201 8.43196 12.7151 8.43196 17.9986C8.43196 23.2821 12.7151 27.5652 17.9986 27.5652Z" fill="#1D6C5B"/>
<path d="M17.9986 26.6897C22.7985 26.6897 26.6897 22.7985 26.6897 17.9985C26.6897 13.1985 22.7985 9.30737 17.9986 9.30737C13.1986 9.30737 9.30742 13.1985 9.30742 17.9985C9.30742 22.7985 13.1986 26.6897 17.9986 26.6897Z" fill="#73AB81"/>
<path d="M29.2181 18.3383L18.8538 18.0676L29.1461 19.3117L18.8452 18.1425L28.9906 20.2764L18.8308 18.2145L28.7516 21.2296L18.8107 18.2836L28.4262 22.1569L18.7847 18.3498L28.023 23.0525L18.7502 18.4161L27.5421 23.9078L18.7127 18.4794L26.9921 24.717L18.6667 18.5399L26.3729 25.4744L18.6148 18.5975L25.6904 26.1742L18.5572 18.6493L24.9532 26.8106L18.4968 18.6983L24.1584 27.3837L18.4334 18.7386L23.3175 27.8848L18.3672 18.7732L22.4363 28.311L18.3009 18.802L21.5176 28.6594L18.2347 18.825L20.5731 28.9272L18.1656 18.8423L19.6083 29.1087L18.0907 18.8538L18.6321 29.2066L18.0158 18.8567L17.6587 29.2181L17.9323 18.8538L16.6883 29.1461L17.8546 18.8452L15.7207 28.9906L17.7826 18.8308L14.7675 28.7516L17.7135 18.8106L13.8402 28.4262L17.6472 18.7847L12.9446 28.023L17.5839 18.7501L12.0893 27.5421L17.5205 18.7127L11.2801 26.992L17.46 18.6666L10.5227 26.3729L17.4024 18.6148L9.82577 25.6904L17.3477 18.5572L9.18646 24.9532L17.3017 18.4967L8.61627 24.1583L17.2585 18.4334L8.11231 23.3174L17.2239 18.3671L7.6861 22.4362L17.1951 18.3009L7.33765 21.5176L17.1721 18.2347L7.07271 20.573L17.1577 18.1655L6.88841 19.6083L17.1461 18.0907L6.7905 18.6321L17.1404 18.0158L6.77898 17.6587L17.1433 17.9323L6.85097 16.6882L17.1519 17.8545L7.00648 15.7206L17.1692 17.7825L7.24838 14.7674L17.1893 17.7134L7.57091 13.8401L17.2153 17.6472L7.97408 12.9445L17.2469 17.5838L8.455 12.0892L17.2873 17.5205L9.00503 11.28L17.3333 17.46L9.62419 10.5226L17.3852 17.4024L10.3067 9.82573L17.4399 17.3477L11.0468 9.18642L17.5004 17.3016L11.8387 8.61622L17.5637 17.2584L12.6796 8.11226L17.6299 17.2239L13.5637 7.68606L17.6962 17.1951L14.4795 7.33761L17.7653 17.172L15.4269 7.07267L17.8344 17.1576L16.3916 6.88836L17.9064 17.1461L17.365 6.79045L17.9842 17.1403L18.3384 6.77893L18.0677 17.1432L19.3117 6.85092L18.1425 17.1519L20.2765 7.00643L18.2145 17.1691L21.2297 7.24833L18.2836 17.1893L22.1569 7.57087L18.3499 17.2152L23.0526 7.97403L18.4161 17.2469L23.9078 8.45496L18.4795 17.2872L24.7171 9.00499L18.54 17.3333L25.4744 9.62414L18.5976 17.3851L26.1742 10.3066L18.6494 17.4398L26.8106 11.0467L18.6983 17.5003L27.3837 11.8387L18.7387 17.5637L27.8848 12.6796L18.7732 17.6299L28.311 13.5637L18.802 17.6961L28.6595 14.4794L18.825 17.7652L28.9273 15.4269L18.8423 17.8344L29.1087 16.3916L18.8538 17.9064L29.2066 17.365L18.8567 17.9841L29.2181 18.3383Z" fill="#1D6C5B"/>
<path d="M7.6458 16.8755V18.8452C7.6458 19.0007 7.80994 19.1044 7.95105 19.0382L9.99281 18.0533C10.1541 17.9755 10.1541 17.748 9.99281 17.6703L7.95105 16.6854C7.80994 16.6163 7.6458 16.72 7.6458 16.8755Z" fill="#D0E0B5"/>
<path d="M28.3542 18.8453V16.8755C28.3542 16.72 28.1901 16.6163 28.0489 16.6826L26.0072 17.6675C25.8459 17.7452 25.8459 17.9727 26.0072 18.0505L28.0489 19.0353C28.1901 19.1045 28.3542 19.0037 28.3542 18.8453Z" fill="#D0E0B5"/>
<path d="M19.1937 7.43274H17.2239C17.0684 7.43274 16.9647 7.59689 17.031 7.73799L18.0158 9.77975C18.0936 9.94102 18.3211 9.94102 18.3989 9.77975L19.3837 7.73799C19.4528 7.59689 19.3492 7.43274 19.1937 7.43274Z" fill="#D0E0B5"/>
<path d="M17.2239 28.3802H19.1937C19.3492 28.3802 19.4529 28.2161 19.3866 28.0749L18.4017 26.0332C18.324 25.8719 18.0965 25.8719 18.0187 26.0332L17.0338 28.0749C16.9647 28.2161 17.0655 28.3802 17.2239 28.3802Z" fill="#D0E0B5"/>
<path d="M21.2585 14.946V14.0878C21.5004 13.9467 21.6645 13.6875 21.6645 13.3851V13.1807C21.6645 13.0683 21.5724 12.9762 21.46 12.9762H14.5342C14.4219 12.9762 14.3297 13.0683 14.3297 13.1807V13.3851C14.3297 13.6846 14.4939 13.9467 14.7358 14.0878V14.946C14.7358 15.7523 15.0785 16.527 15.6804 17.0655L16.5731 17.8689L15.6804 18.6724C15.0814 19.2109 14.7358 19.9856 14.7358 20.7919V21.6501C14.4939 21.7912 14.3297 22.0504 14.3297 22.3527V22.5572C14.3297 22.6695 14.4219 22.7617 14.5342 22.7617H21.46C21.5724 22.7617 21.6645 22.6695 21.6645 22.5572V22.3527C21.6645 22.0532 21.5004 21.7912 21.2585 21.6501V20.789C21.2585 19.9827 20.9158 19.208 20.3139 18.6695L19.4212 17.866L20.3139 17.0626C20.9129 16.5241 21.2585 15.7523 21.2585 14.946ZM19.7696 16.4578L18.5428 17.5637C18.4565 17.6414 18.4075 17.7509 18.4075 17.866C18.4075 17.9812 18.4565 18.0907 18.5428 18.1684L19.7696 19.2743C20.1987 19.6601 20.4435 20.2131 20.4435 20.789V21.5349H19.9338L18.1627 19.1735C18.085 19.0698 17.9151 19.0698 17.8373 19.1735L16.0662 21.5349H15.5565V20.789C15.5565 20.2131 15.8013 19.6601 16.2304 19.2743L17.4572 18.1684C17.5436 18.0907 17.5925 17.9812 17.5925 17.866C17.5925 17.7509 17.5436 17.6414 17.4572 17.5637L16.2304 16.4578C15.8013 16.0719 15.5565 15.519 15.5565 14.9431V14.1972H20.4435V14.9431C20.4435 15.5219 20.1987 16.0748 19.7696 16.4578Z" fill="#D0E0B5"/>
<path d="M19.4039 15.5421H16.5961C16.5155 15.5421 16.4435 15.5911 16.4089 15.6631C16.3773 15.7379 16.3888 15.8215 16.4435 15.8819L17.8603 17.1893C17.8978 17.2239 17.9467 17.2412 17.9957 17.2412C18.0446 17.2412 18.0936 17.2239 18.131 17.1893L19.5479 15.8819C19.6026 15.8215 19.617 15.7351 19.5824 15.6631C19.5565 15.5882 19.4845 15.5421 19.4039 15.5421Z" fill="#D0E0B5"/>
</svg>
