<svg width="36" height="36" viewBox="0 0 36 36" fill="none" xmlns="http://www.w3.org/2000/svg">
<path d="M36 18L34.1351 20.3058L35.2744 23.0395L32.8314 24.7287L33.1431 27.6679L30.3174 28.6026L29.7874 31.5136L26.8115 31.6234L25.4795 34.2699L22.5942 33.5407L20.5621 35.7001L18 34.191L15.4379 35.7001L13.4058 33.5407L10.5205 34.2699L9.18848 31.6234L6.21258 31.5136L5.67975 28.6026L2.85688 27.6679L3.16863 24.7287L0.725554 23.0395L1.86491 20.3058L0 18L1.86491 15.6943L0.725554 12.9606L3.16863 11.2742L2.85688 8.33219L5.67975 7.3975L6.21258 4.48645L9.18848 4.37665L10.5205 1.73305L13.4058 2.46222L15.4379 0.300049L18 1.80907L20.5621 0.300049L22.5942 2.46222L25.4795 1.73305L26.8115 4.37665L29.7874 4.48645L30.3203 7.3975L33.1431 8.33219L32.8314 11.2742L35.2744 12.9634L34.1351 15.6943L36 18Z" fill="#976B47"/>
<path d="M18 33.3859C26.5543 33.3859 33.4889 26.4974 33.4889 18.0001C33.4889 9.50271 26.5543 2.61426 18 2.61426C9.44572 2.61426 2.51109 9.50271 2.51109 18.0001C2.51109 26.4974 9.44572 33.3859 18 33.3859Z" fill="#594A42"/>
<path d="M18 32.6764C26.1598 32.6764 32.7747 26.1056 32.7747 18.0001C32.7747 9.89455 26.1598 3.32373 18 3.32373C9.84018 3.32373 3.22533 9.89455 3.22533 18.0001C3.22533 26.1056 9.84018 32.6764 18 32.6764Z" fill="#D0C352"/>
<path d="M18 30.2693C24.8215 30.2693 30.3514 24.7762 30.3514 18.0001C30.3514 11.224 24.8215 5.73083 18 5.73083C11.1785 5.73083 5.64856 11.224 5.64856 18.0001C5.64856 24.7762 11.1785 30.2693 18 30.2693Z" fill="#F8F9FB"/>
<path d="M33.3982 18L22.6169 18.3069L33.2678 19.9905L22.5404 18.9038L32.8767 21.9584L22.3845 19.4809L32.2277 23.8588L22.1549 20.0327L31.3349 25.6549L21.8517 20.5507L30.2126 27.316L21.4804 21.0293L28.8862 28.8166L21.0496 21.4601L27.3755 30.1341L20.5678 21.8261L25.7033 31.2462L20.0435 22.1273L23.8951 32.133L19.488 22.3554L21.982 32.7777L18.9098 22.5102L20.0038 33.1663L18.3089 22.589L18 33.2958L17.6911 22.589L15.9962 33.1663L17.0902 22.5102L14.018 32.7777L16.5092 22.3554L12.1049 32.133L15.9565 22.1273L10.2938 31.2462L15.4322 21.8261L8.62164 30.1341L14.9504 21.4573L7.11101 28.8166L14.5196 21.0293L5.78461 27.316L14.1483 20.5507L4.6651 25.6521L13.8451 20.0299L3.77232 23.8559L13.6155 19.4809L3.12329 21.9584L13.4596 18.9038L2.73217 19.9905L13.3803 18.3069L2.60179 18L13.3803 17.696L2.73217 16.0096L13.4596 17.0963L3.12329 14.0445L13.6155 16.522L3.77232 12.1442L13.8451 15.9702L4.6651 10.348L14.1483 15.4494L5.78745 8.68411L14.5196 14.9708L7.11101 7.18354L14.9504 14.5428L8.62446 5.86596L15.4322 14.174L10.2966 4.75391L15.9565 13.8728L12.1049 3.86708L16.512 13.6447L14.018 3.22237L17.0902 13.4899L15.9962 2.83385L17.6911 13.4139L18 2.70435L18.3089 13.4139L20.0038 2.83385L18.9098 13.4899L21.982 3.22237L19.488 13.6447L23.8951 3.86708L20.0435 13.8728L25.7033 4.75672L20.5678 14.174L27.3784 5.86878L21.0496 14.5428L28.889 7.18636L21.4804 14.9708L30.2154 8.68693L21.8517 15.4494L31.3349 10.348L22.1549 15.9702L32.2277 12.1442L22.3845 16.522L32.8767 14.0445L22.5404 17.0963L33.2678 16.0096L22.6169 17.696L33.3982 18Z" fill="#00AEEF"/>
<path d="M27.812 17.6143L24.8021 19.1599L26.8399 21.8457L23.4558 21.9358L24.119 25.2354L21.0269 23.8615L20.1823 27.1189L18 24.5456L15.8177 27.1189L14.9731 23.8615L11.881 25.2354L12.5442 21.9358L9.16013 21.8457L11.1951 19.1599L8.188 17.6143L11.1951 16.0715L9.16013 13.3857L12.5442 13.2956L11.881 9.99601L14.9731 11.3699L15.8177 8.11255L18 10.6858L20.1823 8.11255L21.0269 11.3699L24.119 9.99601L23.4558 13.2956L26.8399 13.3857L24.8021 16.0715L27.812 17.6143Z" fill="#F0D3AB"/>
<path d="M27.812 17.6143L24.8021 19.1599L26.8399 21.8457L23.4558 21.9358L24.119 25.2354L21.0269 23.8615L20.1823 27.1189L18 24.5456L15.8177 27.1189L14.9731 23.8615L11.881 25.2354L12.5442 21.9358L9.16013 21.8457L11.1951 19.1599L8.188 17.6143L11.1951 16.0715L9.16013 13.3857L12.5442 13.2956L11.881 9.99601L14.9731 11.3699L15.8177 8.11255L18 10.6858L20.1823 8.11255L21.0269 11.3699L24.119 9.99601L23.4558 13.2956L26.8399 13.3857L24.8021 16.0715L27.812 17.6143Z" stroke="#FBB040" stroke-width="4" stroke-miterlimit="10"/>
<path d="M12.3741 13.2759C13.0997 13.2196 13.9953 13.0901 14.9872 12.7945C16.2598 12.4144 17.2688 11.8936 17.9943 11.4459C18.6065 11.8964 19.5815 12.5017 20.905 12.893C21.9849 13.2111 22.9372 13.2815 23.623 13.2787C23.436 20.0242 20.307 24.5569 18 24.5569C15.693 24.5569 12.564 20.0242 12.3741 13.2759Z" fill="#00AEEF" stroke="white" stroke-miterlimit="10"/>
<path d="M13.0827 13.8728C13.7175 13.8249 14.4998 13.7095 15.367 13.4505C16.4809 13.1183 17.3623 12.6622 17.9972 12.2709C18.53 12.665 19.3859 13.1943 20.5423 13.535C21.4861 13.8137 22.3165 13.8756 22.9173 13.8728C22.7529 19.7709 20.018 23.7293 18 23.7293C15.9821 23.7293 13.2499 19.7709 13.0827 13.8728Z" fill="#28BCEA"/>
<path d="M18 14.3373L18.9154 16.1813L20.9617 16.4741L19.4795 17.9099L19.8309 19.9342L18 18.977L16.1691 19.9342L16.5177 17.9099L15.0383 16.4741L17.0846 16.1813L18 14.3373Z" fill="white"/>
</svg>
