<svg width="36" height="36" viewBox="0 0 36 36" fill="none" xmlns="http://www.w3.org/2000/svg">
<path d="M35.683 15.519L36 15.0492H0L0.280003 15.519H35.683Z" fill="#313232"/>
<path d="M0.344797 21.8757L0 22.4543H36L35.6274 21.8757H0.344797Z" fill="#313232"/>
<path d="M0.411906 21.76H35.5534L33.5587 18.673L35.6066 15.6346H0.349426L2.20531 18.7517L0.411906 21.76Z" fill="#313232"/>
<path d="M18.0012 31.9049C25.7345 31.9049 32.0036 25.6358 32.0036 17.9025C32.0036 10.1691 25.7345 3.90002 18.0012 3.90002C10.2678 3.90002 3.99872 10.1691 3.99872 17.9025C3.99872 25.6358 10.2678 31.9049 18.0012 31.9049Z" fill="#026636"/>
<path d="M18.0012 29.5701C24.445 29.5701 29.6687 24.3463 29.6687 17.9025C29.6687 11.4587 24.445 6.23499 18.0012 6.23499C11.5574 6.23499 6.33362 11.4587 6.33362 17.9025C6.33362 24.3463 11.5574 29.5701 18.0012 29.5701Z" fill="#FAEDAF"/>
<path d="M18.0012 28.2672C12.2854 28.2672 7.63643 23.6182 7.63643 17.9024C7.63643 12.1867 12.2854 7.53772 18.0012 7.53772C23.7169 7.53772 28.3659 12.1867 28.3659 17.9024C28.3659 23.6182 23.7146 28.2672 18.0012 28.2672ZM18.0012 8.46335C12.7968 8.46335 8.56206 12.6981 8.56206 17.9024C8.56206 23.1068 12.7968 27.3415 18.0012 27.3415C23.2055 27.3415 27.4402 23.1068 27.4402 17.9024C27.4402 12.6981 23.2055 8.46335 18.0012 8.46335Z" fill="#FBB040"/>
<path d="M18.015 22.0747L18.6028 23.2665L19.9172 23.4562L18.9661 24.3841L19.1906 25.6916L18.015 25.0737L16.8395 25.6916L17.064 24.3841L16.1129 23.4562L17.4273 23.2665L18.015 22.0747Z" fill="#FBB040"/>
<path d="M22.1132 23.012L22.3169 23.8358L23.1129 24.1343L22.3909 24.5832L22.3516 25.4325L21.7013 24.8864L20.8822 25.1108L21.2038 24.324L20.7364 23.6136L21.5833 23.6738L22.1132 23.012Z" fill="#FBB040"/>
<path d="M13.8011 23.005L14.3796 23.6275L15.2196 23.5048L14.8077 24.2453L15.1849 25.0067L14.3496 24.8447L13.7433 25.4371L13.6414 24.5948L12.8894 24.2014L13.66 23.8427L13.8011 23.005Z" fill="#FBB040"/>
<path d="M15.657 14.6002V11.4184L14.7106 11.9043L14.3542 11.2819L15.8283 10.3655H16.622V14.8525L17.4643 14.8918V15.5814H14.6434V14.9173L15.421 14.8687C15.502 14.864 15.5621 14.8409 15.5992 14.8039C15.6362 14.7645 15.657 14.6974 15.657 14.6002Z" fill="#363633"/>
<path d="M19.8756 10.259C21.102 10.259 21.7129 11.1476 21.7129 12.9248C21.7129 13.869 21.5533 14.5632 21.2362 15.0029C20.9169 15.4426 20.4448 15.6624 19.8177 15.6624C19.1906 15.6624 18.7232 15.4449 18.4177 15.0098C18.1099 14.5748 17.9549 13.8991 17.9549 12.9804C17.9549 12.0617 18.1238 11.379 18.4663 10.9324C18.8065 10.4835 19.2762 10.259 19.8756 10.259ZM19.1675 14.466C19.3225 14.7437 19.5446 14.8825 19.8362 14.8825C20.1278 14.8825 20.3523 14.7391 20.5119 14.4521C20.6716 14.1652 20.7503 13.6677 20.7503 12.9572C20.7503 12.2468 20.6739 11.7516 20.5189 11.4716C20.3638 11.1916 20.1394 11.0504 19.8432 11.0504C19.547 11.0504 19.3202 11.2009 19.1675 11.4994C19.0147 11.7979 18.936 12.2977 18.936 12.9989C18.936 13.7001 19.0124 14.1883 19.1675 14.466Z" fill="#363633"/>
<path d="M10.7465 20.2119V17.796H10.3323C10.2513 17.796 10.2097 17.8516 10.2097 17.9603V18.2103L9.66588 18.1732V17.2684H12.4497V18.1732L11.9059 18.2103V17.9603C11.9059 17.9002 11.8966 17.8585 11.8804 17.8331C11.8619 17.8076 11.8203 17.796 11.7532 17.796H11.3922V20.3392L11.8133 20.3554V20.809H10.3115V20.3785L10.5938 20.3623C10.6956 20.3508 10.7465 20.3022 10.7465 20.2119Z" fill="#363633"/>
<path d="M12.6996 20.809V20.3785L12.8755 20.3623C12.9773 20.3508 13.0305 20.3022 13.0305 20.2142V17.7382L12.7274 17.722V17.2684H14.1806C14.5925 17.2684 14.9072 17.3448 15.1271 17.4975C15.3469 17.6503 15.458 17.9002 15.458 18.2473C15.458 18.4879 15.3955 18.687 15.2682 18.8443C15.1433 18.9994 14.9929 19.1151 14.8193 19.1845C14.9466 19.2308 15.0484 19.3395 15.1224 19.5085L15.5043 20.3461L15.8074 20.3577V20.8113H14.493V20.3809L14.6481 20.3647C14.7291 20.3531 14.7707 20.323 14.7707 20.2698C14.7707 20.249 14.7638 20.2235 14.7499 20.1957L14.5 19.6635C14.4606 19.5756 14.4167 19.5108 14.3704 19.4737C14.3218 19.4367 14.2547 19.4182 14.1644 19.4182H13.6808V20.3438L14.0279 20.36V20.8136H12.6996V20.809ZM13.6785 18.9091H14.1413C14.5786 18.9091 14.7962 18.7147 14.7962 18.3236C14.7962 18.0992 14.7383 17.9557 14.6226 17.8863C14.5069 17.8192 14.3218 17.7845 14.0672 17.7845H13.6785V18.9091Z" fill="#363633"/>
<path d="M16.3605 20.1865V17.7382L16.0573 17.722V17.2684H17.3463V17.6988L17.1704 17.715C17.0663 17.7266 17.0154 17.7822 17.0154 17.8863V20.3392L17.3185 20.3554V20.809H16.0296V20.3785L16.2054 20.3623C16.2587 20.3554 16.298 20.3392 16.3235 20.3161C16.3489 20.2929 16.3605 20.249 16.3605 20.1865Z" fill="#363633"/>
<path d="M17.6656 20.809V20.3785L17.8415 20.3623C17.9433 20.3508 17.9965 20.3022 17.9965 20.2142V17.7382L17.6934 17.722V17.2684H19.216C19.6141 17.2684 19.9218 17.361 20.144 17.5484C20.3661 17.7336 20.4772 18.0136 20.4772 18.3861C20.4772 18.7587 20.3523 19.048 20.1 19.2562C19.8478 19.4645 19.5146 19.5686 19.1003 19.5686H18.6468V20.3392L19.1582 20.3554V20.809H17.6656ZM18.6445 19.0526H19.0286C19.547 19.0526 19.8061 18.842 19.8061 18.4185C19.8061 18.164 19.739 17.9927 19.6071 17.9094C19.4729 17.8261 19.2623 17.7845 18.9708 17.7845H18.6468V19.0526H18.6445Z" fill="#363633"/>
<path d="M23.3328 20.809H20.8058V20.3785L20.9817 20.3623C21.0835 20.3508 21.1367 20.3022 21.1367 20.2142V17.7382L20.8336 17.722V17.2684H22.1156V17.6988L21.9397 17.715C21.8379 17.7266 21.7847 17.7822 21.7847 17.8863V20.2605H22.6686C22.7172 20.2605 22.752 20.2466 22.7682 20.2212C22.7843 20.1957 22.7913 20.1518 22.7913 20.0916V19.719L23.3351 19.7561V20.809H23.3328Z" fill="#363633"/>
<path d="M26.2022 20.809H23.6753V20.3785L23.8511 20.3623C23.953 20.3508 24.0062 20.3022 24.0062 20.2142V17.7382L23.703 17.722V17.2684H26.1397V18.1524L25.5959 18.1894V17.9765C25.5959 17.9164 25.5867 17.8747 25.5705 17.8493C25.552 17.8238 25.5103 17.8122 25.4432 17.8122H24.6564V18.7217H25.8852V19.2655H24.6564V20.2605H25.5126C25.5774 20.2605 25.6168 20.2466 25.6353 20.2212C25.6538 20.1934 25.6607 20.1518 25.6607 20.0916V19.8255L26.2045 19.8625V20.809H26.2022Z" fill="#363633"/>
</svg>
