<svg width="36" height="36" viewBox="0 0 36 36" fill="none" xmlns="http://www.w3.org/2000/svg">
<path d="M33.9 26.3121V9.68789C33.9 9.19449 33.6351 8.73753 33.2067 8.49083L18.8503 0.187128C18.4163 -0.0623759 17.8837 -0.0623759 17.4496 0.187128L3.09328 8.49083C2.6649 8.74033 2.39999 9.19449 2.39999 9.68789V26.3121C2.39999 26.8055 2.6649 27.2625 3.09328 27.5092L17.4496 35.8129C17.8837 36.0624 18.4163 36.0624 18.8503 35.8129L33.2067 27.5092C33.6351 27.2625 33.9 26.8055 33.9 26.3121Z" fill="#1B75BC"/>
<path d="M32.1555 25.3029V10.6971C32.1555 10.2037 31.8905 9.74674 31.4622 9.50004L18.8503 2.20556C18.4163 1.95606 17.8837 1.95606 17.4496 2.20556L4.8378 9.50004C4.40942 9.74954 4.14452 10.2037 4.14452 10.6971V25.3029C4.14452 25.7963 4.40942 26.2532 4.8378 26.4999L17.4496 33.7944C17.8837 34.0439 18.4163 34.0439 18.8503 33.7944L31.4622 26.4999C31.8905 26.2532 32.1555 25.7963 32.1555 25.3029Z" fill="#F7941D"/>
<path d="M31.217 24.7619V11.241C31.217 10.7476 30.9521 10.2906 30.5237 10.0439L18.8503 3.29333C18.4163 3.04383 17.8837 3.04383 17.4496 3.29333L5.77912 10.0411C5.35074 10.2906 5.08582 10.7448 5.08582 11.2382V24.759C5.08582 25.2524 5.35074 25.7094 5.77912 25.9561L17.4525 32.7067C17.8865 32.9562 18.4191 32.9562 18.8532 32.7067L30.5237 25.9589C30.9521 25.7094 31.217 25.2553 31.217 24.7619Z" fill="white"/>
<path d="M30.4476 24.3161V11.6839C30.4476 11.1905 30.1827 10.7336 29.7543 10.4869L18.8503 4.17919C18.4163 3.92969 17.8837 3.92969 17.4496 4.17919L6.54568 10.4869C6.1173 10.7364 5.85239 11.1905 5.85239 11.6839V24.3161C5.85239 24.8095 6.1173 25.2665 6.54568 25.5132L17.4496 31.8208C17.8837 32.0703 18.4163 32.0703 18.8503 31.8208L29.7543 25.5132C30.1855 25.2665 30.4476 24.8095 30.4476 24.3161Z" fill="#F15A29"/>
<path d="M18.8757 30.5734L28.6664 24.9105C29.1089 24.6525 29.3823 24.1816 29.3823 23.6714V12.3288C29.3823 11.8185 29.1089 11.3448 28.6664 11.0896L18.8757 5.42676V30.5734Z" fill="#F7941D"/>
<path d="M19.662 9.85608H18.7235V16.018C19.0645 16.2479 19.2872 16.6347 19.2872 17.0749C19.2872 17.7785 18.7122 18.3504 18.0048 18.3504C17.2975 18.3504 16.7225 17.7785 16.7225 17.0749C16.7225 16.6347 16.9452 16.2479 17.2862 16.018V9.85608H16.0659L13.1884 17.4421L16.4266 21.7369H19.8818C20.8626 20.2567 21.8433 18.7793 22.8241 17.2991C21.7673 14.8181 20.716 12.3371 19.662 9.85608Z" fill="#C0983B"/>
<path d="M19.9551 9.2113H19.0166V15.3732C19.3576 15.6031 19.5803 15.99 19.5803 16.4301C19.5803 17.1337 19.0053 17.7056 18.2979 17.7056C17.5906 17.7056 17.0156 17.1337 17.0156 16.4301C17.0156 15.99 17.2383 15.6031 17.5793 15.3732V9.2113H16.359L13.4815 16.7973L16.7197 21.0922H20.1749C21.1557 19.612 22.1365 18.1346 23.1172 16.6544C22.0632 14.1733 21.0091 11.6923 19.9551 9.2113Z" fill="#F9D984"/>
<path d="M9.30197 15.7209C9.53589 17.1142 9.02014 18.1823 8.84541 18.5047C8.57485 18.2552 7.73782 17.4141 7.5039 16.0208C7.26998 14.6276 7.78573 13.5595 7.96046 13.2371C8.2282 13.4866 9.06805 14.3248 9.30197 15.7209Z" fill="#8B5E3C"/>
<path d="M13.6478 22.2529C13.5519 23.5733 12.8446 24.4311 12.6163 24.689C12.4246 24.4031 11.8497 23.4527 11.9427 22.1323C12.0385 20.8119 12.7459 19.9541 12.9742 19.6962C13.1659 19.9821 13.7436 20.9325 13.6478 22.2529Z" fill="#8B5E3C"/>
<path d="M11.0155 22.7126C12.1794 23.3602 12.6586 24.361 12.7967 24.675C12.4556 24.7254 11.3452 24.8432 10.1841 24.1956C9.02015 23.548 8.54103 22.5472 8.40294 22.2332C8.74395 22.1855 9.85436 22.0678 11.0155 22.7126Z" fill="#8B5E3C"/>
<path d="M12.1541 18.9168C12.0526 20.3269 11.2973 21.2408 11.0549 21.5156C10.852 21.21 10.2348 20.198 10.3363 18.7878C10.4377 17.3777 11.193 16.4638 11.4354 16.1891C11.6411 16.4947 12.2555 17.5067 12.1541 18.9168Z" fill="#8B5E3C"/>
<path d="M9.18924 19.4074C10.4293 20.0971 10.9422 21.1652 11.0888 21.5016C10.7252 21.5549 9.54153 21.681 8.30148 20.9914C7.06144 20.3017 6.54851 19.2336 6.40196 18.8972C6.76552 18.844 7.94637 18.7178 9.18924 19.4074Z" fill="#8B5E3C"/>
<path d="M20.4427 28.9474C20.3694 29.0315 19.0392 27.0298 16.5252 26.4271C15.1527 26.0991 14.1635 26.3654 13.0813 25.5524C12.481 25.1011 12.1344 24.532 11.9343 24.1087L12.6726 23.9657C12.8023 24.2685 13.0334 24.703 13.4561 25.0843C14.4933 26.015 15.6544 25.6926 17.0354 26.0907C19.2956 26.7467 20.5159 28.8633 20.4427 28.9474Z" fill="#8B5E3C"/>
<path d="M26.657 15.4825C26.4428 16.8758 26.9163 17.9439 27.0741 18.2663C27.3193 18.0168 28.0859 17.1757 28.2972 15.7824C28.5114 14.3891 28.038 13.321 27.8801 12.9987C27.6349 13.2482 26.8712 14.0864 26.657 15.4825Z" fill="#8B5E3C"/>
<path d="M22.6917 22.0144C22.779 23.3348 23.4244 24.1926 23.633 24.4505C23.8077 24.1646 24.3347 23.2142 24.2474 21.8938C24.16 20.5734 23.5146 19.7156 23.306 19.4576C23.1341 19.7436 22.6071 20.6939 22.6917 22.0144Z" fill="#8B5E3C"/>
<path d="M25.0929 22.4742C24.0332 23.1218 23.5935 24.1226 23.4695 24.4366C23.7823 24.487 24.7941 24.6048 25.8538 23.9572C26.9135 23.3096 27.3531 22.3088 27.4771 21.9948C27.1671 21.9443 26.1553 21.8294 25.0929 22.4742Z" fill="#8B5E3C"/>
<path d="M24.0557 18.6784C24.1487 20.0885 24.8364 21.0024 25.059 21.2772C25.245 20.9716 25.8059 19.9596 25.7129 18.5494C25.6199 17.1393 24.9322 16.2254 24.7096 15.9507C24.5264 16.2563 23.9627 17.2683 24.0557 18.6784Z" fill="#8B5E3C"/>
<path d="M26.7613 19.1689C25.6283 19.8586 25.1633 20.9267 25.028 21.2631C25.3606 21.3163 26.44 21.4425 27.5729 20.7528C28.7059 20.0632 29.1709 18.9951 29.3062 18.6587C28.9736 18.6054 27.8942 18.4793 26.7613 19.1689Z" fill="#8B5E3C"/>
<path d="M16.4942 28.709C16.5619 28.7931 17.7738 26.7914 20.0678 26.1887C21.322 25.8607 22.221 26.127 23.2102 25.314C23.7598 24.8627 24.0726 24.2936 24.2586 23.8703L23.5851 23.7273C23.4667 24.0301 23.2553 24.4646 22.872 24.8459C21.9279 25.7766 20.8682 25.4542 19.6085 25.8523C17.5426 26.5055 16.4294 28.6249 16.4942 28.709Z" fill="#8B5E3C"/>
<path d="M14.7554 24.0077V25.4066C15.8855 25.7318 17.0156 26.057 18.1458 26.385C19.2787 26.0598 20.4117 25.7346 21.5418 25.4066V24.0077H14.7554Z" fill="#E6E7E8"/>
<path d="M18.1375 22.9956C17.0102 23.332 15.8857 23.6712 14.7584 24.0076C15.8772 24.2459 16.9933 24.4842 18.1121 24.7225C19.2564 24.4842 20.4006 24.2459 21.5476 24.0076C20.409 23.6712 19.2733 23.332 18.1375 22.9956Z" fill="white"/>
</svg>
